<svg width="80" height="80" viewBox="0 0 80 80" fill="none" xmlns="http://www.w3.org/2000/svg">
<g filter="url(#filter0_d)">
<circle cx="40" cy="40" r="29" fill="#7F4DA0"/>
</g>
<g filter="url(#filter1_d)">
<circle cx="40" cy="40" r="36" fill="#7F4DA0" fill-opacity="0.2"/>
</g>
<path d="M43.1875 29.375H30.4375C29.851 29.375 29.375 29.851 29.375 30.4375C29.375 31.024 29.851 31.5 30.4375 31.5H43.1875C43.774 31.5 44.25 31.024 44.25 30.4375C44.25 29.851 43.774 29.375 43.1875 29.375Z" fill="white"/>
<path d="M38.9375 33.625H30.4375C29.851 33.625 29.375 34.101 29.375 34.6875C29.375 35.274 29.851 35.75 30.4375 35.75H38.9375C39.524 35.75 40 35.274 40 34.6875C40 34.101 39.524 33.625 38.9375 33.625Z" fill="white"/>
<path d="M46.375 23H27.25C24.9061 23 23 24.9061 23 27.25V48.5C23 48.9123 23.238 49.2884 23.612 49.4626C23.7544 49.5285 23.9095 49.5625 24.0625 49.5625C24.3069 49.5625 24.5491 49.4775 24.7425 49.316L30.8221 44.25H46.375C48.7189 44.25 50.625 42.3439 50.625 40V27.25C50.625 24.9061 48.7189 23 46.375 23ZM48.5 40C48.5 41.1709 47.548 42.125 46.375 42.125H30.4375C30.1889 42.125 29.9488 42.2121 29.7575 42.3715L25.125 46.2326V27.25C25.125 26.0791 26.077 25.125 27.25 25.125H46.375C47.548 25.125 48.5 26.0791 48.5 27.25V40Z" fill="white"/>
<path d="M52.75 31.5C52.1635 31.5 51.6875 31.976 51.6875 32.5625C51.6875 33.149 52.1635 33.625 52.75 33.625C53.923 33.625 54.875 34.5791 54.875 35.75V53.7254L51.288 50.8566C51.101 50.7079 50.8651 50.625 50.625 50.625H35.75C34.577 50.625 33.625 49.6709 33.625 48.5V47.4375C33.625 46.851 33.149 46.375 32.5625 46.375C31.976 46.375 31.5 46.851 31.5 47.4375V48.5C31.5 50.8439 33.4061 52.75 35.75 52.75H50.251L55.2724 56.7684C55.4658 56.9214 55.7016 57 55.9375 57C56.0926 57 56.2499 56.966 56.3986 56.8959C56.7663 56.7174 57 56.3455 57 55.9375V35.75C57 33.4061 55.0939 31.5 52.75 31.5Z" fill="white"/>
<defs>
<filter id="filter0_d" x="7" y="7" width="66" height="66" filterUnits="userSpaceOnUse" color-interpolation-filters="sRGB">
<feFlood flood-opacity="0" result="BackgroundImageFix"/>
<feColorMatrix in="SourceAlpha" type="matrix" values="0 0 0 0 0 0 0 0 0 0 0 0 0 0 0 0 0 0 127 0"/>
<feOffset/>
<feGaussianBlur stdDeviation="2"/>
<feColorMatrix type="matrix" values="0 0 0 0 0.870833 0 0 0 0 0.870833 0 0 0 0 0.870833 0 0 0 0.25 0"/>
<feBlend mode="normal" in2="BackgroundImageFix" result="effect1_dropShadow"/>
<feBlend mode="normal" in="SourceGraphic" in2="effect1_dropShadow" result="shape"/>
</filter>
<filter id="filter1_d" x="0" y="0" width="80" height="80" filterUnits="userSpaceOnUse" color-interpolation-filters="sRGB">
<feFlood flood-opacity="0" result="BackgroundImageFix"/>
<feColorMatrix in="SourceAlpha" type="matrix" values="0 0 0 0 0 0 0 0 0 0 0 0 0 0 0 0 0 0 127 0"/>
<feOffset/>
<feGaussianBlur stdDeviation="2"/>
<feColorMatrix type="matrix" values="0 0 0 0 0.870833 0 0 0 0 0.870833 0 0 0 0 0.870833 0 0 0 0.25 0"/>
<feBlend mode="normal" in2="BackgroundImageFix" result="effect1_dropShadow"/>
<feBlend mode="normal" in="SourceGraphic" in2="effect1_dropShadow" result="shape"/>
</filter>
</defs>
</svg>
