<svg width="58" height="58" viewBox="0 0 58 58" fill="none" xmlns="http://www.w3.org/2000/svg">
<circle cx="29" cy="29" r="29" fill="#2197D5"/>
<path d="M23.9211 33.6129L23.3881 41.7097C24.1507 41.7097 24.481 41.3559 24.877 40.9311L28.4524 37.2408L35.861 43.1002C37.2198 43.918 38.1771 43.4874 38.5436 41.7503L43.4066 17.141L43.4079 17.1396C43.8389 14.9704 42.6816 14.1221 41.3577 14.6543L12.7733 26.4732C10.8224 27.291 10.852 28.4655 12.4416 28.9976L19.7495 31.4525L36.7243 19.9816C37.5232 19.4103 38.2496 19.7264 37.6521 20.2977L23.9211 33.6129Z" fill="white"/>
<path d="M23.9211 33.6129L23.3881 41.7097C24.1507 41.7097 24.481 41.3559 24.877 40.9311L28.4524 37.2408L35.861 43.1002C37.2198 43.918 38.1771 43.4874 38.5436 41.7503L43.4066 17.141L43.4079 17.1396C43.8389 14.9704 42.6816 14.1221 41.3577 14.6543L12.7733 26.4732C10.8224 27.291 10.852 28.4655 12.4416 28.9976L19.7495 31.4525L36.7243 19.9816C37.5232 19.4103 38.2496 19.7264 37.6521 20.2977L23.9211 33.6129Z" fill="white"/>
</svg>
