<svg width="58" height="58" viewBox="0 0 58 58" fill="none" xmlns="http://www.w3.org/2000/svg">
<circle cx="29" cy="29" r="29" fill="#7F4DA0"/>
<path d="M47.5453 20.5432L47.5339 20.4974C46.6074 16.7519 42.4304 12.7328 38.5946 11.8966L38.5513 11.8877C32.347 10.7041 26.0561 10.7041 19.8531 11.8877L19.8085 11.8966C15.974 12.7328 11.797 16.7519 10.8692 20.4974L10.8591 20.5432C9.71365 25.7739 9.71365 31.0784 10.8591 36.3092L10.8692 36.355C11.7574 39.9406 15.6233 43.7751 19.316 44.8296V49.0106C19.316 50.5239 21.1601 51.2671 22.2088 50.1751L26.4449 45.7718C27.3637 45.8232 28.2829 45.8518 29.2022 45.8518C32.3254 45.8518 35.4498 45.5566 38.5513 44.9648L38.5946 44.9559C42.4304 44.1197 46.6074 40.1006 47.5339 36.3551L47.5453 36.3093C48.6908 31.0784 48.6908 25.7739 47.5453 20.5432ZM44.1931 35.5506C43.5746 37.9942 40.4031 41.0321 37.8832 41.5933C34.5842 42.2206 31.2592 42.4888 27.9375 42.3968C27.8715 42.395 27.808 42.4206 27.7619 42.4679C27.2905 42.9518 24.6689 45.643 24.6689 45.643L21.379 49.0194C21.1385 49.2701 20.716 49.0996 20.716 48.7534V41.8272C20.716 41.7128 20.6343 41.6156 20.5219 41.5936C20.5212 41.5935 20.5206 41.5933 20.52 41.5932C18.0001 41.0319 14.8298 37.9941 14.21 35.5505C13.1792 30.8225 13.1792 26.0296 14.21 21.3016C14.8298 18.858 18.0001 15.8201 20.52 15.2589C26.2814 14.1631 32.123 14.1631 37.8832 15.2589C40.4043 15.8201 43.5746 18.858 44.1931 21.3016C45.2251 26.0297 45.2251 30.8226 44.1931 35.5506Z" fill="white"/>
<path d="M34.6831 38.7483C34.2957 38.6307 33.9265 38.5517 33.5836 38.4094C30.0308 36.9354 26.7611 35.0337 24.171 32.1186C22.6982 30.461 21.5454 28.5895 20.5709 26.6089C20.1088 25.6697 19.7193 24.6937 19.3224 23.724C18.9604 22.8398 19.4935 21.9262 20.0549 21.26C20.5817 20.6347 21.2595 20.1562 21.9936 19.8035C22.5666 19.5283 23.1318 19.687 23.5502 20.1726C24.4548 21.2226 25.2858 22.3262 25.9586 23.5433C26.3724 24.2919 26.2589 25.207 25.509 25.7164C25.3267 25.8402 25.1607 25.9856 24.9909 26.1255C24.842 26.248 24.7019 26.3718 24.5998 26.5378C24.4132 26.8415 24.4043 27.1996 24.5244 27.5297C25.4492 30.071 27.0078 32.0471 29.5657 33.1115C29.975 33.2817 30.386 33.48 30.8576 33.425C31.6473 33.3328 31.9029 32.4666 32.4563 32.014C32.9972 31.5718 33.6884 31.5659 34.271 31.9346C34.8538 32.3034 35.4187 32.6994 35.9802 33.0995C36.5314 33.4922 37.0802 33.8765 37.5887 34.3242C38.0775 34.7547 38.2459 35.3196 37.9706 35.9039C37.4666 36.9739 36.7333 37.8642 35.6754 38.4324C35.3767 38.5926 35.02 38.6446 34.6831 38.7483C35.02 38.6446 34.2957 38.6306 34.6831 38.7483Z" fill="white"/>
<path d="M29.2119 18.5791C33.859 18.7093 37.6759 21.7934 38.4939 26.3877C38.6332 27.1706 38.6829 27.971 38.7449 28.7655C38.7709 29.0997 38.5817 29.4172 38.221 29.4216C37.8485 29.426 37.6809 29.1143 37.6567 28.7803C37.6089 28.119 37.5756 27.4548 37.4845 26.799C37.0035 23.3371 34.243 20.4731 30.7972 19.8585C30.2787 19.766 29.748 19.7417 29.2228 19.6866C28.8908 19.6517 28.4559 19.6316 28.3823 19.2189C28.3206 18.8728 28.6127 18.5973 28.9422 18.5796C29.0318 18.5746 29.1219 18.5787 29.2119 18.5791C29.1219 18.5787 33.859 18.7093 29.2119 18.5791Z" fill="white"/>
<path d="M36.2741 27.7339C36.2665 27.792 36.2624 27.9284 36.2285 28.0569C36.1051 28.5235 35.3978 28.5819 35.2349 28.111C35.1866 27.9713 35.1794 27.8123 35.1791 27.6619C35.1775 26.6776 34.9635 25.6943 34.4672 24.8379C33.957 23.9578 33.1775 23.2178 32.2632 22.7701C31.7103 22.4994 31.1124 22.3311 30.5065 22.2309C30.2417 22.1871 29.974 22.1605 29.7079 22.1234C29.3854 22.0786 29.2132 21.8731 29.2285 21.5553C29.2427 21.2575 29.4604 21.0433 29.7849 21.0616C30.8514 21.1222 31.8815 21.3527 32.8296 21.8548C34.7578 22.8758 35.8591 24.4876 36.1806 26.6397C36.1951 26.7372 36.2185 26.8338 36.2259 26.9316C36.2441 27.1733 36.2556 27.4152 36.2741 27.7339C36.2556 27.4152 36.2665 27.792 36.2741 27.7339Z" fill="white"/>
<path d="M33.3838 27.6224C32.995 27.6294 32.7869 27.4142 32.7468 27.0577C32.7189 26.8092 32.6969 26.5573 32.6376 26.3155C32.5208 25.8393 32.2676 25.3979 31.867 25.1061C31.6779 24.9682 31.4635 24.8678 31.239 24.803C30.9538 24.7207 30.6577 24.7433 30.3731 24.6736C30.0641 24.5979 29.8932 24.3477 29.9418 24.0578C29.9859 23.7939 30.2426 23.588 30.5309 23.6089C32.3326 23.7389 33.6204 24.6704 33.8041 26.7915C33.8171 26.9411 33.8324 27.0993 33.7992 27.2425C33.7423 27.4876 33.5608 27.6104 33.3838 27.6224C33.5608 27.6104 32.995 27.6294 33.3838 27.6224Z" fill="white"/>
</svg>
