<svg width="58" height="58" viewBox="0 0 58 58" fill="none" xmlns="http://www.w3.org/2000/svg">
<circle cx="29" cy="29" r="29" fill="#4CAF50"/>
<path fill-rule="evenodd" clip-rule="evenodd" d="M41.5576 16.4283C38.2256 13.1084 33.7944 11.2793 29.0737 11.2773C19.3461 11.2773 11.4293 19.1561 11.4254 28.8397C11.4241 31.9352 12.2366 34.957 13.7811 37.6205L11.2773 46.7218L20.633 44.2794C23.2108 45.6788 26.113 46.4163 29.0665 46.4172H29.0739C38.8004 46.4172 46.7181 38.5378 46.7218 28.8538C46.7237 24.1606 44.8897 19.748 41.5576 16.4283ZM29.0737 43.451H29.0676C26.4356 43.4499 23.8543 42.746 21.6018 41.4162L21.0664 41.0997L15.5147 42.5491L16.9965 37.1621L16.6476 36.6098C15.1792 34.2855 14.4039 31.5991 14.4052 28.8408C14.4082 20.792 20.9886 14.2437 29.0796 14.2437C32.9975 14.245 36.6805 15.7654 39.4499 18.5248C42.2193 21.2842 43.7435 24.9519 43.7422 28.8527C43.7387 36.9021 37.1588 43.451 29.0737 43.451V43.451ZM37.1196 32.5176C36.6788 32.2978 34.5107 31.2365 34.1064 31.0898C33.7025 30.9433 33.4082 30.8704 33.1145 31.3096C32.8204 31.7488 31.9754 32.7374 31.7181 33.0301C31.4607 33.323 31.2038 33.3598 30.7627 33.14C30.3216 32.9204 28.9009 32.4568 27.2164 30.9617C25.9057 29.7981 25.0207 28.3609 24.7633 27.9218C24.5064 27.4822 24.7612 27.2676 24.9568 27.0262C25.4342 26.4362 25.9122 25.8177 26.0591 25.525C26.2063 25.2321 26.1326 24.9757 26.0222 24.7561C25.9122 24.5366 25.0303 22.3764 24.6629 21.4975C24.3047 20.6421 23.9414 20.7576 23.6706 20.7442C23.4137 20.7314 23.1195 20.7288 22.8254 20.7288C22.5315 20.7288 22.0538 20.8385 21.6494 21.2781C21.2453 21.7175 20.1063 22.779 20.1063 24.9392C20.1063 27.0993 21.6864 29.186 21.9068 29.479C22.1272 29.7719 25.0164 34.2046 29.4398 36.1053C30.4919 36.5579 31.3131 36.8277 31.9537 37.0299C33.0101 37.364 33.9712 37.3168 34.7311 37.2039C35.5784 37.0778 37.3398 36.1421 37.7076 35.1171C38.075 34.0919 38.075 33.2134 37.9646 33.0301C37.8546 32.8471 37.5605 32.7374 37.1196 32.5176V32.5176Z" fill="black"/>
<path fill-rule="evenodd" clip-rule="evenodd" d="M41.5576 16.4283C38.2256 13.1084 33.7944 11.2793 29.0737 11.2773C19.3461 11.2773 11.4293 19.1561 11.4254 28.8397C11.4241 31.9352 12.2366 34.957 13.7811 37.6205L11.2773 46.7218L20.633 44.2794C23.2108 45.6788 26.113 46.4163 29.0665 46.4172H29.0739C38.8004 46.4172 46.7181 38.5378 46.7218 28.8538C46.7237 24.1606 44.8897 19.748 41.5576 16.4283ZM29.0737 43.451H29.0676C26.4356 43.4499 23.8543 42.746 21.6018 41.4162L21.0664 41.0997L15.5147 42.5491L16.9965 37.1621L16.6476 36.6098C15.1792 34.2855 14.4039 31.5991 14.4052 28.8408C14.4082 20.792 20.9886 14.2437 29.0796 14.2437C32.9975 14.245 36.6805 15.7654 39.4499 18.5248C42.2193 21.2842 43.7435 24.9519 43.7422 28.8527C43.7387 36.9021 37.1588 43.451 29.0737 43.451V43.451ZM37.1196 32.5176C36.6788 32.2978 34.5107 31.2365 34.1064 31.0898C33.7025 30.9433 33.4082 30.8704 33.1145 31.3096C32.8204 31.7488 31.9754 32.7374 31.7181 33.0301C31.4607 33.323 31.2038 33.3598 30.7627 33.14C30.3216 32.9204 28.9009 32.4568 27.2164 30.9617C25.9057 29.7981 25.0207 28.3609 24.7633 27.9218C24.5064 27.4822 24.7612 27.2676 24.9568 27.0262C25.4342 26.4362 25.9122 25.8177 26.0591 25.525C26.2063 25.2321 26.1326 24.9757 26.0222 24.7561C25.9122 24.5366 25.0303 22.3764 24.6629 21.4975C24.3047 20.6421 23.9414 20.7576 23.6706 20.7442C23.4137 20.7314 23.1195 20.7288 22.8254 20.7288C22.5315 20.7288 22.0538 20.8385 21.6494 21.2781C21.2453 21.7175 20.1063 22.779 20.1063 24.9392C20.1063 27.0993 21.6864 29.186 21.9068 29.479C22.1272 29.7719 25.0164 34.2046 29.4398 36.1053C30.4919 36.5579 31.3131 36.8277 31.9537 37.0299C33.0101 37.364 33.9712 37.3168 34.7311 37.2039C35.5784 37.0778 37.3398 36.1421 37.7076 35.1171C38.075 34.0919 38.075 33.2134 37.9646 33.0301C37.8546 32.8471 37.5605 32.7374 37.1196 32.5176V32.5176Z" fill="white"/>
</svg>
