<svg width="66" height="123" viewBox="0 0 66 123" fill="none" xmlns="http://www.w3.org/2000/svg">
<path d="M65.0162 40.5499C65.0162 62.4153 50.4654 80.1408 32.5162 80.1408C14.5669 80.1408 0.0161743 62.4153 0.0161743 40.5499C0.0161743 18.6844 14.5669 0.958984 32.5162 0.958984C50.4654 0.958984 65.0162 18.6844 65.0162 40.5499ZM6.3936 40.5499C6.3936 58.1247 18.0891 72.3719 32.5162 72.3719C46.9433 72.3719 58.6387 58.1247 58.6387 40.5499C58.6387 22.9751 46.9433 8.72785 32.5162 8.72785C18.0891 8.72785 6.3936 22.9751 6.3936 40.5499Z" fill="#F2D97E"/>
<path fill-rule="evenodd" clip-rule="evenodd" d="M34.8318 77.0301C34.0929 76.6842 33.2135 77.0028 32.8676 77.7417C31.7301 80.1718 30.3719 84.1321 29.9728 88.2029C29.5785 92.2251 30.0903 96.7283 33.1609 99.799C35.8319 102.47 36.0109 106.938 34.85 111.341C34.2845 113.486 33.4316 115.476 32.5432 116.997C32.0989 117.758 31.6599 118.377 31.2626 118.831C30.8447 119.309 30.554 119.511 30.4276 119.569C29.6849 119.906 29.3565 120.782 29.6941 121.525C30.0317 122.268 30.9075 122.596 31.6502 122.258C32.3364 121.946 32.9571 121.382 33.4868 120.776C34.0371 120.147 34.5818 119.365 35.0945 118.487C36.1202 116.73 37.0746 114.492 37.7069 112.094C38.9418 107.411 39.0791 101.539 35.2501 97.7098C33.1208 95.5805 32.5492 92.2049 32.9133 88.4911C33.2726 84.8259 34.5143 81.193 35.5435 78.9943C35.8894 78.2553 35.5707 77.3759 34.8318 77.0301Z" fill="#F2D97E"/>
<path d="M29.5617 73.0499H35.4708L37.8344 83.6863H27.1981L29.5617 73.0499Z" fill="#F2D97E"/>
</svg>
