<svg width="46" height="54" viewBox="0 0 46 54" fill="none" xmlns="http://www.w3.org/2000/svg">
<path d="M40.7859 35.1317C40.4846 34.707 40.1544 34.2942 39.8357 33.8934L39.6793 33.702C39.4476 33.4148 39.21 33.1217 38.9609 32.8226C39.0362 32.6252 39.0652 32.4995 39.071 32.4936L39.0188 32.2842C39.0015 32.2662 38.5959 31.8056 37.275 30.4237C36.3075 29.4127 35.6007 29.2153 35.1836 29.2273C35.0156 29.2333 34.8591 29.2692 34.7201 29.3409C34.7201 29.335 34.7201 29.335 34.7201 29.329C34.6969 29.0598 34.6795 28.7547 34.6622 28.4137C34.6622 28.3898 34.6622 28.2941 34.6564 28.1684C37.6748 27.2532 39.8821 24.3638 39.8821 20.9599C39.8821 16.8143 36.6204 13.4463 32.6055 13.4463C28.5964 13.4463 25.3289 16.8143 25.3289 20.9599C25.3289 24.3638 27.5304 27.2472 30.543 28.1684C30.543 28.3359 30.5372 28.4795 30.5372 28.5274C30.5256 28.7068 30.5198 28.8923 30.5025 29.0837C30.4967 29.1675 30.4909 29.2512 30.4851 29.335C30.4851 29.3409 30.4851 29.3409 30.4851 29.3469C30.346 29.2751 30.1896 29.2392 30.0216 29.2333C29.6045 29.2213 28.9035 29.4187 27.9302 30.4297C26.6093 31.8116 26.1979 32.2722 26.1863 32.2902L26.1342 32.4995C26.1342 32.5055 26.1632 32.6371 26.2443 32.8345C26.0879 33.014 25.804 33.3251 25.5085 33.6481C25.0392 34.1686 24.5004 34.7548 24.2861 35.018C23.869 35.5265 23.5619 35.9393 23.336 36.2803C23.0926 35.8735 22.7219 35.359 22.1657 34.695C21.2098 33.5703 20.0395 32.4038 19.3385 31.7099C19.2921 31.662 19.2458 31.6202 19.2052 31.5723C19.1705 31.5364 19.1299 31.5005 19.1009 31.4646C19.0604 31.4227 19.0198 31.3809 18.9793 31.345C18.8808 31.2433 18.8055 31.1715 18.7707 31.1296C17.3108 29.4367 16.1984 28.6769 15.3873 28.8145C15.37 28.6111 15.3584 28.3898 15.3468 28.1505C15.3468 28.1325 15.3468 28.1086 15.3468 28.0907C16.3722 27.7377 17.2992 27.1515 18.0697 26.3977L19.6629 30.0768L22.9246 26.3199L19.1473 25.0577C19.8946 23.8792 20.3292 22.4674 20.3292 20.9599C20.3292 16.8143 17.0674 13.4463 13.0526 13.4463C9.0435 13.4463 5.77599 16.8143 5.77599 20.9599C5.77599 22.4734 6.21049 23.8792 6.95785 25.0577L3.18631 26.3199L6.44803 30.0768L8.03543 26.4037C8.85811 27.2113 9.86617 27.8275 10.9843 28.1684C11.0596 28.1924 11.1407 28.2163 11.216 28.2342C11.2102 28.4017 11.1987 28.5752 11.1871 28.7547L11.1813 28.8205C10.5498 28.7607 9.64022 29.7537 8.76541 30.8066C8.74224 30.8305 8.71906 30.8604 8.69589 30.8843C8.29035 31.3749 6.0309 34.342 5.72384 34.7668C4.75634 36.1367 4.47246 37.028 4.47246 37.5964C4.47246 38.0211 4.62888 38.2723 4.77372 38.4159C4.80268 38.4398 4.82586 38.4638 4.84903 38.4817C4.94752 38.5595 5.0576 38.6073 5.17926 38.6432C5.75281 38.7928 6.52334 38.4757 6.98102 37.8416C7.09689 37.6741 7.50244 37.1238 7.99488 36.4597C8.02385 36.4179 8.05281 36.382 8.08178 36.3401C8.25559 36.1068 8.71906 35.5146 8.71906 35.5146L7.66465 42.6453H9.55332L9.49539 51.5528C9.18833 51.6545 8.55685 51.8758 8.17448 52.1031C7.83266 52.3065 7.7979 52.5159 7.83846 52.6595C7.90798 52.9287 8.23241 53.1799 10.0979 53.1799H12.9888V44.3801C13.18 44.3801 13.3712 44.3801 13.5624 44.3801L13.5682 53.1799H16.4533C18.3246 53.1799 18.6433 52.9287 18.7186 52.6595C18.7533 52.5219 18.7244 52.3125 18.3826 52.1031C18.0002 51.8758 17.3629 51.6545 17.0616 51.5528L17.0037 42.6453L18.9271 42.6513L17.6642 35.03C17.6642 35.03 19.2516 36.1786 19.9236 36.6572C20.4161 37.0101 21.4647 37.704 22.1773 38.0929C22.5191 38.2783 22.8957 38.374 23.2838 38.374C23.5213 38.374 23.7531 38.3381 23.9732 38.2664C24.1934 38.1946 24.4077 38.0929 24.6047 37.9553C25.2072 37.5306 26.0415 36.8546 26.7657 36.2205C27.0438 35.9752 27.3045 35.7419 27.5304 35.5265V42.9384H28.8803L28.8282 51.5528C28.5211 51.6545 27.8896 51.8758 27.5072 52.1031C27.1654 52.3065 27.1307 52.5159 27.1712 52.6595C27.2407 52.9287 27.5652 53.1799 29.4307 53.1799H32.3216V44.3801C32.5128 44.3801 32.704 44.3801 32.8952 44.3801L32.901 53.1799H35.7861C37.6574 53.1799 37.976 52.9287 38.0513 52.6595C38.0861 52.5219 38.0571 52.3125 37.7153 52.1031C37.333 51.8758 36.6957 51.6545 36.3944 51.5528L36.3423 42.9384H37.6864V35.7C37.9413 36.035 38.1962 36.376 38.4337 36.699C38.9609 37.4169 39.407 38.0271 39.5345 38.2006C40.0848 38.9663 41.1045 39.2773 41.6665 38.8466C41.8287 38.727 42.043 38.4638 42.043 37.9613C42.0314 37.393 41.7534 36.5016 40.7859 35.1317ZM41.3768 38.4757C41.0466 38.727 40.2992 38.5356 39.8647 37.9254C39.7546 37.7758 39.407 37.2913 38.9667 36.699C38.5728 36.1606 38.1035 35.5325 37.6806 34.9762H37.2345V35.1138V42.4778H36.8173H36.3017H35.8962C35.8962 42.6334 35.8962 42.9384 35.8962 42.9384V51.8818L36.07 51.9356C36.0816 51.9356 37.0085 52.2228 37.472 52.498C37.501 52.5159 37.5241 52.5339 37.5473 52.5458C37.3967 52.6116 36.968 52.7193 35.7745 52.7193H33.2949L33.2891 43.9135L33.0806 43.9195C32.7677 43.9255 32.4375 43.9255 32.1073 43.9195L31.8987 43.9135V52.7193H29.4133C28.2141 52.7193 27.7853 52.6116 27.6405 52.5458C27.6579 52.5339 27.6811 52.5159 27.7158 52.498C28.1793 52.2228 29.1062 51.9356 29.1178 51.9356L29.2916 51.8818V42.9444V42.6453V42.4838H28.8861H28.3994H27.9823V34.9941H27.5362C27.3161 35.1975 27.0554 35.4368 26.7715 35.688C25.7113 36.6332 24.3614 37.7758 23.8052 37.9613C23.4808 38.0689 23.1622 38.057 22.8493 37.9852C21.9571 37.7818 19.3559 35.9393 17.8206 34.5454H17.1485L18.3652 42.3103H16.5866V51.8878L16.7604 51.9416C16.772 51.9416 17.6989 52.2288 18.1624 52.504C18.1914 52.5219 18.2145 52.5398 18.2377 52.5518C18.0871 52.6176 17.6584 52.7253 16.4649 52.7253H13.9853L13.9795 43.9195L13.771 43.9255C13.4581 43.9315 13.1279 43.9315 12.7977 43.9255L12.5891 43.9195V52.7253H10.1037C8.90445 52.7253 8.47574 52.6176 8.3309 52.5518C8.34828 52.5398 8.37146 52.5219 8.40622 52.504C8.86969 52.2288 9.79665 51.9416 9.80823 51.9416L9.98204 51.8878V42.3103H8.22662L9.41428 34.5454H8.85231C8.85231 34.5454 8.78858 34.695 8.7712 34.7129C8.6843 34.8206 8.60319 34.9343 8.51629 35.0539C8.18606 35.4906 7.85004 35.9393 7.55458 36.3401C7.11427 36.9323 6.76667 37.4169 6.65659 37.5664C6.21629 38.1766 5.46893 38.3621 5.1445 38.1168C5.10974 38.0929 5.08077 38.057 5.0576 38.0211C4.80268 37.6562 4.94173 36.699 6.11201 35.042C6.18732 34.9343 10.5382 28.988 11.1639 29.2931L11.245 29.323L11.3261 29.2871C11.3956 29.2572 11.4478 29.2452 11.4478 29.2452L11.5926 29.2034L11.6042 29.0478C11.61 28.9641 11.6158 28.8743 11.6216 28.7906L11.639 28.5453C11.6448 28.4735 11.6448 28.4077 11.6506 28.3359C11.6621 28.1684 11.6679 28.0129 11.6737 27.8753H11.6679H11.6621L11.2392 27.7676C11.1581 27.7437 11.077 27.7198 11.0017 27.6958C9.94728 27.3549 9.00294 26.7507 8.23821 25.967L7.91957 25.5722L7.90798 25.6021L7.711 26.0627L6.33216 29.2512L3.98001 26.5473L7.23014 25.4645L7.67624 25.3149L7.70521 25.303L7.39815 24.9201C6.65659 23.7895 6.22208 22.4315 6.22208 20.9659C6.22208 17.0775 9.28682 13.9129 13.0526 13.9129C16.8183 13.9129 19.8831 17.0775 19.8831 20.9659C19.8831 22.4315 19.4485 23.7895 18.707 24.9201C18.6201 25.0517 18.5274 25.1833 18.4289 25.309L18.875 25.4585L22.1309 26.5473L19.7788 29.2512L18.3941 26.0567L18.1972 25.5961C18.0929 25.7217 17.9828 25.8414 17.8669 25.961C17.1601 26.6908 16.2969 27.2651 15.3294 27.6181C15.2483 27.648 15.1672 27.6779 15.0861 27.7018C15.0166 27.7258 14.9412 27.7497 14.8659 27.7676C14.8659 27.9411 14.8717 28.1206 14.8717 28.1804C14.8717 28.1983 14.8717 28.2223 14.8717 28.2402C14.8891 28.5393 14.9065 28.8145 14.9239 29.0538L14.9354 29.2093L15.0803 29.2512C15.0803 29.2512 15.1208 29.2632 15.1788 29.2871L15.2541 29.317L15.3294 29.2931C15.7639 29.1495 16.6503 29.4067 18.3999 31.4407C18.4057 31.4527 18.4173 31.4586 18.4289 31.4706C18.5274 31.5783 18.7186 31.7697 18.9967 32.0449C19.0546 32.1047 19.1183 32.1645 19.182 32.2303C19.8889 32.9303 20.9317 33.9831 21.7949 35.0001C22.4611 35.7838 22.8319 36.3341 23.0347 36.723C23.1795 36.9922 23.3939 36.9922 23.5387 36.7409C23.7473 36.3999 24.0717 35.9333 24.5873 35.3112C24.7959 35.0599 25.3289 34.4737 25.7924 33.9592C26.1748 33.5345 26.5108 33.1695 26.6324 33.026L26.6672 32.7807C26.6151 32.667 26.5803 32.5713 26.5629 32.5055C26.7425 32.3081 27.2234 31.7877 28.2141 30.7527C29.1178 29.8135 29.703 29.6819 29.9753 29.6879C30.2128 29.6939 30.4909 29.8135 30.4909 29.8135H30.7921C30.8443 29.658 30.879 29.5144 30.8906 29.3709C30.8964 29.2871 30.9022 29.1974 30.908 29.1136C30.9196 28.9461 30.9312 28.6051 30.937 28.2821C30.9428 28.1146 30.9428 27.9471 30.9486 27.8155C30.8037 27.7796 30.6647 27.7377 30.5256 27.6899C27.7622 26.7866 25.7518 24.1125 25.7518 20.9599C25.7518 17.0715 28.8166 13.9069 32.5823 13.9069C36.3481 13.9069 39.4128 17.0715 39.4128 20.9599C39.4128 24.1125 37.3967 26.7925 34.6274 27.6899C34.4768 27.7377 34.3204 27.7856 34.1697 27.8215C34.1697 27.983 34.1697 28.1684 34.1755 28.2941C34.1755 28.3718 34.1755 28.4257 34.1755 28.4436C34.1929 28.7846 34.2103 29.1017 34.2335 29.3709C34.245 29.5204 34.3377 29.8135 34.3377 29.8135H34.7085C34.7838 29.7298 34.9171 29.6939 35.1546 29.6879C35.4269 29.6819 36.012 29.8076 36.9158 30.7527C37.9065 31.7877 38.3874 32.3081 38.567 32.5055C38.5438 32.5713 38.509 32.6611 38.4627 32.7747L38.4974 33.02C38.7755 33.349 39.042 33.684 39.2969 34.0011L39.4534 34.1925C39.7662 34.5873 40.0964 34.9941 40.3861 35.4069C41.7012 37.2314 41.736 38.2006 41.3768 38.4757Z" fill="black"/>
<path d="M12.0563 32.6912C12.1838 32.6912 12.3055 32.7091 12.4271 32.745C12.543 32.7809 12.6473 32.8407 12.7342 32.9185C12.8211 32.9963 12.8964 33.104 12.9485 33.2296C13.0007 33.3552 13.0296 33.5107 13.0296 33.6902C13.0296 33.774 13.018 33.8816 13.0007 34.0013C12.9833 34.1269 12.9543 34.2585 12.9196 34.4081C12.8848 34.5576 12.8442 34.7132 12.7979 34.8747C12.7515 35.0422 12.7052 35.2097 12.6531 35.3832C12.8384 35.3712 13.0528 35.3592 13.2903 35.3413C13.5279 35.3293 13.7596 35.3174 13.9971 35.2994C14.0956 34.9883 14.2057 34.6593 14.31 34.3183C14.4201 33.9774 14.5417 33.6483 14.675 33.3193C14.7213 33.2116 14.7793 33.1279 14.8488 33.0621C14.9183 32.9963 15.0052 32.9664 15.1037 32.9664C15.1442 32.9664 15.1848 32.9724 15.2196 32.9843C15.2543 32.9963 15.2891 33.0142 15.318 33.0382C15.347 33.0621 15.3702 33.092 15.3876 33.1279C15.405 33.1638 15.4107 33.2057 15.4107 33.2595C15.4107 33.3074 15.405 33.3552 15.405 33.415C15.3992 33.4749 15.3818 33.5407 15.3586 33.6065C15.318 33.7261 15.2717 33.8517 15.2254 33.9833C15.179 34.1149 15.1269 34.2525 15.0805 34.3961C15.0342 34.5397 14.982 34.6833 14.9357 34.8268C14.8893 34.9764 14.843 35.12 14.7966 35.2695C14.8893 35.2516 14.9762 35.2396 15.0631 35.2336C15.15 35.2276 15.2138 35.2217 15.2601 35.2217C15.2775 35.2217 15.3007 35.2157 15.318 35.2157C15.3354 35.2157 15.3528 35.2157 15.3644 35.2157C15.4223 35.2157 15.4687 35.2217 15.5034 35.2336C15.5382 35.2456 15.5672 35.2635 15.5845 35.2815C15.6019 35.3054 15.6193 35.3293 15.6251 35.3592C15.6309 35.3892 15.6367 35.4191 15.6367 35.455C15.6367 35.4908 15.6309 35.5267 15.6135 35.5507C15.5961 35.5746 15.573 35.5985 15.5498 35.6105C15.5266 35.6284 15.4976 35.6344 15.4687 35.6464C15.4397 35.6524 15.4107 35.6583 15.3876 35.6583C15.3354 35.6643 15.3007 35.6703 15.2775 35.6703C15.2543 35.6703 15.2369 35.6763 15.2311 35.6763C15.2196 35.6763 15.2138 35.6763 15.2138 35.6763C15.2138 35.6763 15.2022 35.6763 15.1906 35.6763C15.179 35.6763 15.1616 35.6823 15.1327 35.6823C15.1037 35.6883 15.0631 35.6883 15.0052 35.6942C14.9415 35.7062 14.8777 35.7182 14.814 35.7242C14.7503 35.7361 14.6924 35.7421 14.6286 35.7541C14.5997 35.8498 14.5475 36.101 14.4722 36.5138C14.4317 36.7232 14.4143 36.9026 14.4143 37.0522C14.4143 37.1838 14.4374 37.2855 14.4954 37.3633C14.5475 37.441 14.6344 37.4769 14.7561 37.4769C14.8024 37.4769 14.8546 37.465 14.9183 37.4351C14.982 37.4051 15.0573 37.3633 15.1385 37.3034C15.2196 37.2436 15.3123 37.1659 15.4165 37.0701C15.5208 36.9744 15.6309 36.8608 15.7584 36.7292C15.7641 36.7411 15.7757 36.771 15.7931 36.8129C15.8105 36.8488 15.8279 36.9026 15.8568 36.9804C15.8858 37.0522 15.9206 37.1539 15.9669 37.2855C15.8279 37.4231 15.6888 37.5487 15.5556 37.6564C15.4165 37.7641 15.2833 37.8538 15.15 37.9256C15.0168 37.9974 14.8951 38.0512 14.7735 38.0871C14.6518 38.123 14.5417 38.141 14.4432 38.141C14.3274 38.141 14.2231 38.117 14.1246 38.0752C14.0261 38.0333 13.9392 37.9735 13.8697 37.8897C13.8002 37.8119 13.7422 37.7102 13.6959 37.5966C13.6553 37.4769 13.6322 37.3453 13.6322 37.1958C13.6322 37.1419 13.6379 37.0701 13.6495 36.9804C13.6611 36.8967 13.6785 36.795 13.6959 36.6873C13.7191 36.5796 13.7422 36.442 13.777 36.2865C13.806 36.1309 13.8407 35.9754 13.8813 35.8318C13.6322 35.8617 13.3946 35.8857 13.1687 35.9096C12.9427 35.9335 12.7168 35.9575 12.4908 35.9814C12.4387 36.1429 12.3866 36.3104 12.3344 36.4779C12.2823 36.6454 12.2359 36.795 12.1896 36.9326C12.1432 37.0701 12.1027 37.1958 12.0621 37.3094C12.0216 37.4231 11.9868 37.5128 11.9636 37.5846C11.8362 37.8299 11.7493 37.9794 11.6913 38.0213C11.6044 38.0991 11.5291 38.135 11.4596 38.135C11.4133 38.135 11.3727 38.129 11.3322 38.117C11.2916 38.1051 11.251 38.0811 11.2221 38.0572C11.1873 38.0333 11.1641 37.9974 11.141 37.9615C11.1236 37.9256 11.112 37.8837 11.112 37.8418C11.112 37.8119 11.1178 37.782 11.1236 37.7581C11.1873 37.453 11.2742 37.1599 11.3843 36.8787C11.4886 36.5856 11.5813 36.3104 11.6624 36.0472C11.5639 36.0472 11.4654 36.0412 11.3727 36.0233C11.28 36.0053 11.1931 35.9754 11.1178 35.9335C11.0367 35.8917 10.9672 35.8318 10.9092 35.76C10.8455 35.6883 10.7992 35.5925 10.7586 35.4789C10.7528 35.443 10.747 35.4131 10.7412 35.3832C10.7354 35.3533 10.7354 35.3293 10.7354 35.2994C10.7354 35.2396 10.7644 35.2097 10.8223 35.2097C10.8571 35.2097 10.8976 35.2276 10.9382 35.2575C10.9787 35.2934 11.0367 35.3473 11.1004 35.4191C11.1873 35.4131 11.2742 35.4131 11.3611 35.4131C11.448 35.4131 11.5407 35.4131 11.6392 35.4131H11.9057C11.9694 35.2396 12.0332 35.0661 12.0969 34.9046C12.1722 34.6952 12.2243 34.5337 12.2649 34.42C12.2939 34.3183 12.3228 34.2166 12.3402 34.1209C12.3576 34.0192 12.3692 33.9235 12.3692 33.8338C12.3692 33.762 12.3634 33.6902 12.3518 33.6304C12.3402 33.5706 12.317 33.5167 12.2881 33.4689C12.2591 33.427 12.2243 33.3911 12.178 33.3672C12.1316 33.3432 12.0737 33.3313 12.01 33.3313C11.9578 33.3313 11.8941 33.3432 11.8188 33.3612C11.7493 33.3791 11.6682 33.4091 11.5813 33.4509C11.4944 33.4928 11.4017 33.5466 11.2974 33.6184C11.1931 33.6902 11.083 33.774 10.9614 33.8757C10.9208 33.9116 10.8803 33.9355 10.8455 33.9534C10.8107 33.9714 10.776 33.9774 10.747 33.9774C10.7296 33.9774 10.7238 33.9534 10.7122 33.8996C10.7065 33.8517 10.7007 33.7859 10.7007 33.7141C10.7007 33.6124 10.7238 33.5227 10.7702 33.433C10.8165 33.3432 10.8745 33.2595 10.9498 33.1877C11.0251 33.1099 11.112 33.0441 11.2105 32.9843C11.309 32.9245 11.4075 32.8707 11.5117 32.8288C11.616 32.7869 11.7203 32.751 11.8188 32.7331C11.8767 32.7032 11.9694 32.6912 12.0563 32.6912ZM12.0563 32.4639C11.9521 32.4639 11.842 32.4758 11.7261 32.5057C11.6102 32.5297 11.4944 32.5656 11.3785 32.6134C11.2626 32.6613 11.1526 32.7211 11.0425 32.7869C10.9324 32.8587 10.8281 32.9365 10.7412 33.0202C10.6485 33.1099 10.5732 33.2116 10.5153 33.3253C10.4515 33.4449 10.4226 33.5766 10.4226 33.7141C10.4226 33.7979 10.4284 33.8697 10.4342 33.9355C10.4689 34.1867 10.6369 34.2047 10.6891 34.2047C10.747 34.2047 10.8107 34.1927 10.8745 34.1628C10.9324 34.1389 10.9845 34.103 11.0483 34.0491C11.1641 33.9534 11.2684 33.8697 11.3611 33.8099C11.4538 33.7441 11.5407 33.6962 11.6218 33.6543C11.6971 33.6184 11.7609 33.5945 11.8188 33.5766C11.8709 33.5646 11.9173 33.5526 11.9521 33.5526C11.9926 33.5526 12.01 33.5586 12.0216 33.5646C12.0332 33.5706 12.0447 33.5825 12.0505 33.5945C12.0621 33.6124 12.0737 33.6424 12.0795 33.6723C12.0911 33.7201 12.0911 33.774 12.0911 33.8278C12.0911 33.9056 12.0853 33.9833 12.0679 34.0731C12.0505 34.1628 12.0274 34.2525 11.9984 34.3483C11.9636 34.4559 11.9115 34.6115 11.8362 34.8208C11.7956 34.9345 11.7493 35.0601 11.7029 35.1798H11.5929C11.4944 35.1798 11.3959 35.1798 11.309 35.1798C11.2568 35.1798 11.2047 35.1798 11.1468 35.1858C11.1004 35.1379 11.0657 35.102 11.0309 35.0781C10.9498 35.0123 10.8629 34.9824 10.7818 34.9824C10.6022 34.9824 10.4747 35.114 10.4747 35.3054C10.4747 35.3473 10.4805 35.3832 10.4863 35.425C10.4921 35.455 10.4979 35.4849 10.5037 35.5267L10.5095 35.5447L10.5153 35.5626C10.5674 35.7002 10.6311 35.8199 10.7065 35.9156C10.7876 36.0113 10.8803 36.0891 10.9845 36.1429C11.083 36.1967 11.1873 36.2326 11.3032 36.2506C11.3148 36.2506 11.3264 36.2566 11.3379 36.2566C11.28 36.436 11.2221 36.6155 11.1526 36.8009C11.0425 37.0881 10.9498 37.3932 10.8803 37.7043C10.8687 37.7521 10.8629 37.794 10.8629 37.8418C10.8629 37.9256 10.8803 38.0034 10.9208 38.0752C10.9556 38.141 11.0019 38.1948 11.0599 38.2367C11.112 38.2785 11.1757 38.3085 11.2395 38.3324C11.3032 38.3503 11.3669 38.3623 11.4364 38.3623C11.5581 38.3623 11.6798 38.3085 11.813 38.1948C11.8709 38.1469 11.9521 38.0452 12.1374 37.6863L12.1432 37.6743L12.149 37.6624C12.178 37.5906 12.207 37.5009 12.2533 37.3752C12.2939 37.2616 12.3344 37.1359 12.3808 36.9984C12.4271 36.8608 12.4793 36.7052 12.5314 36.5377C12.5662 36.4181 12.6067 36.2984 12.6415 36.1908C12.8153 36.1728 12.9949 36.1549 13.1745 36.1369C13.3019 36.125 13.4352 36.107 13.5742 36.0951C13.5626 36.1429 13.551 36.1908 13.5453 36.2386C13.5163 36.3762 13.4873 36.5258 13.4641 36.6394C13.441 36.7531 13.4236 36.8548 13.412 36.9445C13.4004 37.0343 13.3946 37.118 13.3946 37.1838C13.3946 37.3633 13.4178 37.5248 13.4699 37.6624C13.5221 37.806 13.5916 37.9316 13.6843 38.0333C13.777 38.141 13.8929 38.2187 14.0203 38.2726C14.1478 38.3264 14.281 38.3503 14.4259 38.3503C14.5475 38.3503 14.675 38.3324 14.8198 38.2845C14.9531 38.2427 15.0921 38.1828 15.2369 38.1051C15.376 38.0273 15.5208 37.9316 15.6715 37.8179C15.8163 37.7043 15.9669 37.5726 16.1118 37.4291L16.216 37.3214L16.1639 37.1838L16.1581 37.1778C16.1118 37.0522 16.077 36.9565 16.048 36.8847C16.0249 36.8129 16.0017 36.7531 15.9843 36.7112C15.9611 36.6574 15.9553 36.6334 15.9437 36.6155L15.8047 36.3284L15.5845 36.5557C15.4571 36.6873 15.3528 36.795 15.2543 36.8847C15.1616 36.9744 15.0747 37.0462 14.9994 37.1001C14.9299 37.1479 14.872 37.1838 14.8198 37.2077C14.7677 37.2317 14.7445 37.2317 14.7387 37.2317C14.6924 37.2317 14.6634 37.2257 14.6576 37.2137C14.6344 37.1778 14.6228 37.118 14.6228 37.0402C14.6228 36.9026 14.6402 36.7351 14.675 36.5437C14.7329 36.2386 14.7677 36.0532 14.7908 35.9455C14.8024 35.9455 14.8198 35.9395 14.8314 35.9395C14.8893 35.9335 14.9531 35.9216 15.0226 35.9096L15.0631 35.9036C15.0921 35.8976 15.1211 35.8976 15.1385 35.8976H15.15C15.1732 35.8976 15.1906 35.8917 15.2022 35.8917H15.208H15.2138C15.2196 35.8917 15.2196 35.8917 15.2254 35.8917H15.2311C15.2369 35.8917 15.2485 35.8917 15.2601 35.8857H15.2833H15.3065C15.3296 35.8857 15.3528 35.8797 15.3876 35.8797C15.4223 35.8797 15.4571 35.8737 15.4976 35.8617C15.5498 35.8498 15.6019 35.8318 15.6483 35.8019C15.7004 35.772 15.7468 35.7242 15.7815 35.6763C15.8279 35.6105 15.8453 35.5327 15.8453 35.449C15.8453 35.3951 15.8395 35.3413 15.8279 35.2934C15.8105 35.2276 15.7757 35.1678 15.7294 35.12C15.683 35.0721 15.6251 35.0362 15.5556 35.0123C15.4976 34.9943 15.4281 34.9824 15.347 34.9824H15.3528H15.347C15.3296 34.9824 15.3123 34.9824 15.2891 34.9883C15.2717 34.9883 15.2485 34.9883 15.2311 34.9943L15.1558 35.0003L15.1095 35.0063C15.1211 34.9704 15.1327 34.9405 15.1442 34.9106C15.1964 34.7491 15.2485 34.5935 15.2891 34.4799C15.3354 34.3423 15.3876 34.2047 15.4339 34.0731L15.5034 33.8757L15.5672 33.7022C15.5961 33.6184 15.6135 33.5347 15.6251 33.4569C15.6309 33.3851 15.6367 33.3253 15.6367 33.2774C15.6367 33.1997 15.6251 33.1219 15.5961 33.0561C15.5672 32.9843 15.5208 32.9245 15.4629 32.8766C15.4107 32.8348 15.3528 32.8049 15.2891 32.7809C15.2311 32.763 15.1674 32.757 15.1095 32.757C14.9589 32.757 14.8198 32.8108 14.7097 32.9125C14.6112 32.9963 14.5359 33.1159 14.478 33.2535C14.3447 33.5825 14.2173 33.9235 14.1072 34.2705L14.084 34.3483C14.0029 34.6055 13.9218 34.8627 13.8407 35.102C13.6553 35.114 13.4699 35.1259 13.2845 35.1319C13.1745 35.1379 13.0702 35.1439 12.9659 35.1499C12.9833 35.0841 13.0007 35.0183 13.018 34.9584C13.0644 34.7909 13.1049 34.6294 13.1397 34.4799C13.1745 34.3303 13.2034 34.1867 13.2208 34.0611C13.244 33.9235 13.2556 33.8099 13.2556 33.7141C13.2556 33.5048 13.2208 33.3193 13.1571 33.1638C13.0934 33.0023 13.0007 32.8707 12.8848 32.769C12.7689 32.6673 12.6415 32.5955 12.4908 32.5476C12.3518 32.4878 12.2012 32.4639 12.0563 32.4639Z" fill="black"/>
<path d="M32.6056 32.5418C32.7968 32.5418 32.9764 32.5717 33.1386 32.6255C33.3008 32.6853 33.4399 32.7631 33.5557 32.8648C33.6716 32.9665 33.7643 33.0862 33.828 33.2237C33.8918 33.3613 33.9265 33.5109 33.9265 33.6724C33.9265 33.7861 33.9091 33.8938 33.8802 34.0014C33.8512 34.1091 33.7875 34.2347 33.7006 34.3783C33.6137 34.5219 33.5268 34.6236 33.4399 34.6774C33.3588 34.7313 33.2603 34.7552 33.156 34.7552C32.9938 34.7552 32.8953 34.7133 32.8489 34.6355C32.7736 34.5099 32.7505 34.3963 32.7794 34.3005C32.791 34.2467 32.82 34.1271 32.8663 33.9356C32.8721 33.9117 32.8721 33.8519 32.8721 33.7621C32.8721 33.6844 32.8663 33.6186 32.8489 33.5647C32.8316 33.5109 32.7968 33.487 32.7447 33.487C32.6172 33.487 32.5071 33.5169 32.4144 33.5827C32.3217 33.6485 32.2464 33.7322 32.1827 33.8339C32.119 33.9356 32.0552 34.0792 31.9915 34.2706C31.9278 34.4561 31.8814 34.6176 31.8583 34.7432C31.8293 34.8688 31.8177 34.9945 31.8061 35.1081C31.8003 35.2218 31.7945 35.3235 31.7945 35.4013C31.7945 35.5209 31.8061 35.6405 31.8235 35.7662C31.8467 35.8918 31.8872 36.0114 31.9452 36.1191C32.0089 36.2268 32.0842 36.3106 32.1827 36.3823C32.2812 36.4541 32.4086 36.49 32.5593 36.49C32.7099 36.49 32.8779 36.4422 33.0633 36.3464C33.2487 36.2507 33.4283 36.1311 33.6137 35.9815C33.7991 35.832 33.9729 35.6705 34.1409 35.497C34.3089 35.3235 34.4537 35.156 34.5696 35.0005L34.894 35.5688C34.6565 35.9157 34.4016 36.2268 34.1235 36.502C34.0076 36.6216 33.8802 36.7353 33.7411 36.843C33.6021 36.9566 33.4573 37.0523 33.3124 37.1421C33.1618 37.2258 33.0054 37.2976 32.8432 37.3515C32.6809 37.4053 32.5129 37.4352 32.3507 37.4352C32.0552 37.4352 31.8003 37.3814 31.5802 37.2677C31.36 37.154 31.1746 37.0105 31.024 36.825C30.8734 36.6396 30.7633 36.4242 30.688 36.1789C30.6127 35.9337 30.5721 35.6824 30.5721 35.4132C30.5721 35.2218 30.6011 34.9945 30.6648 34.7313C30.7285 34.468 30.7981 34.2347 30.8734 34.0373C30.9487 33.8399 31.0414 33.6485 31.1515 33.469C31.2615 33.2895 31.389 33.134 31.5338 32.9964C31.6787 32.8588 31.8409 32.7512 32.0147 32.6734C32.2001 32.5837 32.3913 32.5418 32.6056 32.5418ZM32.6056 32.3145C32.3623 32.3145 32.1363 32.3623 31.9336 32.452C31.7366 32.5418 31.5512 32.6614 31.389 32.817C31.2326 32.9665 31.0877 33.14 30.9719 33.3374C30.856 33.5288 30.7575 33.7322 30.6764 33.9416C30.6011 34.145 30.5258 34.3903 30.462 34.6595C30.3925 34.9406 30.3578 35.1859 30.3578 35.3953C30.3578 35.6824 30.3983 35.9636 30.4852 36.2268C30.5721 36.496 30.6996 36.7413 30.8618 36.9506C31.0298 37.16 31.2442 37.3335 31.4933 37.4531C31.7424 37.5788 32.0379 37.6446 32.3623 37.6446C32.5535 37.6446 32.7389 37.6147 32.9243 37.5548C33.0981 37.495 33.2719 37.4173 33.4341 37.3275C33.5963 37.2378 33.7469 37.1301 33.8918 37.0105C34.0366 36.8968 34.1699 36.7772 34.2915 36.6515C34.5754 36.3704 34.8419 36.0414 35.0852 35.6824L35.1663 35.5628L35.091 35.4372L34.7666 34.8688L34.6044 34.5817L34.4016 34.8449C34.2857 34.9945 34.1467 35.156 33.9845 35.3235C33.8222 35.491 33.6542 35.6465 33.4804 35.7841C33.3066 35.9217 33.1328 36.0354 32.9648 36.1251C32.8142 36.2029 32.6809 36.2447 32.5651 36.2447C32.4608 36.2447 32.3739 36.2208 32.3159 36.1789C32.2464 36.1251 32.1885 36.0653 32.1421 35.9875C32.0958 35.9097 32.061 35.814 32.0494 35.7183C32.0321 35.6047 32.0205 35.491 32.0205 35.3893C32.0205 35.3175 32.0263 35.2218 32.0321 35.1081C32.0379 35.0064 32.0552 34.8928 32.0784 34.7791C32.1016 34.6595 32.1479 34.5099 32.2059 34.3305C32.2638 34.1629 32.3217 34.0313 32.3739 33.9476C32.4202 33.8698 32.4782 33.81 32.5477 33.7621C32.5824 33.7382 32.6172 33.7262 32.6578 33.7143C32.6578 33.7262 32.6578 33.7382 32.6578 33.7502V33.7562V33.7621C32.6578 33.8399 32.6578 33.8698 32.6578 33.8818C32.6114 34.0613 32.5882 34.1809 32.5709 34.2407C32.5303 34.4022 32.5593 34.5697 32.6693 34.7492C32.7563 34.9047 32.9243 34.9825 33.1676 34.9825C33.3124 34.9825 33.4515 34.9466 33.5673 34.8688C33.6832 34.7971 33.7933 34.6774 33.8976 34.498C33.996 34.3304 34.0656 34.1929 34.1003 34.0613C34.1351 33.9356 34.1583 33.798 34.1583 33.6664C34.1583 33.475 34.1177 33.2895 34.0366 33.1161C33.9555 32.9486 33.8454 32.805 33.7064 32.6794C33.5673 32.5597 33.4051 32.464 33.2139 32.3982C33.0227 32.3444 32.82 32.3145 32.6056 32.3145Z" fill="black"/>
<path d="M19.3733 5.91567L-6.10352e-05 14.2907L0.341753 13.6925L18.7186 5.74219L19.3733 5.91567Z" fill="black"/>
<path d="M26.6268 5.91567L46.0001 14.2907L45.6525 13.6925L27.2814 5.74219L26.6268 5.91567Z" fill="black"/>
<path d="M6.32082 5.29298C6.32661 5.39468 6.37296 5.64593 6.45986 6.0587C6.50042 6.2621 6.55256 6.43558 6.61049 6.57915C6.66263 6.69879 6.72057 6.78254 6.79588 6.8304C6.8712 6.87826 6.96389 6.87826 7.07976 6.8304C7.12032 6.81246 7.16666 6.77656 7.21881 6.72272C7.26515 6.66888 7.31729 6.60308 7.37523 6.51335C7.42737 6.42361 7.4853 6.31593 7.54324 6.19031C7.60117 6.06468 7.6649 5.91513 7.72863 5.74165C7.74022 5.74763 7.7576 5.77156 7.79236 5.80147C7.82132 5.83138 7.86188 5.87325 7.91402 5.93307C7.96616 5.9929 8.04148 6.07067 8.13417 6.17236C8.05886 6.35781 7.97775 6.52531 7.89085 6.67487C7.80394 6.8304 7.71125 6.96201 7.61855 7.08165C7.52586 7.2013 7.42737 7.29701 7.32888 7.38076C7.23039 7.46451 7.1377 7.52434 7.045 7.56621C6.94072 7.61407 6.83064 7.638 6.72636 7.638C6.62208 7.638 6.5178 7.61407 6.41931 7.57219C6.32082 7.52434 6.23392 7.45853 6.15281 7.3688C6.0717 7.27907 6.00218 7.1654 5.94424 7.02781C5.92107 6.97397 5.90369 6.90817 5.88052 6.82442C5.85734 6.74067 5.83417 6.64496 5.81679 6.53728C5.79362 6.4296 5.77044 6.29201 5.74147 6.13647C5.71251 5.97495 5.68933 5.8254 5.66616 5.67584C5.44601 5.80147 5.23744 5.92111 5.04047 6.02879C4.83769 6.14245 4.64072 6.25013 4.44374 6.36379C4.45533 6.53728 4.47271 6.70478 4.48429 6.87826C4.50167 7.05174 4.51326 7.21326 4.51905 7.35683C4.52485 7.50041 4.53643 7.63202 4.54223 7.75166C4.54802 7.8713 4.55382 7.973 4.55382 8.04479C4.53064 8.32595 4.50167 8.49345 4.46691 8.55925C4.41477 8.66095 4.35684 8.72675 4.2989 8.75666C4.25835 8.77461 4.21779 8.78658 4.17145 8.78658C4.1251 8.79256 4.08455 8.78658 4.04399 8.77461C4.00344 8.76265 3.96868 8.7447 3.93971 8.72077C3.91074 8.69684 3.88177 8.66095 3.87019 8.61908C3.8586 8.58916 3.85281 8.56524 3.84701 8.53532C3.79487 8.23023 3.76591 7.92514 3.76011 7.62005C3.74852 7.30898 3.73114 7.01585 3.70218 6.74067C3.60948 6.78254 3.51679 6.81246 3.42409 6.8304C3.3314 6.85433 3.24449 6.86031 3.1518 6.85433C3.0649 6.84835 2.978 6.82442 2.89109 6.77656C2.80419 6.73469 2.72308 6.66888 2.64777 6.57915C2.63039 6.54924 2.61301 6.51933 2.59563 6.4954C2.57825 6.47147 2.56666 6.44754 2.56087 6.42361C2.53769 6.36977 2.55507 6.3279 2.60721 6.30397C2.64197 6.29201 2.68253 6.29201 2.73467 6.30397C2.78681 6.31593 2.85633 6.34585 2.94323 6.38772C3.01855 6.35183 3.09966 6.30995 3.18077 6.27406C3.26187 6.23817 3.34298 6.20227 3.43568 6.1604L3.679 6.05272C3.67321 5.86129 3.66742 5.68182 3.66162 5.50834C3.65004 5.28102 3.64424 5.11352 3.63266 4.99387C3.62107 4.88619 3.60948 4.7845 3.58631 4.68878C3.56313 4.58708 3.53996 4.49735 3.5052 4.4136C3.47623 4.3478 3.44727 4.28798 3.4125 4.23414C3.37774 4.1803 3.33719 4.13842 3.29664 4.11449C3.25608 4.08458 3.20394 4.06663 3.15759 4.06663C3.07069 4.07262 3.01276 4.08458 2.95482 4.11449C2.90268 4.13842 2.85054 4.16833 2.7926 4.21619C2.73467 4.26405 2.67094 4.32387 2.60721 4.39565C2.54349 4.46744 2.47396 4.55717 2.40444 4.66485C2.33492 4.77253 2.2654 4.89218 2.19008 5.03575C2.16691 5.08361 2.13794 5.12548 2.10898 5.15539C2.08001 5.1853 2.05684 5.20325 2.02787 5.21521C2.01628 5.2212 1.99311 5.20325 1.96993 5.16137C1.94676 5.1195 1.91779 5.05968 1.88883 4.99387C1.85406 4.90414 1.83668 4.80842 1.84827 4.70673C1.85406 4.60503 1.88303 4.50932 1.92359 4.40762C1.96414 4.30592 2.02207 4.21021 2.0858 4.11449C2.15532 4.01878 2.22485 3.92904 2.30595 3.85128C2.38706 3.77351 2.46817 3.70172 2.55507 3.63592C2.64197 3.5761 2.72308 3.52824 2.80419 3.49234C2.92006 3.43851 3.04172 3.40859 3.16339 3.39663C3.28505 3.38467 3.40092 3.39663 3.51099 3.43252C3.62107 3.46842 3.72535 3.5402 3.82384 3.63592C3.92233 3.73163 4.00344 3.86324 4.06716 4.03074C4.10193 4.10851 4.13089 4.21021 4.15407 4.32985C4.18303 4.44949 4.20621 4.58708 4.22938 4.73664C4.25256 4.88619 4.27573 5.04771 4.29311 5.21521C4.31049 5.3887 4.33366 5.56218 4.34525 5.74165C4.51326 5.65191 4.70445 5.5562 4.9188 5.44852C5.13316 5.34084 5.34173 5.23316 5.55608 5.13146C5.53291 4.80244 5.50394 4.46146 5.48077 4.10253C5.4518 3.7436 5.44021 3.39065 5.44021 3.0377C5.44021 2.91806 5.46339 2.81636 5.50394 2.73261C5.5445 2.64288 5.61402 2.58305 5.70092 2.54118C5.73568 2.52323 5.77623 2.51725 5.81679 2.51127C5.85734 2.50528 5.8921 2.51127 5.92686 2.51725C5.96163 2.52921 5.99639 2.54716 6.01956 2.57707C6.04853 2.60698 6.0717 2.64288 6.08908 2.68475C6.10646 2.72663 6.12384 2.77448 6.14122 2.8343C6.1586 2.89413 6.17019 2.95993 6.17019 3.03172C6.17598 3.15734 6.18178 3.28895 6.18757 3.43252C6.19336 3.5761 6.19916 3.71967 6.21074 3.86922C6.21654 4.01878 6.22812 4.17431 6.23971 4.32985C6.2513 4.48539 6.26289 4.64092 6.27447 4.79048C6.34979 4.74262 6.4309 4.69476 6.50621 4.65289C6.58153 4.61101 6.63946 4.5811 6.68001 4.56316C6.69739 4.55119 6.71477 4.54521 6.73215 4.53923C6.74954 4.53324 6.76112 4.52128 6.7785 4.5153C6.83064 4.49137 6.87699 4.47941 6.91175 4.47342C6.94651 4.46744 6.98127 4.47342 7.00445 4.48539C7.03341 4.49735 7.0508 4.5153 7.06818 4.53923C7.08556 4.56316 7.10294 4.59307 7.11452 4.62298C7.12611 4.65887 7.1319 4.68878 7.12611 4.72467C7.12032 4.75459 7.10873 4.7845 7.09135 4.80842C7.07397 4.83235 7.0508 4.85628 7.02762 4.87423C7.00445 4.89218 6.98127 4.90414 6.9581 4.9161C6.91175 4.94003 6.88278 4.95798 6.85961 4.96994C6.84223 4.98191 6.82485 4.98789 6.81906 4.99387C6.80747 4.99985 6.80168 4.99985 6.80168 5.00584C6.80168 5.00584 6.79588 5.01182 6.7843 5.0178C6.77271 5.02378 6.75533 5.02977 6.73215 5.04771C6.70898 5.05968 6.66843 5.08361 6.62208 5.10753C6.56415 5.14343 6.512 5.17932 6.45986 5.21521C6.4251 5.22718 6.37296 5.26307 6.32082 5.29298Z" fill="black"/>
<path d="M10.7353 4.91035C10.7179 4.98214 10.6947 5.07187 10.66 5.17955C10.6252 5.28125 10.5847 5.38893 10.5267 5.49062C10.4746 5.59232 10.4109 5.68803 10.3356 5.77777C10.2602 5.8675 10.1791 5.92732 10.0864 5.9692C9.97636 6.01705 9.86628 6.02304 9.762 5.98116C9.65772 5.93929 9.54764 5.86152 9.43757 5.74187C9.41439 5.80768 9.38543 5.87946 9.34487 5.95723C9.30432 6.035 9.25797 6.10679 9.20583 6.17857C9.15369 6.25036 9.08996 6.31616 9.02623 6.37598C8.96251 6.43581 8.88719 6.48366 8.81188 6.51357C8.73077 6.54947 8.64387 6.56741 8.55117 6.56741C8.45848 6.56741 8.37157 6.54349 8.28467 6.50759C8.19777 6.4717 8.12245 6.41188 8.04714 6.33411C7.97183 6.25634 7.91389 6.16063 7.86754 6.04098C7.8154 5.90937 7.78064 5.7658 7.75747 5.61625C7.74009 5.46071 7.73429 5.29321 7.74009 5.0958C7.75167 4.90437 7.77485 4.73089 7.8154 4.57535C7.85596 4.41981 7.9081 4.27624 7.97183 4.15061C8.04135 4.01901 8.11666 3.90535 8.20936 3.80365C8.30205 3.70195 8.40633 3.63017 8.5222 3.57633C8.56276 3.55838 8.59752 3.5524 8.62649 3.55838C8.65545 3.56436 8.67863 3.57633 8.7018 3.58829C8.72497 3.60025 8.74815 3.6182 8.76553 3.63017C8.7887 3.64213 8.81188 3.64811 8.83505 3.64811C8.85822 3.64811 8.8814 3.64213 8.90457 3.63615C8.92775 3.63017 8.95092 3.62418 8.97409 3.61222C8.99147 3.60624 9.01465 3.59427 9.03203 3.58829C9.04941 3.57633 9.07258 3.57034 9.08996 3.56436C9.11314 3.5524 9.1421 3.54641 9.16528 3.54043C9.18845 3.53445 9.21162 3.54043 9.24059 3.5524C9.26377 3.56436 9.28694 3.58231 9.31011 3.61222C9.33329 3.64213 9.35646 3.684 9.37963 3.73784C9.41439 3.8216 9.44336 3.91731 9.46654 4.02499C9.48971 4.13267 9.51288 4.24633 9.53606 4.36597C9.55923 4.47963 9.58241 4.61722 9.61137 4.7608C9.64034 4.91035 9.66931 5.02999 9.70986 5.12571C9.74462 5.20348 9.77359 5.2633 9.80835 5.30517C9.84311 5.34705 9.88366 5.35303 9.93001 5.33509C9.96477 5.31714 9.99953 5.29321 10.0285 5.25732C10.0575 5.22142 10.0922 5.17955 10.1154 5.13767C10.1386 5.0958 10.1675 5.04196 10.1965 4.98812C10.2197 4.93428 10.2429 4.88044 10.2602 4.82062C10.3066 4.68901 10.3471 4.55142 10.3819 4.39588L10.7353 4.91035ZM8.47586 5.64616C8.49324 5.69402 8.51641 5.73589 8.53958 5.77178C8.56276 5.81366 8.58593 5.84357 8.6149 5.87348C8.64387 5.89741 8.67283 5.92134 8.70759 5.92732C8.74235 5.93929 8.77712 5.9333 8.81767 5.91536C8.8814 5.88545 8.92775 5.83759 8.95092 5.75982C8.97989 5.68205 8.99727 5.59232 9.00306 5.4966C9.00885 5.40089 9.00306 5.30517 8.99147 5.20946C8.97989 5.11375 8.9683 5.03598 8.95092 4.97616L8.7945 4.04294C8.72497 4.07285 8.66704 4.1207 8.6149 4.18651C8.56276 4.25231 8.5222 4.3241 8.48744 4.41383C8.45268 4.49758 8.42951 4.5933 8.41213 4.68901C8.39475 4.79071 8.38316 4.90437 8.38316 5.04196C8.38316 5.17955 8.38895 5.29321 8.40633 5.38893C8.42372 5.48464 8.44689 5.57437 8.47586 5.64616Z" fill="black"/>
<path d="M11.6561 4.68293C11.8241 4.61114 11.9747 4.52739 12.1022 4.43167C12.2297 4.33596 12.3397 4.23426 12.4266 4.12658C12.5193 4.0189 12.5946 3.90524 12.6526 3.79158C12.7163 3.67194 12.7627 3.55828 12.8032 3.43863L13.0697 4.00694C13.0465 4.10265 13.006 4.20435 12.9596 4.30605C12.9075 4.40775 12.8496 4.50346 12.78 4.59319C12.7105 4.68293 12.6294 4.76668 12.5425 4.83846C12.4556 4.91025 12.3629 4.97007 12.2644 5.01195C12.2528 5.01793 12.2354 5.02391 12.2181 5.02391C12.2007 5.02989 12.1659 5.03587 12.1196 5.04186C12.0732 5.05382 12.0037 5.06579 11.9168 5.08373C11.8299 5.10168 11.7082 5.13159 11.5634 5.16748L11.5808 5.21534C11.7082 5.5324 11.8009 5.83749 11.8531 6.11865C11.9052 6.39981 11.9226 6.65705 11.911 6.87839C11.8994 7.09973 11.8531 7.28518 11.7778 7.43473C11.7024 7.58429 11.604 7.68598 11.4823 7.73982C11.3838 7.7817 11.2969 7.79366 11.21 7.76973C11.1231 7.7458 11.0478 7.70393 10.9783 7.63812C10.9087 7.57232 10.8392 7.48259 10.7755 7.38089C10.7118 7.27321 10.6596 7.15955 10.6075 7.03392C10.5785 6.96214 10.5553 6.87241 10.538 6.77669C10.5206 6.67499 10.5148 6.56731 10.509 6.45365C10.5032 6.33999 10.509 6.22035 10.509 6.09472C10.5148 5.9691 10.5206 5.84945 10.5322 5.72981C10.5553 5.45463 10.5901 5.1615 10.6422 4.85641C10.6075 4.71882 10.5727 4.57525 10.538 4.42569C10.5032 4.27614 10.4684 4.13256 10.4453 3.98301C10.4221 3.83346 10.4105 3.67792 10.4163 3.50444C10.4221 3.33095 10.4395 3.1814 10.4742 3.06175C10.509 2.94211 10.5669 2.83443 10.648 2.73872C10.7291 2.643 10.8392 2.56523 10.9783 2.50541C11.0825 2.46354 11.181 2.43362 11.2853 2.42166C11.3838 2.4097 11.4823 2.42764 11.5808 2.46354C11.6735 2.49943 11.7604 2.55925 11.8415 2.64898C11.9226 2.73273 11.9921 2.85238 12.0559 3.00193C12.1196 3.16345 12.1543 3.29506 12.1543 3.39676C12.1601 3.55229 12.137 3.69587 12.0964 3.82747C12.0559 3.95908 11.9979 4.09069 11.9226 4.22828C11.8473 4.35989 11.7488 4.49748 11.6213 4.62909L11.6561 4.68293ZM11.0941 6.87241C11.0999 6.88437 11.1115 6.9083 11.1289 6.93821C11.1463 6.96812 11.1695 6.99205 11.1984 7.02196C11.2274 7.04589 11.2564 7.06982 11.2853 7.08178C11.3143 7.09375 11.349 7.09973 11.3838 7.08178C11.4128 7.06982 11.4302 7.04589 11.436 7.00401C11.4417 6.96214 11.4417 6.91428 11.4302 6.85446C11.4186 6.79464 11.4012 6.72883 11.3838 6.66303C11.3606 6.59124 11.3375 6.51946 11.3085 6.44767C11.2853 6.37588 11.2564 6.3041 11.2274 6.23829C11.1984 6.17249 11.181 6.10669 11.1579 6.05285C11.1231 5.95713 11.0941 5.87338 11.071 5.80758C11.0478 5.74177 11.0246 5.68793 11.013 5.64008C10.9956 5.59222 10.9783 5.55034 10.9667 5.50847C10.9551 5.58025 10.9551 5.65802 10.9551 5.74775C10.9551 5.83749 10.9609 5.92722 10.9667 6.02293C10.9725 6.11865 10.9841 6.20838 10.9956 6.29812C11.0072 6.38785 11.0188 6.4716 11.0304 6.54937C11.042 6.62714 11.0536 6.69294 11.0652 6.74678C11.0768 6.8066 11.0883 6.84848 11.0941 6.87241ZM11.2332 4.56926C11.3143 4.47355 11.378 4.37783 11.4302 4.28212C11.4765 4.1864 11.5113 4.09667 11.5344 4.00096C11.5576 3.98899 11.575 3.8873 11.5982 3.70185C11.604 3.54631 11.5982 3.43265 11.5808 3.35488C11.575 3.31301 11.5634 3.26515 11.546 3.21729C11.5286 3.16345 11.5055 3.12158 11.4765 3.08568C11.4475 3.04979 11.407 3.01988 11.3664 3.00193C11.3201 2.98399 11.2737 2.98997 11.2158 3.0139C11.1521 3.04381 11.1057 3.0797 11.071 3.13952C11.0362 3.19336 11.013 3.25917 11.0072 3.33095C10.9956 3.40274 10.9956 3.48649 11.0072 3.57622C11.0188 3.66595 11.0304 3.77962 11.0478 3.91122C11.0652 4.04283 11.0883 4.16248 11.1231 4.26417C11.1521 4.36587 11.1926 4.46757 11.2332 4.56926Z" fill="black"/>
<path d="M13.846 3.73761C14.0141 3.66583 14.1647 3.58207 14.2921 3.48636C14.4196 3.39065 14.5297 3.28895 14.6166 3.18127C14.7093 3.07359 14.7846 2.95993 14.8425 2.84627C14.9062 2.72662 14.9526 2.61296 14.9931 2.49332L15.2596 3.06163C15.2365 3.15734 15.1959 3.25904 15.1496 3.36073C15.0974 3.46243 15.0395 3.55815 14.97 3.64788C14.9005 3.73761 14.8193 3.82136 14.7324 3.89315C14.6455 3.96493 14.5528 4.02476 14.4544 4.06663C14.4428 4.07261 14.4254 4.0786 14.408 4.0786C14.3906 4.08458 14.3559 4.09056 14.3095 4.09654C14.2632 4.10851 14.1937 4.12047 14.1067 4.13842C14.0198 4.15636 13.8982 4.18628 13.7533 4.22217L13.7707 4.27003C13.8982 4.58708 13.9909 4.89217 14.043 5.17334C14.0952 5.4545 14.1125 5.71173 14.101 5.93307C14.0894 6.15441 14.043 6.33986 13.9677 6.48941C13.8924 6.63897 13.7939 6.74067 13.6722 6.79451C13.5738 6.83638 13.4868 6.84835 13.3999 6.82442C13.313 6.80049 13.2377 6.75861 13.1682 6.69281C13.0987 6.62701 13.0292 6.53727 12.9654 6.43558C12.9017 6.3279 12.8496 6.21423 12.7974 6.08861C12.7685 6.01682 12.7453 5.92709 12.7279 5.83138C12.7105 5.72968 12.7047 5.622 12.6989 5.50834C12.6931 5.39468 12.6989 5.27503 12.6989 5.14941C12.7047 5.02378 12.7105 4.90414 12.7221 4.78449C12.7453 4.50931 12.78 4.21619 12.8322 3.91109C12.7974 3.7735 12.7627 3.62993 12.7279 3.48038C12.6931 3.33082 12.6584 3.18725 12.6352 3.0377C12.612 2.88814 12.6004 2.73261 12.6062 2.55912C12.612 2.38564 12.6294 2.23608 12.6642 2.11644C12.6989 1.9968 12.7569 1.88912 12.838 1.7934C12.9191 1.69769 13.0292 1.61992 13.1682 1.5601C13.2725 1.51822 13.371 1.48831 13.4753 1.47635C13.5738 1.46438 13.6722 1.48233 13.7707 1.51822C13.8634 1.55412 13.9503 1.61394 14.0314 1.70367C14.1125 1.78742 14.1821 1.90706 14.2458 2.05662C14.3095 2.21814 14.3443 2.34975 14.3443 2.45144C14.3501 2.60698 14.3269 2.75055 14.2863 2.88216C14.2458 3.01377 14.1879 3.14538 14.1125 3.28297C14.0372 3.42056 13.9387 3.55216 13.8113 3.68377L13.846 3.73761ZM13.2841 5.92111C13.2899 5.93307 13.3015 5.957 13.3188 5.98691C13.3362 6.01682 13.3594 6.04075 13.3884 6.07066C13.4173 6.09459 13.4463 6.11852 13.4753 6.13048C13.5042 6.14245 13.539 6.14843 13.5738 6.13048C13.6027 6.11852 13.6201 6.09459 13.6259 6.05272C13.6317 6.01084 13.6317 5.96298 13.6201 5.90316C13.6085 5.84334 13.5911 5.77754 13.5738 5.71173C13.5506 5.63995 13.5274 5.56816 13.4984 5.49637C13.4753 5.42459 13.4463 5.3528 13.4173 5.287C13.3884 5.22119 13.371 5.15539 13.3478 5.10155C13.313 5.00583 13.2841 4.92208 13.2609 4.85628C13.2377 4.79048 13.2146 4.73664 13.203 4.68878C13.1856 4.64092 13.1682 4.59905 13.1566 4.55717C13.145 4.62896 13.145 4.70672 13.145 4.79646C13.145 4.88619 13.1508 4.97592 13.1566 5.07164C13.1624 5.16735 13.174 5.25709 13.1856 5.34682C13.1972 5.43655 13.2088 5.5203 13.2203 5.59807C13.2319 5.67584 13.2435 5.74164 13.2551 5.79548C13.2667 5.86129 13.2783 5.90316 13.2841 5.92111ZM13.4173 3.62395C13.4984 3.52824 13.5622 3.43252 13.6143 3.33681C13.6607 3.24109 13.6954 3.15136 13.7186 3.05564C13.7418 3.04368 13.7591 2.94198 13.7823 2.75653C13.7881 2.601 13.7823 2.48734 13.7649 2.40957C13.7591 2.36769 13.7476 2.31983 13.7302 2.27198C13.7128 2.21814 13.6896 2.17626 13.6607 2.14037C13.6317 2.10448 13.5911 2.07457 13.5506 2.05662C13.5042 2.03867 13.4579 2.04465 13.3999 2.06858C13.3362 2.09849 13.2899 2.13439 13.2551 2.19421C13.2203 2.24805 13.1972 2.31385 13.1914 2.38564C13.1798 2.45743 13.1798 2.54118 13.1914 2.63091C13.203 2.72064 13.2146 2.8343 13.2319 2.96591C13.2493 3.09752 13.2725 3.21716 13.3073 3.31886C13.342 3.42056 13.3768 3.52225 13.4173 3.62395Z" fill="black"/>
<path d="M16.1867 3.37264L16.1114 3.03166C16.0534 3.1513 15.9839 3.26497 15.9086 3.3547C15.8333 3.44443 15.7464 3.51622 15.6537 3.55809C15.5726 3.59399 15.4857 3.61193 15.393 3.61193C15.3003 3.61193 15.2134 3.59399 15.1265 3.55211C15.0396 3.51622 14.9642 3.4564 14.8889 3.37863C14.8136 3.30086 14.7557 3.20514 14.7093 3.09148C14.6456 2.94193 14.5993 2.79836 14.5703 2.66077C14.5413 2.52318 14.5008 2.35567 14.4544 2.15826C14.4081 1.96085 14.3849 1.79933 14.3791 1.67371C14.3733 1.54808 14.3791 1.42245 14.3849 1.28486C14.3907 1.18915 14.4255 1.1054 14.4776 1.03361C14.5355 0.961827 14.5993 0.907987 14.663 0.878076C14.7209 0.854147 14.7789 0.848165 14.831 0.860129C14.8831 0.872094 14.9237 0.907987 14.9527 0.973791C14.9585 0.991737 14.9642 1.01567 14.97 1.03959C14.9758 1.06352 14.9758 1.09343 14.9758 1.12335C14.9758 1.21906 14.9932 1.32076 15.0164 1.4404C15.0396 1.56004 15.0743 1.72156 15.1149 1.91898C15.1554 2.11639 15.1902 2.27791 15.2134 2.39157C15.2365 2.51121 15.2655 2.60693 15.3003 2.69666C15.3176 2.73853 15.3408 2.78041 15.364 2.82228C15.3872 2.86416 15.4103 2.89407 15.4393 2.918C15.4683 2.94193 15.4972 2.95987 15.532 2.97184C15.5668 2.9838 15.6015 2.97782 15.6421 2.95987C15.7058 2.92996 15.7522 2.88211 15.7753 2.80434C15.8043 2.72657 15.8217 2.63684 15.8275 2.54112C15.8333 2.44541 15.8275 2.34969 15.8159 2.25398C15.8043 2.15826 15.7927 2.08049 15.7753 2.02067L15.5784 0.949862C15.5668 0.89004 15.5668 0.824236 15.5841 0.764415C15.6015 0.704593 15.6247 0.650753 15.6537 0.596914C15.6884 0.543074 15.7232 0.501199 15.7695 0.465306C15.8101 0.429413 15.8564 0.399502 15.897 0.381555C15.9491 0.357626 16.0013 0.351644 16.0418 0.357626C16.0882 0.363609 16.1171 0.393519 16.1403 0.447359C16.1461 0.465306 16.1519 0.483252 16.1577 0.507181C16.1693 0.555038 16.1809 0.626824 16.204 0.710575C16.2214 0.794325 16.2446 0.89004 16.2678 0.99772C16.2909 1.1054 16.3257 1.25495 16.3663 1.44638C16.4068 1.63781 16.4416 1.79335 16.4705 1.91299C16.5343 2.18817 16.6038 2.48728 16.6791 2.80434C16.7197 2.7505 16.7602 2.69068 16.8008 2.62487C16.8413 2.55309 16.8877 2.46934 16.9282 2.36166C16.9688 2.25398 17.0151 2.12835 17.0615 1.9788C17.1078 1.82924 17.1484 1.64978 17.1947 1.43442L17.5539 1.96683C17.5481 2.03264 17.5307 2.10442 17.5018 2.18219C17.4728 2.26594 17.4438 2.34371 17.4091 2.42148C17.3569 2.53514 17.3164 2.61889 17.2932 2.66077C17.2874 2.67273 17.2411 2.7505 17.1716 2.89407C17.1484 2.93595 17.0731 3.06755 16.934 3.28291C16.8993 3.33675 16.8935 3.40256 16.9108 3.49827C16.9282 3.588 16.9688 3.74952 17.0383 3.98881C17.0557 4.05461 17.0673 4.10845 17.0789 4.14435C17.102 4.23408 17.1252 4.31783 17.1484 4.3956C17.1716 4.47337 17.1889 4.56908 17.2063 4.67676C17.2237 4.78444 17.2295 4.88614 17.2295 4.98185C17.2295 5.07757 17.2237 5.17328 17.2005 5.28096C17.1831 5.38266 17.1484 5.47837 17.1078 5.56212C17.0673 5.64587 17.0093 5.72364 16.934 5.80141C16.8587 5.8732 16.766 5.93302 16.6617 5.98088C16.5748 6.01677 16.4937 6.0407 16.4126 6.05266C16.3315 6.06463 16.2504 6.06463 16.1751 6.04668C16.0998 6.02873 16.0244 5.99284 15.9549 5.939C15.8854 5.88516 15.8275 5.80739 15.7811 5.71168C15.6942 5.53221 15.6595 5.31685 15.6884 5.05962C15.7058 4.91605 15.7174 4.82033 15.7232 4.76051C15.729 4.70667 15.7464 4.62292 15.7637 4.51524C15.7869 4.40756 15.8101 4.31185 15.8449 4.21613C15.9086 4.0247 15.9607 3.87515 16.0013 3.7555C16.0592 3.64184 16.1171 3.51024 16.1867 3.37264ZM16.4474 4.00077C16.3663 4.13836 16.3025 4.32979 16.2678 4.56908C16.233 4.80837 16.2156 5.04766 16.233 5.27498C16.2446 5.46641 16.3083 5.53819 16.4184 5.49034C16.459 5.47239 16.4937 5.45444 16.5227 5.42453C16.5517 5.4006 16.5748 5.37069 16.5864 5.32882C16.6038 5.29292 16.6154 5.25105 16.6212 5.20917C16.627 5.1673 16.6328 5.11346 16.6328 5.04766C16.6328 4.98185 16.627 4.91007 16.6212 4.85024C16.6154 4.78444 16.6096 4.70069 16.598 4.59301C16.5922 4.53319 16.5806 4.47337 16.5632 4.40756C16.5459 4.34176 16.5227 4.26399 16.4995 4.17426C16.4705 4.08452 16.459 4.0247 16.4474 4.00077Z" fill="black"/>
<path d="M28.2548 4.00606C28.0984 3.94026 27.9709 3.85052 27.8782 3.73686C27.7855 3.62918 27.716 3.50356 27.6754 3.37195C27.6349 3.24034 27.6233 3.09677 27.6349 2.94721C27.6465 2.79766 27.6812 2.65409 27.7392 2.51051C27.7797 2.40882 27.8492 2.29516 27.9361 2.16953C28.0288 2.0439 28.1157 1.93623 28.1968 1.84649C28.278 1.75676 28.3706 1.67899 28.4691 1.60721C28.5676 1.53542 28.6719 1.48158 28.7762 1.4397C28.8805 1.39783 28.9905 1.37988 29.1064 1.37988C29.2165 1.37988 29.3324 1.40381 29.4482 1.45167C29.5525 1.49354 29.6394 1.55337 29.7147 1.61917C29.79 1.68497 29.848 1.76274 29.8885 1.84051C29.9291 1.92426 29.9523 2.00801 29.9581 2.09774C29.9639 2.18748 29.9465 2.27721 29.9117 2.36096C29.8885 2.42078 29.8538 2.47462 29.8132 2.52846C29.7727 2.5823 29.7147 2.63016 29.6336 2.68998C29.5525 2.7498 29.4888 2.77971 29.4309 2.78569C29.3729 2.79168 29.3208 2.7857 29.2628 2.76177C29.1759 2.72587 29.1296 2.67802 29.1238 2.62418C29.1122 2.54043 29.1238 2.47462 29.1586 2.42676C29.1759 2.40284 29.2165 2.34301 29.2802 2.25328C29.2918 2.24132 29.3034 2.21141 29.3208 2.15757C29.3382 2.11569 29.3497 2.0798 29.3497 2.04989C29.3555 2.01998 29.3382 1.99605 29.3092 1.98408C29.2397 1.95417 29.1759 1.94819 29.1122 1.96015C29.0485 1.97212 28.9905 2.00203 28.9326 2.03792C28.8747 2.0798 28.8109 2.13962 28.7356 2.22935C28.6603 2.3131 28.6024 2.39087 28.5618 2.45069C28.5213 2.51051 28.4865 2.57632 28.4575 2.63614C28.4286 2.69596 28.4054 2.7498 28.388 2.79168C28.3649 2.85748 28.3417 2.92329 28.3243 2.99507C28.3069 3.06686 28.3069 3.13864 28.3127 3.21043C28.3243 3.28222 28.3475 3.34802 28.3822 3.40784C28.417 3.46766 28.4807 3.51552 28.5618 3.55141C28.6429 3.58731 28.7414 3.59927 28.8631 3.59329C28.9848 3.58133 29.1064 3.56338 29.2397 3.52749C29.3729 3.49159 29.5004 3.44373 29.6278 3.3899C29.7553 3.33606 29.8712 3.27623 29.9696 3.22239L30.0218 3.59927C29.819 3.73088 29.6162 3.83856 29.4077 3.92231C29.3208 3.9582 29.2281 3.98811 29.1296 4.01802C29.0311 4.04794 28.9326 4.06588 28.8341 4.07785C28.7356 4.08981 28.6371 4.08981 28.5387 4.08383C28.4344 4.07186 28.3417 4.04794 28.2548 4.00606Z" fill="black"/>
<path d="M30.9025 3.27057C31.0125 3.20477 31.1284 3.13298 31.2617 3.0612C31.3949 2.98941 31.5629 2.91164 31.7657 2.82789C31.9685 2.74414 32.1307 2.6903 32.2465 2.66637C32.3624 2.64244 32.4667 2.64843 32.5478 2.68432C32.571 2.6903 32.5884 2.70825 32.6115 2.72619C32.6347 2.74414 32.6521 2.76807 32.6637 2.80396C32.6753 2.83387 32.6868 2.87575 32.6868 2.91762C32.6868 2.96548 32.6753 3.01334 32.6521 3.07316C32.6057 3.1928 32.5362 3.30647 32.4609 3.40816C32.3798 3.50986 32.2639 3.62352 32.1075 3.74915C31.9511 3.87477 31.8352 3.98843 31.7541 4.09611C31.673 4.20379 31.6093 4.31745 31.5571 4.44906C31.5282 4.52085 31.5166 4.58067 31.5166 4.63451C31.5224 4.68835 31.5397 4.71826 31.5687 4.73022C31.6093 4.74817 31.6556 4.76014 31.7078 4.76014C31.7599 4.76014 31.8178 4.76014 31.87 4.74817C31.9279 4.74219 31.9858 4.72424 32.0438 4.71228C32.1017 4.69433 32.1596 4.67638 32.2118 4.65246C32.3392 4.6046 32.4725 4.53879 32.6115 4.46103L32.374 5.17889C32.3334 5.19085 32.2813 5.20282 32.2234 5.21478C32.1654 5.22675 32.0959 5.24469 32.0264 5.25666C31.9569 5.26862 31.8758 5.28059 31.7947 5.29255C31.7135 5.30451 31.6324 5.3105 31.5513 5.3105C31.4702 5.3105 31.3949 5.3105 31.3196 5.29853C31.2443 5.28657 31.1748 5.26862 31.1168 5.24469C31.0241 5.20282 30.9488 5.14299 30.8967 5.06523C30.8445 4.98746 30.8156 4.89773 30.7982 4.80201C30.7866 4.7063 30.7808 4.61058 30.7982 4.50888C30.8098 4.40719 30.8329 4.31745 30.8677 4.23969C30.8909 4.18585 30.9256 4.12602 30.9662 4.06022C31.0068 3.99442 31.0589 3.93459 31.1052 3.87477C31.1574 3.81495 31.2095 3.75513 31.2617 3.70129C31.3138 3.64745 31.3659 3.59959 31.4123 3.55174C31.4586 3.50986 31.4934 3.47397 31.5282 3.45004C31.5571 3.42611 31.5803 3.40816 31.5861 3.40816L31.534 3.37825C31.4992 3.38423 31.4297 3.41414 31.3312 3.462C31.2327 3.50986 31.111 3.57566 30.9778 3.65343C30.8445 3.73718 30.6997 3.82692 30.5491 3.93459C30.3984 4.04227 30.2536 4.16192 30.1146 4.28156C30.045 4.34138 29.9871 4.39522 29.9408 4.44308C29.8944 4.49094 29.8539 4.52683 29.8133 4.55076C29.7785 4.57469 29.738 4.59263 29.7032 4.59862C29.6685 4.6046 29.6279 4.59862 29.5874 4.58067C29.5294 4.55674 29.4947 4.52085 29.4715 4.47897C29.4541 4.43112 29.4425 4.38326 29.4483 4.32344C29.4541 4.26361 29.4657 4.20379 29.4889 4.13201C29.512 4.0662 29.5352 3.99442 29.5642 3.92861C29.6105 3.80897 29.6801 3.65343 29.7612 3.45602C29.8423 3.26459 29.9408 3.04923 30.045 2.82191C30.1551 2.5886 30.2768 2.3553 30.4158 2.12199C30.5549 1.88271 30.6939 1.6494 30.8272 1.41011C30.9662 1.17681 31.1168 0.96145 31.279 0.764038C31.4413 0.566626 31.6093 0.405108 31.7773 0.279482C31.9453 0.147874 32.1191 0.0641233 32.2987 0.022248C32.4783 -0.0196273 32.6521 -0.00168074 32.8259 0.0701054C32.9186 0.111981 32.9881 0.153856 33.0345 0.207696C33.0808 0.261535 33.1098 0.321357 33.1271 0.387161C33.1387 0.452965 33.1387 0.524751 33.1271 0.60252C33.1098 0.680288 33.0866 0.764038 33.0518 0.847789C32.9997 0.979397 32.9244 1.11699 32.8201 1.26056C32.7216 1.40413 32.6057 1.5477 32.4783 1.69726C32.3508 1.84083 32.2118 1.99039 32.0669 2.13396C31.9221 2.27753 31.7773 2.41512 31.6324 2.54673C31.4876 2.67834 31.3486 2.79798 31.2153 2.91762C31.0821 3.03129 30.9604 3.13298 30.8619 3.21673L30.9025 3.27057ZM31.7947 1.72119C32.0032 1.49985 32.1654 1.30243 32.2871 1.14092C32.4088 0.979397 32.4841 0.853771 32.5188 0.764038C32.571 0.63243 32.5826 0.554662 32.5478 0.542698C32.5015 0.524751 32.4088 0.572609 32.2639 0.680288C32.1191 0.793949 31.9279 0.961451 31.6962 1.19476C31.6266 1.27851 31.5629 1.36824 31.4934 1.45797C31.4297 1.5477 31.3659 1.64342 31.308 1.73913C31.2501 1.83485 31.1979 1.93056 31.14 2.02628C31.0879 2.12199 31.0357 2.20574 30.9894 2.28949C30.8677 2.48092 30.7576 2.67235 30.6591 2.86378C30.7518 2.77405 30.8503 2.67834 30.9546 2.57066C31.0589 2.46298 31.169 2.36128 31.2732 2.2536C31.3775 2.1519 31.476 2.05021 31.5687 1.96047C31.6556 1.86476 31.7367 1.78699 31.7947 1.72119Z" fill="black"/>
<path d="M33.8802 5.78321C33.7933 5.81312 33.6948 5.84303 33.5789 5.86696C33.4631 5.89089 33.3414 5.90883 33.2139 5.9208C33.0865 5.93276 32.959 5.93276 32.8374 5.9208C32.7157 5.90883 32.5998 5.8849 32.5014 5.84303C32.4145 5.80714 32.3449 5.75928 32.2928 5.71142C32.2407 5.65758 32.2059 5.60374 32.1885 5.54392C32.1711 5.4841 32.1653 5.4183 32.1769 5.34053C32.1885 5.26874 32.2059 5.19097 32.2407 5.1132C32.287 5.00552 32.3507 4.8799 32.4318 4.74231C32.6056 4.46115 32.7041 4.30561 32.7331 4.26972C32.7852 4.20391 32.9011 4.06034 33.0749 3.83302C33.2255 3.65355 33.3182 3.53391 33.3588 3.47409C33.3878 3.43221 33.4225 3.4023 33.4747 3.38435C33.521 3.36641 33.5731 3.36043 33.6253 3.35444C33.6774 3.35444 33.7296 3.36043 33.7817 3.36641C33.8338 3.37837 33.8802 3.39034 33.915 3.40828C33.9845 3.43819 34.025 3.47409 34.0424 3.50998C34.054 3.54587 34.054 3.58775 34.0366 3.63561C34.0192 3.6715 33.9903 3.72534 33.9439 3.78516C33.8976 3.84498 33.8454 3.91677 33.7875 4.00052C33.7296 4.07829 33.6485 4.17998 33.55 4.30561C33.4515 4.42525 33.3704 4.53293 33.3124 4.62865C33.2545 4.71838 33.1966 4.8141 33.1328 4.89785C33.0691 4.98758 33.0228 5.07133 32.988 5.1491C32.9532 5.22687 32.9417 5.29267 32.9359 5.34651C32.9359 5.40035 32.959 5.43624 33.0112 5.46017C33.0749 5.4841 33.1502 5.49606 33.2429 5.4841C33.3356 5.47213 33.4341 5.45419 33.5326 5.42428C33.6311 5.39437 33.7354 5.36446 33.8338 5.32856C33.9323 5.29267 34.0192 5.26276 34.0946 5.23883L33.8802 5.78321ZM33.8628 2.54087C33.8802 2.49899 33.9092 2.45712 33.9439 2.41524C33.9787 2.37337 34.0308 2.33747 34.083 2.30756C34.1409 2.27765 34.2046 2.26569 34.2799 2.25971C34.3553 2.25372 34.4422 2.27765 34.5349 2.31354C34.5928 2.33747 34.6449 2.37337 34.6913 2.40926C34.7376 2.44515 34.7724 2.48703 34.8014 2.53489C34.8303 2.58274 34.8419 2.6306 34.8477 2.69042C34.8535 2.75024 34.8419 2.81007 34.8129 2.87587C34.7898 2.93569 34.755 2.98953 34.7144 3.03739C34.6739 3.08525 34.6218 3.12114 34.5638 3.15105C34.5059 3.17498 34.4422 3.19293 34.3668 3.19293C34.2915 3.19293 34.2162 3.17498 34.1293 3.13909C33.9787 3.07328 33.886 2.98953 33.8454 2.88783C33.8107 2.78015 33.8107 2.66649 33.8628 2.54087Z" fill="black"/>
<path d="M34.0425 6.51337C33.9498 6.47149 33.886 6.39372 33.8397 6.28006C33.7933 6.1664 33.7702 6.02283 33.7702 5.86131C33.7702 5.69979 33.7876 5.52033 33.8281 5.32291C33.8687 5.1255 33.9324 4.92809 34.0135 4.73068C34.083 4.5572 34.1989 4.34184 34.3669 4.07264C34.5291 3.80942 34.616 3.67781 34.616 3.67781C34.616 3.67781 34.7087 3.55219 34.8999 3.29496C35.0911 3.0437 35.2591 2.84629 35.4039 2.70272C35.5488 2.56513 35.6936 2.43352 35.8442 2.32584C35.9949 2.21218 36.1397 2.12245 36.2787 2.05066C36.4178 1.97888 36.5568 1.937 36.6843 1.91905C36.8117 1.90111 36.9334 1.91307 37.0435 1.96093C37.1246 1.99682 37.1825 2.0387 37.2173 2.09254C37.2578 2.14638 37.281 2.2062 37.2868 2.26602C37.2926 2.33182 37.2926 2.39763 37.281 2.46343C37.2694 2.53522 37.2463 2.60102 37.2173 2.66683C37.1478 2.83433 37.0609 2.98986 36.9566 3.1454C36.8465 3.30094 36.7306 3.45049 36.5916 3.59406C36.4525 3.73764 36.3135 3.88121 36.1571 4.0188C36.0007 4.15639 35.8442 4.288 35.682 4.41961C35.5198 4.55121 35.3634 4.68282 35.2012 4.80845C35.0389 4.93407 34.8883 5.0597 34.7493 5.18532C34.7319 5.19729 34.7145 5.22122 34.6971 5.24515C34.674 5.26907 34.6566 5.293 34.6334 5.32291C34.6102 5.35283 34.587 5.38274 34.5639 5.41863C34.5407 5.45452 34.5175 5.48443 34.5001 5.52033L34.4828 5.55622C34.4654 5.60408 34.448 5.64595 34.4422 5.69381C34.4364 5.74167 34.4306 5.78354 34.4306 5.82542C34.4306 5.86729 34.4364 5.8972 34.4422 5.92711C34.448 5.95104 34.4596 5.96899 34.4712 5.97497C34.5059 5.98694 34.5465 5.9989 34.5928 6.00488C34.6392 6.01087 34.6913 6.01087 34.7493 6.00488C34.8072 5.9989 34.8651 5.99292 34.9289 5.98694C34.9926 5.97497 35.0505 5.96899 35.1143 5.95703C35.2533 5.9331 35.4039 5.8972 35.5604 5.84935V6.5014C35.3634 6.54328 35.1722 6.56721 34.9868 6.58515C34.9057 6.59114 34.8246 6.59712 34.7377 6.59712C34.6508 6.6031 34.5697 6.6031 34.4886 6.59712C34.4075 6.59114 34.3263 6.58515 34.251 6.57319C34.1641 6.55524 34.1004 6.5373 34.0425 6.51337ZM34.8883 4.43157C35.0216 4.32389 35.1664 4.19826 35.3228 4.06067C35.4792 3.92308 35.6357 3.77353 35.7863 3.62398C35.9369 3.46844 36.0818 3.3129 36.2092 3.15138C36.3425 2.98986 36.4468 2.83433 36.5279 2.67879C36.551 2.62495 36.5626 2.58308 36.58 2.54718C36.5916 2.51129 36.5916 2.48736 36.58 2.48138C36.5337 2.46343 36.4699 2.4754 36.3888 2.51727C36.3077 2.55915 36.2208 2.62495 36.1165 2.71468C36.0122 2.80442 35.879 2.95995 35.6994 3.18129C35.5198 3.40263 35.4329 3.5163 35.4329 3.5163C35.4329 3.5163 35.3634 3.62398 35.2185 3.83933C35.0795 4.06067 34.9694 4.25809 34.8883 4.43157Z" fill="black"/>
<path d="M37.9413 7.55406C37.7791 7.60191 37.6227 7.64379 37.4779 7.6737C37.4141 7.68566 37.3504 7.69763 37.2809 7.70361C37.2114 7.71557 37.1476 7.71557 37.0839 7.72156C37.0202 7.72156 36.9622 7.72156 36.9043 7.71557C36.8464 7.70959 36.8 7.69763 36.7595 7.67968C36.7363 7.66772 36.7015 7.64977 36.661 7.61388C36.6204 7.58397 36.5741 7.53611 36.5335 7.47629C36.493 7.41646 36.4524 7.34468 36.4234 7.25495C36.3945 7.16521 36.3771 7.05753 36.3829 6.93191C36.2902 6.97378 36.2033 7.00369 36.1048 7.03361C36.0121 7.06352 35.9136 7.08146 35.8209 7.09343C35.7282 7.10539 35.6355 7.10539 35.5486 7.09941C35.4617 7.09343 35.3748 7.07548 35.2995 7.03959C35.1894 6.99173 35.1025 6.92593 35.0446 6.84816C34.9809 6.76441 34.9403 6.67467 34.9229 6.57298C34.8998 6.47128 34.8998 6.3636 34.9114 6.25592C34.9229 6.14226 34.9519 6.03458 34.9983 5.93288C35.0446 5.81922 35.1025 5.71154 35.1779 5.60386C35.2532 5.50217 35.3401 5.40645 35.4386 5.31672C35.5371 5.23297 35.6413 5.14324 35.7572 5.0535C35.8731 4.96377 36.0005 4.89198 36.1454 4.83814C36.2902 4.7843 36.435 4.76038 36.5683 4.76038C36.7015 4.76038 36.8348 4.77832 36.968 4.82618C37.0665 4.59886 37.1708 4.41341 37.2809 4.25787C37.391 4.10234 37.5126 3.93483 37.6401 3.75537C37.7675 3.5759 37.9066 3.42037 38.0514 3.28278C38.1962 3.14519 38.3353 3.03751 38.4743 2.95376C38.6134 2.87001 38.7466 2.81617 38.8799 2.79224C39.0131 2.76831 39.129 2.78027 39.2391 2.82813C39.3202 2.86402 39.3781 2.91188 39.4187 2.97769C39.4592 3.04349 39.4766 3.12126 39.4824 3.20501C39.4882 3.28876 39.4824 3.38447 39.4592 3.48617C39.436 3.58787 39.4071 3.68358 39.3665 3.78528C39.3433 3.8451 39.3144 3.91091 39.2854 3.97671C39.1811 4.22796 39.0479 4.44332 38.8915 4.62877C38.735 4.81422 38.5786 4.99966 38.4222 5.17913C38.2658 5.35859 38.0978 5.53208 37.9182 5.69958C37.6401 5.95083 37.4605 6.12431 37.3736 6.22003C37.3562 6.24396 37.333 6.26789 37.3098 6.2978C37.2867 6.32771 37.2635 6.3636 37.2403 6.39949C37.2171 6.43539 37.194 6.47726 37.1708 6.51914C37.1476 6.56101 37.1302 6.60289 37.1129 6.63878C37.0897 6.69262 37.0723 6.74048 37.0607 6.78834C37.0491 6.83619 37.0433 6.88405 37.0376 6.92593C37.0376 6.9678 37.0433 7.00369 37.0549 7.03361C37.0665 7.06352 37.0897 7.08744 37.1245 7.09941C37.1592 7.11137 37.194 7.12334 37.2403 7.12334C37.2809 7.12932 37.333 7.12334 37.3852 7.12334C37.4373 7.11736 37.4894 7.11137 37.5474 7.09941C37.5995 7.08744 37.6575 7.07548 37.7096 7.06352C37.8313 7.03361 37.9587 6.99771 38.0977 6.94985L37.9413 7.55406ZM36.8116 5.24493C36.6784 5.25091 36.5451 5.28681 36.4234 5.34065C36.296 5.39449 36.1743 5.48422 36.0585 5.60985C35.9368 5.73547 35.8441 5.84913 35.7688 5.94485C35.6935 6.04056 35.6413 6.1303 35.6008 6.22003C35.5892 6.24994 35.5834 6.27387 35.5776 6.30976C35.5718 6.33967 35.5776 6.36958 35.5892 6.39949C35.6008 6.4294 35.624 6.45932 35.6529 6.48923C35.6819 6.51914 35.7282 6.54905 35.792 6.57298C35.8209 6.58494 35.8557 6.59092 35.8905 6.59092C35.9252 6.59092 35.96 6.58494 36.0005 6.57298C36.0353 6.56101 36.0758 6.54905 36.1106 6.5311C36.1454 6.51316 36.1801 6.49521 36.2149 6.47128C36.2902 6.42342 36.3655 6.35762 36.4408 6.28583C36.4466 6.2619 36.4582 6.22003 36.4756 6.16021C36.493 6.10637 36.5219 6.02262 36.5683 5.90896C36.6088 5.79529 36.6436 5.70556 36.6726 5.63377C36.7015 5.56199 36.7247 5.49618 36.7479 5.43636C36.7711 5.37654 36.7884 5.32868 36.8 5.29279C36.8058 5.26288 36.8116 5.24493 36.8116 5.24493ZM38.7292 3.97671C38.7872 3.85707 38.8335 3.76135 38.8625 3.68957C38.903 3.59385 38.9204 3.52805 38.9204 3.48019C38.9204 3.43831 38.903 3.4084 38.8741 3.39644C38.8161 3.37251 38.7524 3.38447 38.6829 3.43831C38.6134 3.49215 38.5381 3.56394 38.4627 3.66564C38.3874 3.76733 38.3121 3.87501 38.2252 3.98867C38.1383 4.10832 38.063 4.22198 37.9993 4.34162C37.9355 4.46127 37.8776 4.56895 37.8255 4.66466C37.7733 4.76038 37.7386 4.83216 37.7212 4.87404C37.6806 4.95779 37.6401 5.04154 37.5995 5.11931C37.5648 5.19708 37.53 5.26886 37.501 5.33467C37.4721 5.40047 37.4489 5.46029 37.4257 5.50815C37.4083 5.55601 37.391 5.59788 37.3794 5.62181L37.3678 5.64574C37.559 5.45431 37.7386 5.2569 37.9124 5.06547C37.9877 4.98172 38.0572 4.89198 38.1325 4.80225C38.2078 4.70654 38.2831 4.6168 38.3585 4.52707C38.4338 4.43734 38.5033 4.34162 38.567 4.25189C38.6307 4.15618 38.6829 4.06644 38.7292 3.97671Z" fill="black"/>
<path d="M37.7964 7.49446C37.8253 7.41669 37.8659 7.32696 37.918 7.23124C37.9702 7.13553 38.0223 7.02785 38.086 6.92017C38.144 6.81249 38.2077 6.70481 38.2772 6.59713C38.3467 6.48945 38.4221 6.36981 38.5032 6.25017C38.5901 6.13052 38.6596 6.02883 38.7175 5.95106C38.7755 5.87329 38.8276 5.80748 38.8739 5.75963C38.9029 5.72972 38.9261 5.6998 38.9493 5.68784C38.9724 5.66989 38.9956 5.65793 39.0188 5.65195C39.042 5.64597 39.0651 5.64597 39.0941 5.65195C39.1231 5.65793 39.1578 5.66989 39.1926 5.68784C39.2389 5.70579 39.2679 5.72373 39.2911 5.74168C39.3142 5.75963 39.3258 5.77757 39.3316 5.79552C39.3374 5.81945 39.3316 5.84338 39.3258 5.87927C39.3142 5.90918 39.2969 5.95704 39.2795 6.01088C39.2505 6.07668 39.21 6.16642 39.1578 6.28008C39.0999 6.39374 39.0535 6.49544 39.0246 6.59115L39.0535 6.60311C39.1173 6.54928 39.1926 6.47151 39.2911 6.38177C39.3896 6.29204 39.4823 6.22025 39.5634 6.16642C39.6503 6.11258 39.7372 6.07668 39.8299 6.05874C39.9226 6.04079 40.0153 6.04677 40.1079 6.08865C40.1427 6.10061 40.1717 6.12454 40.1949 6.14847C40.218 6.1724 40.2412 6.20231 40.2528 6.23222C40.2644 6.26213 40.276 6.29802 40.276 6.33392C40.276 6.36981 40.2702 6.4057 40.2528 6.44758C40.2412 6.47749 40.218 6.51936 40.1891 6.56722C40.1601 6.61508 40.1195 6.68088 40.0616 6.75865C40.0095 6.83642 39.9689 6.90222 39.9341 6.95008C39.9052 7.00392 39.882 7.0458 39.8646 7.08169C39.8414 7.14749 39.8241 7.20133 39.8183 7.24919C39.8125 7.29705 39.8125 7.33892 39.8241 7.36883C39.8357 7.40473 39.8472 7.42866 39.8704 7.45258C39.8878 7.47651 39.9168 7.48848 39.9399 7.50044C40.0153 7.53634 40.1022 7.5483 40.1949 7.5483C40.2875 7.5483 40.3802 7.54232 40.4671 7.52437C40.5656 7.50642 40.6699 7.4825 40.7684 7.45258L40.4787 8.0508C40.4208 8.06277 40.3571 8.07473 40.2875 8.0867C40.218 8.09866 40.1427 8.11063 40.0674 8.11063C39.9921 8.11661 39.911 8.11661 39.8357 8.10464C39.7603 8.09866 39.685 8.07473 39.6155 8.04482C39.488 7.99098 39.3954 7.91919 39.3432 7.82946C39.2853 7.73973 39.2563 7.64401 39.2447 7.54232C39.2331 7.43464 39.2389 7.32696 39.2621 7.20732C39.2853 7.08767 39.3085 6.97401 39.3432 6.86035L39.3027 6.8424L38.3178 7.95509C38.2656 8.01491 38.2193 8.05679 38.1845 8.09268C38.144 8.12857 38.1092 8.1525 38.0744 8.17643C38.0397 8.19438 38.0107 8.20634 37.9818 8.20634C37.9528 8.20634 37.9238 8.20036 37.8891 8.18839C37.8195 8.15848 37.7674 8.11661 37.7384 8.06875C37.7095 8.02089 37.6921 7.96705 37.6921 7.90125C37.6921 7.84143 37.6979 7.77562 37.7153 7.70384C37.7442 7.63205 37.7674 7.56026 37.7964 7.49446Z" fill="black"/>
<path d="M40.6179 9.35432C40.4615 9.28852 40.334 9.19879 40.2413 9.08513C40.1486 8.97146 40.0791 8.85182 40.0443 8.71423C40.0096 8.57664 39.998 8.43307 40.0096 8.28351C40.0269 8.13396 40.0617 7.9844 40.1196 7.83485C40.1602 7.73914 40.2239 7.63146 40.3108 7.51181C40.3977 7.39217 40.4846 7.29047 40.5657 7.20074C40.6468 7.11101 40.7337 7.03324 40.8264 6.96743C40.9191 6.89565 41.0234 6.84181 41.1277 6.80592C41.232 6.77002 41.3421 6.74609 41.4521 6.74609C41.5622 6.74609 41.6781 6.77002 41.7939 6.81788C41.8866 6.85975 41.9677 6.91359 42.0373 6.9794C42.1068 7.0452 42.1589 7.12297 42.1937 7.20074C42.2285 7.28449 42.2516 7.37422 42.2516 7.46994C42.2516 7.56565 42.2342 7.66137 42.1937 7.76306C42.1531 7.87074 42.0662 7.97244 41.9446 8.07414C41.8229 8.17583 41.6955 8.2536 41.568 8.30744C41.4405 8.36128 41.2957 8.39718 41.1393 8.41512C40.9829 8.43307 40.8206 8.43307 40.6584 8.40914C40.6642 8.46896 40.6758 8.51682 40.6874 8.55869C40.699 8.60057 40.7164 8.63646 40.7337 8.66039C40.7511 8.6903 40.7743 8.71423 40.7975 8.73218C40.8206 8.75012 40.8496 8.76807 40.8844 8.78004C40.9887 8.82191 41.0987 8.85182 41.232 8.8578C41.3594 8.86379 41.4927 8.86378 41.6259 8.84584C41.7592 8.82789 41.8866 8.80396 42.0083 8.77405C42.13 8.74414 42.24 8.70825 42.3327 8.67236L42.5181 9.15691C42.3038 9.25861 42.0836 9.33039 41.8693 9.38423C41.7766 9.40816 41.6723 9.42611 41.568 9.44406C41.4637 9.462 41.3536 9.46799 41.2494 9.46799C41.1393 9.46799 41.0292 9.462 40.9249 9.43807C40.8206 9.43209 40.7164 9.3962 40.6179 9.35432ZM40.7859 7.96048C40.8496 7.98441 40.9191 8.00235 41.006 8.00235C41.0929 8.00235 41.174 7.99039 41.2552 7.96646C41.3363 7.94253 41.4232 7.90065 41.5159 7.84681C41.6086 7.78699 41.6665 7.73315 41.6897 7.67931C41.7186 7.60154 41.7302 7.53574 41.7244 7.46994C41.7186 7.41012 41.6897 7.36824 41.6491 7.35029C41.5738 7.32038 41.5101 7.30244 41.4463 7.30842C41.3826 7.3144 41.3247 7.33235 41.2725 7.35628C41.2204 7.38619 41.174 7.42208 41.1277 7.46994C41.0814 7.51779 41.0292 7.57163 40.9713 7.64342C40.9075 7.71521 40.867 7.77503 40.8438 7.82289C40.8206 7.87673 40.7975 7.92458 40.7859 7.96048Z" fill="black"/>
<path d="M41.8985 9.26462C41.9448 9.15095 42.0086 9.01935 42.0839 8.87577C42.1592 8.7322 42.2403 8.57068 42.3388 8.3972C42.4315 8.22372 42.5242 8.07416 42.6053 7.93657C42.6922 7.80496 42.7617 7.6913 42.8312 7.59559C42.8834 7.5238 42.9471 7.46996 43.0224 7.44005C43.0977 7.41014 43.1788 7.41612 43.2715 7.45201C43.3642 7.48791 43.4164 7.54773 43.4279 7.61952C43.4395 7.6913 43.428 7.77505 43.3874 7.87077C43.3758 7.8947 43.3584 7.93059 43.3353 7.97246C43.3121 8.01434 43.2831 8.0622 43.2541 8.11005C43.2252 8.15791 43.1962 8.21175 43.1615 8.26559C43.1325 8.31943 43.0977 8.37925 43.0572 8.45104C43.0224 8.52283 42.9934 8.57068 42.9703 8.60658C42.9529 8.64247 42.9355 8.66042 42.9355 8.67238L42.9876 8.69631C43.005 8.68434 43.034 8.65443 43.0745 8.62452C43.1151 8.58863 43.1615 8.54077 43.2252 8.47497C43.2889 8.40916 43.3468 8.34934 43.4048 8.30148C43.4627 8.25363 43.5206 8.20577 43.567 8.16389C43.6191 8.12202 43.6655 8.08014 43.706 8.04425C43.7466 8.00836 43.7756 7.98443 43.7987 7.97246C43.8914 7.90068 43.9783 7.86478 44.0652 7.8588C44.1463 7.85282 44.2332 7.87077 44.3201 7.90666C44.407 7.94255 44.4592 8.00836 44.4766 8.10407C44.4939 8.19979 44.4824 8.31345 44.4302 8.43908C44.4244 8.45702 44.407 8.48693 44.3781 8.52881C44.3549 8.57068 44.3201 8.61854 44.2854 8.67836C44.2506 8.73818 44.2043 8.80997 44.1463 8.90568C44.0942 9.0014 44.0421 9.08515 43.9957 9.15694C43.9494 9.22872 43.9088 9.30649 43.874 9.37828C43.8335 9.45006 43.8045 9.52185 43.7756 9.58765C43.7292 9.69533 43.706 9.79105 43.706 9.8748C43.706 9.95855 43.7292 10.0064 43.7871 10.0303C43.8103 10.0363 43.8393 10.0423 43.8856 10.0423C43.9494 10.0483 43.9957 10.0423 44.0131 10.0363C44.1116 10.0064 44.1637 9.99444 44.1637 10.0004C44.1695 10.0064 44.239 9.99444 44.3781 9.97051C44.5519 9.9406 44.7547 9.89873 44.998 9.85087L44.7547 10.4371L44.5866 10.479C44.5751 10.485 44.4766 10.4969 44.2912 10.5149C44.0305 10.5388 43.8625 10.5568 43.7987 10.5568C43.6423 10.5628 43.5438 10.5628 43.5091 10.5568C43.4106 10.5508 43.3179 10.5209 43.2252 10.485C43.1325 10.4431 43.0803 10.3414 43.0745 10.1739C43.0688 10.0064 43.1209 9.79105 43.2252 9.52185C43.2657 9.41417 43.3179 9.30649 43.3816 9.19283C43.4453 9.07917 43.5149 8.95354 43.5902 8.82193L43.5496 8.80399L42.333 9.88078C42.2693 9.9406 42.2113 9.97051 42.1592 9.9765C42.107 9.98248 42.0491 9.9765 41.997 9.95257C41.9274 9.92266 41.8753 9.88078 41.8463 9.83292C41.8174 9.78507 41.8 9.73123 41.8 9.66542C41.8 9.6056 41.8058 9.5398 41.8232 9.46801C41.8521 9.40819 41.8753 9.3364 41.8985 9.26462Z" fill="black"/>
<path d="M25.0741 4.14407C25.0741 3.47407 24.5469 2.92969 23.898 2.92969C23.5214 2.92969 23.1854 3.13906 22.9711 3.42023C22.7567 3.13308 22.4207 2.92969 22.0441 2.92969C21.3952 2.92969 20.868 3.47407 20.868 4.14407C20.868 4.14407 20.7 5.22685 22.9711 6.73435C25.2421 5.22685 25.0741 4.14407 25.0741 4.14407Z" fill="#E73938"/>
</svg>
