<svg width="162" height="188" viewBox="0 0 162 188" fill="none" xmlns="http://www.w3.org/2000/svg">
<path d="M143.636 123.725C142.575 122.229 141.412 120.775 140.29 119.364L139.739 118.69C138.923 117.678 138.087 116.646 137.21 115.593C137.475 114.897 137.577 114.455 137.597 114.434L137.414 113.697C137.352 113.633 135.924 112.011 131.272 107.145C127.865 103.584 125.376 102.889 123.907 102.931C123.315 102.952 122.764 103.079 122.275 103.331C122.275 103.31 122.275 103.31 122.275 103.289C122.193 102.341 122.132 101.267 122.071 100.066C122.071 99.9816 122.071 99.6446 122.05 99.2021C132.68 95.9788 140.454 85.8032 140.454 73.8158C140.454 59.216 128.967 47.355 114.828 47.355C100.709 47.355 89.2015 59.216 89.2015 73.8158C89.2015 85.8032 96.9546 95.9577 107.564 99.2021C107.564 99.792 107.544 100.298 107.544 100.466C107.503 101.098 107.482 101.751 107.421 102.425C107.401 102.72 107.38 103.015 107.36 103.31C107.36 103.331 107.36 103.331 107.36 103.352C106.87 103.1 106.32 102.973 105.728 102.952C104.259 102.91 101.79 103.605 98.3624 107.166C93.7105 112.032 92.2619 113.654 92.2211 113.718L92.0375 114.455C92.0375 114.476 92.1395 114.94 92.4252 115.635C91.8743 116.267 90.8745 117.362 89.834 118.5C88.1814 120.333 86.2839 122.397 85.529 123.324C84.06 125.115 82.9786 126.569 82.1829 127.77C81.326 126.337 80.0202 124.525 78.0615 122.187C74.6951 118.226 70.5737 114.118 68.1049 111.674C67.9417 111.506 67.7785 111.358 67.6357 111.19C67.5132 111.063 67.3704 110.937 67.2684 110.81C67.1256 110.663 66.9828 110.515 66.8399 110.389C66.4931 110.031 66.2279 109.778 66.1054 109.631C60.9639 103.668 57.0466 100.993 54.1902 101.477C54.129 100.761 54.0881 99.9816 54.0473 99.1389C54.0473 99.0757 54.0473 98.9915 54.0473 98.9283C57.6586 97.6853 60.9231 95.6207 63.6367 92.9661L69.2475 105.923L80.7343 92.6923L67.4316 88.247C70.0636 84.0967 71.5938 79.1248 71.5938 73.8158C71.5938 59.216 60.107 47.355 45.9678 47.355C31.849 47.355 20.3418 59.216 20.3418 73.8158C20.3418 79.1459 21.872 84.0967 24.504 88.247L11.2217 92.6923L22.7085 105.923L28.2989 92.9872C31.1961 95.8313 34.7462 98.0013 38.684 99.2021C38.9492 99.2864 39.2348 99.3707 39.5001 99.4339C39.4797 100.024 39.4389 100.635 39.3981 101.267L39.3777 101.498C37.1537 101.288 33.9505 104.785 30.8697 108.493C30.788 108.577 30.7064 108.683 30.6248 108.767C29.1966 110.494 21.2395 120.944 20.1581 122.44C16.7509 127.264 15.7511 130.403 15.7511 132.405C15.7511 133.9 16.302 134.785 16.8121 135.291C16.9141 135.375 16.9957 135.459 17.0773 135.523C17.4242 135.796 17.8118 135.965 18.2403 136.091C20.2602 136.618 22.9737 135.501 24.5856 133.268C24.9936 132.678 26.4218 130.74 28.1561 128.402C28.2581 128.254 28.3601 128.128 28.4621 127.98C29.0742 127.159 30.7064 125.073 30.7064 125.073L26.9931 150.186H33.6444L33.4404 181.555C32.3591 181.913 30.1352 182.693 28.7886 183.493C27.5848 184.21 27.4624 184.947 27.6052 185.453C27.85 186.401 28.9926 187.285 35.5623 187.285H45.7434V156.295C46.4167 156.295 47.09 156.295 47.7632 156.295L47.7836 187.285H57.9443C64.5344 187.285 65.6566 186.401 65.9218 185.453C66.0442 184.968 65.9422 184.231 64.7384 183.493C63.3919 182.693 61.1475 181.913 60.0866 181.555L59.8826 150.186L66.6563 150.207L62.2085 123.367C62.2085 123.367 67.7989 127.412 70.1656 129.097C71.8999 130.34 75.5928 132.784 78.1023 134.153C79.3061 134.806 80.6323 135.143 81.9993 135.143C82.8358 135.143 83.6519 135.017 84.4272 134.764C85.2025 134.511 85.9575 134.153 86.6512 133.669C88.773 132.173 91.7111 129.792 94.2614 127.559C95.2408 126.695 96.1589 125.874 96.9546 125.115V151.218H101.708L101.525 181.555C100.444 181.913 98.2196 182.693 96.873 183.493C95.6692 184.21 95.5468 184.947 95.6896 185.453C95.9345 186.401 97.077 187.285 103.647 187.285H113.828V156.295C114.501 156.295 115.174 156.295 115.848 156.295L115.868 187.285H126.029C132.619 187.285 133.741 186.401 134.006 185.453C134.129 184.968 134.027 184.231 132.823 183.493C131.476 182.693 129.232 181.913 128.171 181.555L127.987 151.218H132.721V125.726C133.619 126.906 134.516 128.107 135.353 129.244C137.21 131.773 138.781 133.921 139.229 134.532C141.168 137.229 144.759 138.325 146.738 136.808C147.309 136.386 148.064 135.459 148.064 133.69C148.023 131.688 147.044 128.549 143.636 123.725ZM145.718 135.501C144.555 136.386 141.923 135.712 140.392 133.563C140.005 133.037 138.781 131.33 137.23 129.244C135.842 127.348 134.19 125.136 132.7 123.177H131.129V123.662V149.596H129.66H127.845H126.416C126.416 150.143 126.416 151.218 126.416 151.218V182.714L127.028 182.903C127.069 182.903 130.334 183.915 131.966 184.884C132.068 184.947 132.15 185.01 132.231 185.052C131.701 185.284 130.191 185.663 125.988 185.663H117.255L117.235 154.652L116.501 154.673C115.399 154.694 114.236 154.694 113.073 154.673L112.338 154.652V185.663H103.586C99.3622 185.663 97.8523 185.284 97.3423 185.052C97.4035 185.01 97.4851 184.947 97.6075 184.884C99.2397 183.915 102.504 182.903 102.545 182.903L103.157 182.714V151.239V150.186V149.617H101.729H100.015H98.546V123.24H96.975C96.1997 123.956 95.2816 124.799 94.2818 125.684C90.5481 129.013 85.7942 133.037 83.8355 133.69C82.693 134.069 81.5708 134.027 80.4691 133.774C77.327 133.058 68.1661 126.569 62.7594 121.66H60.3926L64.6772 149.006H58.4136V182.735L59.0256 182.924C59.0664 182.924 62.3309 183.936 63.9631 184.905C64.0652 184.968 64.1468 185.031 64.2284 185.073C63.6979 185.305 62.1881 185.684 57.9851 185.684H49.2527L49.2323 154.673L48.4978 154.694C47.396 154.715 46.233 154.715 45.0701 154.694L44.3356 154.673V185.684H35.5827C31.3593 185.684 29.8495 185.305 29.3394 185.073C29.4007 185.031 29.4823 184.968 29.6047 184.905C31.2369 183.936 34.5014 182.924 34.5422 182.924L35.1543 182.735V149.006H28.9722L33.1548 121.66H31.1757C31.1757 121.66 30.9513 122.187 30.8901 122.25C30.584 122.629 30.2984 123.029 29.9923 123.451C28.8294 124.989 27.646 126.569 26.6055 127.98C25.0548 130.066 23.8307 131.773 23.443 132.299C21.8924 134.448 19.2604 135.101 18.1179 134.237C17.9954 134.153 17.8934 134.027 17.8118 133.9C16.9141 132.615 17.4038 129.244 21.5251 123.409C21.7904 123.029 37.1129 102.088 39.3165 103.163L39.6021 103.268L39.8877 103.142C40.1326 103.036 40.3162 102.994 40.3162 102.994L40.8263 102.847L40.8671 102.299C40.8875 102.004 40.9079 101.688 40.9283 101.393L40.9895 100.529C41.0099 100.277 41.0099 100.045 41.0303 99.792C41.0711 99.2021 41.0915 98.6544 41.1119 98.1698H41.0915H41.0711L39.5817 97.7906C39.2961 97.7063 39.0104 97.6221 38.7452 97.5378C35.0318 96.337 31.7062 94.2091 29.013 91.4493L27.8908 90.0588L27.85 90.1642L27.1563 91.7864L22.3004 103.015L14.0169 93.4928L25.4629 89.6796L27.0339 89.1529L27.1359 89.1108L26.0546 87.7625C23.443 83.7807 21.9128 78.9984 21.9128 73.8368C21.9128 60.143 32.7059 48.9982 45.9678 48.9982C59.2297 48.9982 70.0228 60.143 70.0228 73.8368C70.0228 78.9984 68.4926 83.7807 65.881 87.7625C65.575 88.226 65.2485 88.6894 64.9017 89.1319L66.4727 89.6586L77.9391 93.4928L69.6555 103.015L64.7793 91.7653L64.0856 90.1431C63.7183 90.5855 63.3307 91.0069 62.9226 91.4282C60.4334 93.9985 57.3934 96.0209 53.9861 97.2639C53.7005 97.3693 53.4148 97.4746 53.1292 97.5589C52.8844 97.6431 52.6191 97.7274 52.3539 97.7906C52.3539 98.4016 52.3743 99.0336 52.3743 99.2443C52.3743 99.3075 52.3743 99.3917 52.3743 99.4549C52.4355 100.508 52.4967 101.477 52.5579 102.32L52.5987 102.868L53.1088 103.015C53.1088 103.015 53.2516 103.057 53.4557 103.142L53.7209 103.247L53.9861 103.163C55.5163 102.657 58.638 103.563 64.7997 110.726C64.8201 110.768 64.8609 110.789 64.9017 110.831C65.2485 111.211 65.9218 111.885 66.9012 112.854C67.1052 113.065 67.3296 113.275 67.5541 113.507C70.0432 115.972 73.7157 119.68 76.7558 123.261C79.1021 126.021 80.4079 127.959 81.122 129.329C81.632 130.277 82.3869 130.277 82.897 129.392C83.6315 128.191 84.7741 126.548 86.5899 124.357C87.3244 123.472 89.2015 121.407 90.8337 119.595C92.1803 118.1 93.3637 116.815 93.7922 116.309L93.9146 115.445C93.7309 115.045 93.6085 114.708 93.5473 114.476C94.1798 113.781 95.8733 111.948 99.3621 108.303C102.545 104.996 104.606 104.532 105.565 104.553C106.401 104.574 107.38 104.996 107.38 104.996H108.441C108.625 104.448 108.747 103.942 108.788 103.437C108.809 103.142 108.829 102.826 108.849 102.531C108.89 101.941 108.931 100.74 108.951 99.6024C108.972 99.0125 108.972 98.4226 108.992 97.9592C108.482 97.8327 107.993 97.6853 107.503 97.5167C97.7707 94.3355 90.6909 84.9184 90.6909 73.8158C90.6909 60.1219 101.484 48.9772 114.746 48.9772C128.008 48.9772 138.801 60.1219 138.801 73.8158C138.801 84.9184 131.701 94.3566 121.948 97.5167C121.418 97.6853 120.867 97.8538 120.336 97.9802C120.336 98.549 120.336 99.2021 120.357 99.6446C120.357 99.9184 120.357 100.108 120.357 100.171C120.418 101.372 120.479 102.489 120.561 103.437C120.602 103.963 120.928 104.996 120.928 104.996H122.234C122.499 104.701 122.968 104.574 123.805 104.553C124.764 104.532 126.824 104.975 130.007 108.303C133.496 111.948 135.19 113.781 135.822 114.476C135.74 114.708 135.618 115.024 135.455 115.424L135.577 116.288C136.557 117.447 137.495 118.626 138.393 119.743L138.944 120.417C140.046 121.808 141.208 123.24 142.229 124.694C146.86 131.119 146.982 134.532 145.718 135.501Z" fill="white"/>
<path d="M42.4577 115.129C42.9066 115.129 43.335 115.193 43.7635 115.319C44.1716 115.445 44.5388 115.656 44.8449 115.93C45.1509 116.204 45.4161 116.583 45.5998 117.025C45.7834 117.468 45.8854 118.016 45.8854 118.648C45.8854 118.943 45.8446 119.322 45.7834 119.743C45.7222 120.186 45.6202 120.649 45.4977 121.176C45.3753 121.702 45.2325 122.25 45.0693 122.819C44.9061 123.409 44.7428 123.999 44.5592 124.61C45.2121 124.568 45.967 124.526 46.8035 124.462C47.64 124.42 48.4562 124.378 49.2927 124.315C49.6395 123.219 50.0272 122.061 50.3944 120.86C50.7821 119.659 51.2106 118.5 51.6798 117.342C51.843 116.962 52.0471 116.667 52.2919 116.436C52.5367 116.204 52.8428 116.099 53.1896 116.099C53.3325 116.099 53.4753 116.12 53.5977 116.162C53.7201 116.204 53.8425 116.267 53.9445 116.351C54.0466 116.436 54.1282 116.541 54.1894 116.667C54.2506 116.794 54.271 116.941 54.271 117.131C54.271 117.299 54.2506 117.468 54.2506 117.679C54.2302 117.889 54.169 118.121 54.0874 118.353C53.9445 118.774 53.7813 119.217 53.6181 119.68C53.4549 120.143 53.2712 120.628 53.108 121.134C52.9448 121.639 52.7612 122.145 52.5979 122.651C52.4347 123.177 52.2715 123.683 52.1083 124.21C52.4347 124.146 52.7408 124.104 53.0468 124.083C53.3529 124.062 53.5773 124.041 53.7405 124.041C53.8017 124.041 53.8833 124.02 53.9445 124.02C54.0058 124.02 54.067 124.02 54.1078 124.02C54.3118 124.02 54.475 124.041 54.5974 124.083C54.7199 124.125 54.8219 124.188 54.8831 124.252C54.9443 124.336 55.0055 124.42 55.0259 124.526C55.0463 124.631 55.0667 124.736 55.0667 124.863C55.0667 124.989 55.0463 125.115 54.9851 125.2C54.9239 125.284 54.8423 125.368 54.7607 125.41C54.679 125.474 54.577 125.495 54.475 125.537C54.373 125.558 54.271 125.579 54.1894 125.579C54.0058 125.6 53.8833 125.621 53.8017 125.621C53.7201 125.621 53.6589 125.642 53.6385 125.642C53.5977 125.642 53.5773 125.642 53.5773 125.642C53.5773 125.642 53.5365 125.642 53.4957 125.642C53.4549 125.642 53.3937 125.663 53.2917 125.663C53.1896 125.684 53.0468 125.684 52.8428 125.705C52.6184 125.747 52.3939 125.79 52.1695 125.811C51.9451 125.853 51.741 125.874 51.5166 125.916C51.4146 126.253 51.231 127.138 50.9657 128.592C50.8229 129.329 50.7617 129.961 50.7617 130.488C50.7617 130.951 50.8433 131.309 51.0473 131.583C51.231 131.857 51.537 131.983 51.9655 131.983C52.1287 131.983 52.3123 131.941 52.5367 131.836C52.7612 131.731 53.0264 131.583 53.312 131.372C53.5977 131.162 53.9241 130.888 54.2914 130.551C54.6586 130.214 55.0463 129.813 55.4952 129.35C55.5156 129.392 55.5564 129.497 55.6176 129.645C55.6788 129.771 55.74 129.961 55.842 130.235C55.944 130.488 56.0664 130.846 56.2297 131.309C55.74 131.794 55.2503 132.236 54.7811 132.615C54.2914 132.995 53.8221 133.311 53.3529 133.563C52.8836 133.816 52.4551 134.006 52.0267 134.132C51.5982 134.259 51.2106 134.322 50.8637 134.322C50.4556 134.322 50.0884 134.238 49.7415 134.09C49.3947 133.943 49.0887 133.732 48.8438 133.437C48.599 133.163 48.395 132.805 48.2317 132.405C48.0889 131.983 48.0073 131.52 48.0073 130.993C48.0073 130.804 48.0277 130.551 48.0685 130.235C48.1093 129.94 48.1705 129.582 48.2317 129.203C48.3133 128.823 48.395 128.339 48.5174 127.791C48.6194 127.243 48.7418 126.695 48.8846 126.19C48.0073 126.295 47.1708 126.379 46.3751 126.464C45.5794 126.548 44.7836 126.632 43.9879 126.717C43.8043 127.285 43.6207 127.875 43.4371 128.465C43.2534 129.055 43.0902 129.582 42.927 130.066C42.7638 130.551 42.6209 130.993 42.4781 131.394C42.3353 131.794 42.2129 132.11 42.1313 132.363C41.6824 133.226 41.3764 133.753 41.1723 133.901C40.8663 134.174 40.6011 134.301 40.3562 134.301C40.193 134.301 40.0502 134.28 39.9074 134.238C39.7645 134.196 39.6217 134.111 39.5197 134.027C39.3973 133.943 39.3157 133.816 39.2341 133.69C39.1729 133.563 39.132 133.416 39.132 133.269C39.132 133.163 39.1524 133.058 39.1729 132.974C39.3973 131.899 39.7033 130.867 40.091 129.877C40.4582 128.844 40.7847 127.875 41.0703 126.948C40.7235 126.948 40.3766 126.927 40.0502 126.864C39.7237 126.801 39.4177 126.695 39.1524 126.548C38.8668 126.401 38.622 126.19 38.4179 125.937C38.1935 125.684 38.0303 125.347 37.8875 124.947C37.8671 124.82 37.8467 124.715 37.8263 124.61C37.8059 124.504 37.8059 124.42 37.8059 124.315C37.8059 124.104 37.9079 123.999 38.1119 123.999C38.2343 123.999 38.3771 124.062 38.52 124.167C38.6628 124.294 38.8668 124.483 39.0912 124.736C39.3973 124.715 39.7033 124.715 40.0094 124.715C40.3154 124.715 40.6419 124.715 40.9887 124.715H41.9272C42.1517 124.104 42.3761 123.493 42.6005 122.924C42.8658 122.187 43.0494 121.618 43.1922 121.218C43.2942 120.86 43.3962 120.502 43.4575 120.165C43.5187 119.806 43.5595 119.469 43.5595 119.153C43.5595 118.9 43.5391 118.648 43.4983 118.437C43.4575 118.226 43.3758 118.037 43.2738 117.868C43.1718 117.721 43.0494 117.594 42.8862 117.51C42.723 117.426 42.5189 117.384 42.2945 117.384C42.1109 117.384 41.8864 117.426 41.6212 117.489C41.3764 117.552 41.0907 117.658 40.7847 117.805C40.4786 117.952 40.1522 118.142 39.7849 118.395C39.4177 118.648 39.03 118.943 38.6016 119.301C38.4588 119.427 38.3159 119.511 38.1935 119.575C38.0711 119.638 37.9487 119.659 37.8467 119.659C37.7855 119.659 37.7651 119.575 37.7242 119.385C37.7038 119.217 37.6834 118.985 37.6834 118.732C37.6834 118.374 37.7651 118.058 37.9283 117.742C38.0915 117.426 38.2955 117.131 38.5608 116.878C38.826 116.604 39.132 116.372 39.4789 116.162C39.8257 115.951 40.1726 115.761 40.5398 115.614C40.9071 115.466 41.2743 115.34 41.6212 115.277C41.8252 115.172 42.1517 115.129 42.4577 115.129ZM42.4577 114.329C42.0905 114.329 41.7028 114.371 41.2948 114.476C40.8867 114.561 40.4786 114.687 40.0706 114.856C39.6625 115.024 39.2749 115.235 38.8872 115.466C38.4996 115.719 38.1323 115.993 37.8263 116.288C37.4998 116.604 37.2346 116.962 37.0305 117.363C36.8061 117.784 36.7041 118.247 36.7041 118.732C36.7041 119.027 36.7245 119.28 36.7449 119.511C36.8673 120.396 37.459 120.459 37.6426 120.459C37.8467 120.459 38.0711 120.417 38.2955 120.312C38.4996 120.228 38.6832 120.101 38.9076 119.912C39.3157 119.575 39.6829 119.28 40.0094 119.069C40.3358 118.837 40.6419 118.669 40.9275 118.521C41.1927 118.395 41.4172 118.311 41.6212 118.247C41.8048 118.205 41.968 118.163 42.0905 118.163C42.2333 118.163 42.2945 118.184 42.3353 118.205C42.3761 118.226 42.4169 118.268 42.4373 118.311C42.4781 118.374 42.5189 118.479 42.5393 118.584C42.5801 118.753 42.5801 118.943 42.5801 119.132C42.5801 119.406 42.5597 119.68 42.4985 119.996C42.4373 120.312 42.3557 120.628 42.2537 120.965C42.1313 121.344 41.9476 121.892 41.6824 122.629C41.5396 123.03 41.3764 123.472 41.2131 123.893H40.8255C40.4786 123.893 40.1318 123.893 39.8257 123.893C39.6421 123.893 39.4585 123.894 39.2545 123.915C39.0912 123.746 38.9688 123.62 38.8464 123.535C38.5608 123.304 38.2547 123.198 37.9691 123.198C37.3366 123.198 36.8877 123.662 36.8877 124.336C36.8877 124.483 36.9081 124.61 36.9285 124.757C36.9489 124.863 36.9693 124.968 36.9897 125.115L37.0101 125.179L37.0305 125.242C37.2142 125.726 37.4386 126.148 37.7038 126.485C37.9895 126.822 38.3159 127.096 38.6832 127.285C39.03 127.475 39.3973 127.601 39.8053 127.665C39.8461 127.665 39.887 127.686 39.9278 127.686C39.7237 128.318 39.5197 128.95 39.2749 129.603C38.8872 130.614 38.5608 131.688 38.3159 132.784C38.2751 132.953 38.2547 133.1 38.2547 133.269C38.2547 133.563 38.3159 133.837 38.4588 134.09C38.5812 134.322 38.7444 134.512 38.9484 134.659C39.132 134.806 39.3565 134.912 39.5809 134.996C39.8053 135.059 40.0298 135.101 40.2746 135.101C40.7031 135.101 41.1315 134.912 41.6008 134.512C41.8048 134.343 42.0905 133.985 42.7434 132.721L42.7638 132.679L42.7842 132.637C42.8862 132.384 42.9882 132.068 43.1514 131.625C43.2942 131.225 43.4371 130.783 43.6003 130.298C43.7635 129.813 43.9471 129.266 44.1308 128.676C44.2532 128.254 44.396 127.833 44.5184 127.454C45.1305 127.391 45.763 127.328 46.3955 127.264C46.8443 127.222 47.3136 127.159 47.8033 127.117C47.7625 127.285 47.7217 127.454 47.7013 127.622C47.5992 128.107 47.4972 128.634 47.4156 129.034C47.334 129.434 47.2728 129.792 47.232 130.108C47.1912 130.424 47.1708 130.719 47.1708 130.951C47.1708 131.583 47.2524 132.152 47.436 132.637C47.6196 133.142 47.8645 133.585 48.1909 133.943C48.5174 134.322 48.9254 134.596 49.3743 134.785C49.8232 134.975 50.2924 135.059 50.8025 135.059C51.231 135.059 51.6798 134.996 52.1899 134.828C52.6592 134.68 53.1488 134.469 53.6589 134.196C54.1486 133.922 54.6586 133.585 55.1891 133.184C55.6992 132.784 56.2297 132.321 56.7397 131.815L57.107 131.436L56.9234 130.951L56.903 130.93C56.7397 130.488 56.6173 130.151 56.5153 129.898C56.4337 129.645 56.3521 129.434 56.2909 129.287C56.2093 129.097 56.1889 129.013 56.1481 128.95L55.6584 127.938L54.8831 128.739C54.4342 129.203 54.067 129.582 53.7201 129.898C53.3937 130.214 53.0876 130.467 52.8224 130.656C52.5775 130.825 52.3735 130.951 52.1899 131.035C52.0063 131.12 51.9247 131.12 51.9043 131.12C51.741 131.12 51.639 131.099 51.6186 131.056C51.537 130.93 51.4962 130.719 51.4962 130.446C51.4962 129.961 51.5574 129.371 51.6798 128.697C51.8839 127.622 52.0063 126.969 52.0879 126.59C52.1287 126.59 52.1899 126.569 52.2307 126.569C52.4347 126.548 52.6592 126.506 52.904 126.464L53.0468 126.443C53.1488 126.422 53.2508 126.422 53.312 126.422H53.3529C53.4345 126.422 53.4957 126.401 53.5365 126.401H53.5569H53.5773C53.5977 126.401 53.5977 126.401 53.6181 126.401H53.6385C53.6589 126.401 53.6997 126.401 53.7405 126.379H53.8221H53.9037C53.9854 126.379 54.067 126.358 54.1894 126.358C54.3118 126.358 54.4342 126.337 54.577 126.295C54.7607 126.253 54.9443 126.19 55.1075 126.085C55.2911 125.979 55.4544 125.811 55.5768 125.642C55.74 125.41 55.8012 125.136 55.8012 124.842C55.8012 124.652 55.7808 124.462 55.74 124.294C55.6788 124.062 55.5564 123.851 55.3931 123.683C55.2299 123.514 55.0259 123.388 54.7811 123.304C54.577 123.24 54.3322 123.198 54.0466 123.198H54.067H54.0466C53.9853 123.198 53.9241 123.198 53.8425 123.219C53.7813 123.219 53.6997 123.219 53.6385 123.24L53.3733 123.261L53.21 123.283C53.2508 123.156 53.2916 123.051 53.3325 122.945C53.5161 122.377 53.6997 121.829 53.8425 121.429C54.0058 120.944 54.1894 120.459 54.3526 119.996L54.5974 119.301L54.8219 118.69C54.9239 118.395 54.9851 118.1 55.0259 117.826C55.0463 117.573 55.0667 117.363 55.0667 117.194C55.0667 116.92 55.0259 116.646 54.9239 116.415C54.8219 116.162 54.6586 115.951 54.4546 115.783C54.271 115.635 54.067 115.53 53.8425 115.445C53.6385 115.382 53.4141 115.361 53.21 115.361C52.6796 115.361 52.1899 115.551 51.8022 115.909C51.4554 116.204 51.1902 116.625 50.9861 117.11C50.5169 118.268 50.068 119.469 49.6803 120.691L49.5987 120.965C49.3131 121.871 49.0274 122.777 48.7418 123.62C48.0889 123.662 47.436 123.704 46.7831 123.725C46.3955 123.746 46.0282 123.767 45.661 123.788C45.7222 123.556 45.7834 123.325 45.8446 123.114C46.0078 122.524 46.1506 121.955 46.2731 121.429C46.3955 120.902 46.4975 120.396 46.5587 119.954C46.6403 119.469 46.6811 119.069 46.6811 118.732C46.6811 117.995 46.5587 117.342 46.3343 116.794C46.1098 116.225 45.7834 115.761 45.3753 115.403C44.9673 115.045 44.5184 114.792 43.9879 114.624C43.4983 114.413 42.9678 114.329 42.4577 114.329Z" fill="white"/>
<path d="M114.828 114.603C115.502 114.603 116.134 114.709 116.705 114.898C117.277 115.109 117.766 115.383 118.175 115.741C118.583 116.099 118.909 116.52 119.133 117.005C119.358 117.49 119.48 118.016 119.48 118.585C119.48 118.985 119.419 119.365 119.317 119.744C119.215 120.123 118.991 120.565 118.685 121.071C118.379 121.577 118.072 121.935 117.766 122.124C117.481 122.314 117.134 122.398 116.767 122.398C116.195 122.398 115.849 122.251 115.685 121.977C115.42 121.535 115.338 121.134 115.441 120.797C115.481 120.608 115.583 120.186 115.747 119.512C115.767 119.428 115.767 119.217 115.767 118.901C115.767 118.627 115.747 118.395 115.685 118.206C115.624 118.016 115.502 117.932 115.318 117.932C114.869 117.932 114.482 118.037 114.155 118.269C113.829 118.501 113.563 118.796 113.339 119.154C113.115 119.512 112.89 120.018 112.666 120.692C112.441 121.345 112.278 121.914 112.196 122.356C112.094 122.799 112.054 123.241 112.013 123.641C111.992 124.042 111.972 124.4 111.972 124.674C111.972 125.095 112.013 125.516 112.074 125.959C112.156 126.401 112.298 126.822 112.503 127.202C112.727 127.581 112.992 127.876 113.339 128.129C113.686 128.381 114.135 128.508 114.665 128.508C115.196 128.508 115.787 128.339 116.44 128.002C117.093 127.665 117.726 127.244 118.379 126.717C119.031 126.19 119.644 125.622 120.235 125.011C120.827 124.4 121.337 123.81 121.745 123.262L122.888 125.263C122.051 126.485 121.153 127.581 120.174 128.55C119.766 128.971 119.317 129.372 118.827 129.751C118.338 130.151 117.828 130.488 117.318 130.804C116.787 131.099 116.236 131.352 115.665 131.542C115.094 131.731 114.502 131.837 113.931 131.837C112.89 131.837 111.992 131.647 111.217 131.247C110.442 130.846 109.789 130.341 109.258 129.688C108.728 129.035 108.34 128.276 108.075 127.412C107.81 126.549 107.667 125.664 107.667 124.716C107.667 124.042 107.769 123.241 107.993 122.314C108.218 121.387 108.463 120.565 108.728 119.87C108.993 119.175 109.32 118.501 109.707 117.869C110.095 117.237 110.544 116.689 111.054 116.204C111.564 115.72 112.135 115.341 112.747 115.067C113.4 114.751 114.074 114.603 114.828 114.603ZM114.828 113.803C113.972 113.803 113.176 113.971 112.462 114.287C111.768 114.603 111.115 115.025 110.544 115.572C109.993 116.099 109.483 116.71 109.075 117.405C108.667 118.079 108.32 118.796 108.034 119.533C107.769 120.249 107.504 121.113 107.279 122.061C107.035 123.051 106.912 123.915 106.912 124.653C106.912 125.664 107.055 126.654 107.361 127.581C107.667 128.529 108.116 129.393 108.687 130.13C109.279 130.867 110.034 131.478 110.911 131.9C111.788 132.342 112.829 132.574 113.972 132.574C114.645 132.574 115.298 132.469 115.951 132.258C116.563 132.047 117.175 131.773 117.746 131.457C118.317 131.141 118.848 130.762 119.358 130.341C119.868 129.94 120.337 129.519 120.766 129.077C121.765 128.087 122.704 126.928 123.561 125.664L123.847 125.242L123.581 124.8L122.439 122.799L121.867 121.787L121.153 122.714C120.745 123.241 120.256 123.81 119.684 124.4C119.113 124.99 118.521 125.537 117.909 126.022C117.297 126.506 116.685 126.907 116.093 127.223C115.563 127.497 115.094 127.644 114.686 127.644C114.318 127.644 114.012 127.56 113.808 127.412C113.563 127.223 113.359 127.012 113.196 126.738C113.033 126.464 112.911 126.127 112.87 125.79C112.809 125.39 112.768 124.99 112.768 124.631C112.768 124.379 112.788 124.042 112.809 123.641C112.829 123.283 112.89 122.883 112.972 122.483C113.053 122.061 113.217 121.535 113.421 120.902C113.625 120.313 113.829 119.849 114.012 119.554C114.176 119.28 114.38 119.07 114.624 118.901C114.747 118.817 114.869 118.775 115.012 118.733C115.012 118.775 115.012 118.817 115.012 118.859V118.88V118.901C115.012 119.175 115.012 119.28 115.012 119.322C114.849 119.954 114.767 120.376 114.706 120.586C114.563 121.155 114.665 121.745 115.053 122.377C115.359 122.925 115.951 123.199 116.808 123.199C117.318 123.199 117.807 123.072 118.215 122.799C118.623 122.546 119.011 122.124 119.378 121.492C119.725 120.902 119.97 120.418 120.092 119.954C120.215 119.512 120.296 119.027 120.296 118.564C120.296 117.89 120.154 117.237 119.868 116.626C119.582 116.036 119.195 115.53 118.705 115.088C118.215 114.666 117.644 114.329 116.971 114.098C116.297 113.908 115.583 113.803 114.828 113.803Z" fill="white"/>
<path d="M68.2273 20.8341L0 50.3286L1.20377 48.2219L65.9217 20.2231L68.2273 20.8341Z" fill="white"/>
<path d="M93.7725 20.8351L162 50.3296L160.775 48.2229L96.078 20.2241L93.7725 20.8351Z" fill="white"/>
<path d="M22.2607 18.6411C22.2811 18.9992 22.4443 19.884 22.7504 21.3377C22.8932 22.054 23.0768 22.665 23.2808 23.1706C23.4645 23.5919 23.6685 23.8869 23.9337 24.0554C24.199 24.224 24.5254 24.224 24.9335 24.0554C25.0763 23.9922 25.2395 23.8658 25.4231 23.6762C25.5864 23.4866 25.77 23.2548 25.974 22.9388C26.1576 22.6228 26.3617 22.2436 26.5657 21.8012C26.7697 21.3588 26.9942 20.8321 27.2186 20.2211C27.2594 20.2422 27.3206 20.3265 27.443 20.4318C27.545 20.5371 27.6879 20.6846 27.8715 20.8953C28.0551 21.106 28.3203 21.3798 28.6468 21.738C28.3815 22.3911 28.0959 22.981 27.7899 23.5077C27.4838 24.0554 27.1574 24.5189 26.8309 24.9402C26.5045 25.3616 26.1576 25.6987 25.8108 25.9936C25.4639 26.2886 25.1375 26.4992 24.811 26.6467C24.4438 26.8153 24.0561 26.8995 23.6889 26.8995C23.3216 26.8995 22.9544 26.8153 22.6075 26.6678C22.2607 26.4992 21.9546 26.2675 21.669 25.9515C21.3834 25.6355 21.1385 25.2352 20.9345 24.7506C20.8529 24.561 20.7917 24.3293 20.7101 24.0343C20.6285 23.7394 20.5468 23.4023 20.4856 23.0231C20.404 22.6439 20.3224 22.1593 20.2204 21.6116C20.1184 21.0428 20.0368 20.5161 19.9552 19.9894C19.1798 20.4318 18.4453 20.8531 17.7516 21.2324C17.0375 21.6326 16.3438 22.0119 15.6501 22.4121C15.691 23.0231 15.7522 23.613 15.793 24.224C15.8542 24.8349 15.895 25.4037 15.9154 25.9094C15.9358 26.415 15.9766 26.8785 15.997 27.2998C16.0174 27.7212 16.0378 28.0793 16.0378 28.3321C15.9562 29.3223 15.8542 29.9122 15.7318 30.1439C15.5481 30.5021 15.3441 30.7338 15.1401 30.8392C14.9973 30.9024 14.8544 30.9445 14.6912 30.9445C14.528 30.9656 14.3852 30.9445 14.2424 30.9024C14.0995 30.8602 13.9771 30.797 13.8751 30.7127C13.7731 30.6285 13.6711 30.5021 13.6303 30.3546C13.5895 30.2493 13.5691 30.165 13.5487 30.0597C13.365 28.9852 13.263 27.9108 13.2426 26.8363C13.2018 25.7408 13.1406 24.7085 13.0386 23.7394C12.7121 23.8869 12.3857 23.9922 12.0592 24.0554C11.7328 24.1397 11.4268 24.1607 11.1003 24.1397C10.7943 24.1186 10.4882 24.0343 10.1822 23.8658C9.87614 23.7183 9.59049 23.4866 9.32526 23.1706C9.26405 23.0652 9.20284 22.9599 9.14163 22.8756C9.08042 22.7914 9.03962 22.7071 9.01921 22.6228C8.9376 22.4332 8.99881 22.2857 9.18244 22.2015C9.30485 22.1593 9.44767 22.1593 9.6313 22.2015C9.81493 22.2436 10.0598 22.3489 10.3658 22.4964C10.631 22.37 10.9167 22.2225 11.2023 22.0961C11.488 21.9697 11.7736 21.8433 12.1 21.6958L12.957 21.3166C12.9366 20.6425 12.9162 20.0104 12.8958 19.3995C12.855 18.5989 12.8346 18.009 12.7937 17.5877C12.7529 17.2085 12.7121 16.8503 12.6305 16.5132C12.5489 16.1551 12.4673 15.8391 12.3449 15.5441C12.2429 15.3124 12.1409 15.1017 12.0184 14.9121C11.896 14.7225 11.7532 14.575 11.6104 14.4908C11.4676 14.3854 11.2839 14.3222 11.1207 14.3222C10.8147 14.3433 10.6106 14.3854 10.4066 14.4908C10.223 14.575 10.0394 14.6804 9.83533 14.8489C9.6313 15.0174 9.40687 15.2281 9.18244 15.4809C8.95801 15.7337 8.71317 16.0498 8.46834 16.429C8.2235 16.8082 7.97867 17.2295 7.71343 17.7352C7.63182 17.9037 7.5298 18.0512 7.42779 18.1565C7.32578 18.2618 7.24416 18.325 7.14215 18.3672C7.10134 18.3882 7.01973 18.325 6.93812 18.1776C6.85651 18.0301 6.75449 17.8194 6.65248 17.5877C6.53006 17.2717 6.46885 16.9346 6.50966 16.5764C6.53006 16.2183 6.63208 15.8812 6.7749 15.5231C6.91772 15.1649 7.12175 14.8278 7.34618 14.4908C7.59101 14.1537 7.83585 13.8377 8.12149 13.5638C8.40713 13.2899 8.69277 13.0371 8.99881 12.8054C9.30485 12.5947 9.5905 12.4261 9.87614 12.2997C10.2842 12.1101 10.7127 12.0048 11.1411 11.9627C11.5696 11.9205 11.9776 11.9627 12.3653 12.0891C12.7529 12.2155 13.1202 12.4683 13.467 12.8054C13.8139 13.1424 14.0995 13.6059 14.324 14.1958C14.4464 14.4697 14.5484 14.8278 14.63 15.2492C14.732 15.6705 14.8136 16.1551 14.8952 16.6818C14.9769 17.2085 15.0585 17.7773 15.1197 18.3672C15.1809 18.9781 15.2625 19.5891 15.3033 20.2211C15.895 19.9051 16.5683 19.568 17.3232 19.1888C18.0781 18.8096 18.8126 18.4304 19.5675 18.0722C19.4859 16.9135 19.3839 15.7127 19.3023 14.4486C19.2003 13.1846 19.1594 11.9416 19.1594 10.6986C19.1594 10.2773 19.2411 9.91911 19.3839 9.62416C19.5267 9.30815 19.7715 9.09747 20.0776 8.95C20.2 8.8868 20.3428 8.86573 20.4856 8.84466C20.6285 8.8236 20.7509 8.84466 20.8733 8.86573C20.9957 8.90787 21.1181 8.97107 21.1997 9.07641C21.3017 9.18174 21.3834 9.30815 21.4446 9.45562C21.5058 9.60309 21.567 9.77164 21.6282 9.98231C21.6894 10.193 21.7302 10.4247 21.7302 10.6775C21.7506 11.12 21.771 11.5834 21.7914 12.0891C21.8118 12.5947 21.8322 13.1003 21.873 13.627C21.8934 14.1537 21.9342 14.7014 21.975 15.2492C22.0158 15.7969 22.0567 16.3447 22.0975 16.8714C22.3627 16.7028 22.6483 16.5343 22.9136 16.3868C23.1788 16.2394 23.3828 16.134 23.5257 16.0708C23.5869 16.0287 23.6481 16.0076 23.7093 15.9866C23.7705 15.9655 23.8113 15.9233 23.8725 15.9023C24.0561 15.818 24.2194 15.7759 24.3418 15.7548C24.4642 15.7337 24.5866 15.7548 24.6682 15.7969C24.7702 15.8391 24.8314 15.9023 24.8927 15.9866C24.9539 16.0708 25.0151 16.1762 25.0559 16.2815C25.0967 16.4079 25.1171 16.5132 25.0967 16.6396C25.0763 16.745 25.0355 16.8503 24.9743 16.9346C24.9131 17.0189 24.8314 17.1031 24.7498 17.1663C24.6682 17.2295 24.5866 17.2717 24.505 17.3138C24.3418 17.3981 24.2398 17.4613 24.1582 17.5034C24.0969 17.5455 24.0357 17.5666 24.0153 17.5877C23.9745 17.6088 23.9541 17.6088 23.9541 17.6298C23.9541 17.6298 23.9337 17.6509 23.8929 17.672C23.8521 17.693 23.7909 17.7141 23.7093 17.7773C23.6277 17.8194 23.4849 17.9037 23.3216 17.988C23.1176 18.1144 22.934 18.2408 22.7504 18.3672C22.6279 18.4093 22.4443 18.5357 22.2607 18.6411Z" fill="white"/>
<path d="M37.8069 17.2937C37.7457 17.5465 37.6641 17.8625 37.5417 18.2417C37.4193 18.5998 37.2764 18.9791 37.0724 19.3372C36.8888 19.6954 36.6643 20.0324 36.3991 20.3484C36.1339 20.6645 35.8482 20.8751 35.5218 21.0226C35.1341 21.1911 34.7465 21.2122 34.3792 21.0647C34.012 20.9173 33.6243 20.6434 33.2367 20.222C33.1551 20.4538 33.053 20.7066 32.9102 20.9805C32.7674 21.2543 32.6042 21.5072 32.4206 21.76C32.2369 22.0128 32.0125 22.2445 31.7881 22.4552C31.5636 22.6659 31.2984 22.8344 31.0332 22.9398C30.7475 23.0662 30.4415 23.1294 30.115 23.1294C29.7886 23.1294 29.4825 23.0451 29.1765 22.9187C28.8705 22.7923 28.6052 22.5816 28.34 22.3077C28.0747 22.0338 27.8707 21.6968 27.7075 21.2754C27.5239 20.8119 27.4014 20.3063 27.3198 19.7796C27.2586 19.2319 27.2382 18.642 27.2586 17.9468C27.2994 17.2726 27.381 16.6616 27.5239 16.1139C27.6667 15.5661 27.8503 15.0605 28.0747 14.6181C28.3196 14.1546 28.5848 13.7543 28.9113 13.3962C29.2377 13.038 29.605 12.7852 30.013 12.5956C30.1558 12.5324 30.2782 12.5113 30.3803 12.5324C30.4823 12.5535 30.5639 12.5956 30.6455 12.6377C30.7271 12.6799 30.8087 12.7431 30.8699 12.7852C30.9515 12.8273 31.0332 12.8484 31.1148 12.8484C31.1964 12.8484 31.278 12.8273 31.3596 12.8063C31.4412 12.7852 31.5228 12.7641 31.6044 12.722C31.6656 12.7009 31.7473 12.6588 31.8085 12.6377C31.8697 12.5956 31.9513 12.5745 32.0125 12.5535C32.0941 12.5113 32.1961 12.4903 32.2777 12.4692C32.3593 12.4481 32.441 12.4692 32.543 12.5113C32.6246 12.5535 32.7062 12.6167 32.7878 12.722C32.8694 12.8274 32.951 12.9748 33.0326 13.1644C33.1551 13.4594 33.2571 13.7965 33.3387 14.1757C33.4203 14.5549 33.5019 14.9552 33.5835 15.3765C33.6651 15.7768 33.7467 16.2614 33.8488 16.767C33.9508 17.2937 34.0528 17.715 34.1956 18.0521C34.318 18.326 34.42 18.5366 34.5425 18.6841C34.6649 18.8316 34.8077 18.8527 34.9709 18.7895C35.0933 18.7262 35.2157 18.642 35.3178 18.5156C35.4198 18.3892 35.5422 18.2417 35.6238 18.0942C35.7054 17.9468 35.8074 17.7571 35.9094 17.5675C35.9911 17.3779 36.0727 17.1883 36.1339 16.9776C36.2971 16.5142 36.4399 16.0296 36.5623 15.4819L37.8069 17.2937ZM29.8498 19.885C29.911 20.0535 29.9926 20.201 30.0742 20.3274C30.1558 20.4749 30.2374 20.5802 30.3395 20.6855C30.4415 20.7698 30.5435 20.8541 30.6659 20.8751C30.7883 20.9173 30.9107 20.8962 31.0536 20.833C31.278 20.7277 31.4412 20.5591 31.5228 20.2852C31.6248 20.0114 31.686 19.6954 31.7065 19.3583C31.7269 19.0212 31.7065 18.6841 31.6656 18.347C31.6248 18.01 31.584 17.7361 31.5228 17.5254L30.9719 14.2389C30.7271 14.3442 30.5231 14.5127 30.3395 14.7445C30.1558 14.9762 30.013 15.229 29.8906 15.5451C29.7682 15.84 29.6866 16.1771 29.6254 16.5142C29.5642 16.8723 29.5233 17.2726 29.5233 17.7571C29.5233 18.2417 29.5437 18.642 29.605 18.9791C29.6662 19.3161 29.7478 19.6322 29.8498 19.885Z" fill="white"/>
<path d="M41.0501 16.4924C41.6418 16.2396 42.1723 15.9446 42.6211 15.6076C43.07 15.2705 43.4577 14.9123 43.7637 14.5331C44.0902 14.1539 44.3554 13.7536 44.5594 13.3533C44.7839 12.932 44.9471 12.5317 45.0899 12.1103L46.0284 14.1118C45.9468 14.4488 45.804 14.807 45.6408 15.1651C45.4572 15.5233 45.2531 15.8604 45.0083 16.1764C44.7635 16.4924 44.4778 16.7873 44.1718 17.0401C43.8657 17.293 43.5393 17.5036 43.1924 17.6511C43.1516 17.6722 43.0904 17.6932 43.0292 17.6932C42.968 17.7143 42.8456 17.7354 42.6824 17.7564C42.5191 17.7986 42.2743 17.8407 41.9683 17.9039C41.6622 17.9671 41.2338 18.0725 40.7237 18.1989L40.7849 18.3674C41.2338 19.484 41.5602 20.5584 41.7438 21.5486C41.9275 22.5388 41.9887 23.4447 41.9479 24.2242C41.9071 25.0037 41.7438 25.6568 41.4786 26.1835C41.2134 26.7101 40.8665 27.0683 40.438 27.2579C40.0912 27.4054 39.7851 27.4475 39.4791 27.3632C39.1731 27.279 38.9078 27.1315 38.663 26.8998C38.4182 26.668 38.1733 26.352 37.9489 25.9938C37.7245 25.6146 37.5408 25.2143 37.3572 24.7719C37.2552 24.5191 37.1736 24.2031 37.1124 23.866C37.0512 23.5079 37.0308 23.1287 37.0104 22.7284C36.99 22.3281 37.0104 21.9067 37.0104 21.4643C37.0308 21.0219 37.0512 20.6006 37.092 20.1792C37.1736 19.2101 37.296 18.1778 37.4796 17.1034C37.3572 16.6188 37.2348 16.1132 37.1124 15.5865C36.99 15.0598 36.8675 14.5542 36.7859 14.0275C36.7043 13.5008 36.6635 12.953 36.6839 12.3421C36.7043 11.7311 36.7655 11.2044 36.8879 10.7831C37.0104 10.3617 37.2144 9.98253 37.5 9.64545C37.7857 9.30837 38.1733 9.03449 38.663 8.82381C39.0302 8.67634 39.3771 8.571 39.7443 8.52887C40.0912 8.48673 40.438 8.54994 40.7849 8.67634C41.1113 8.80275 41.4174 9.01342 41.703 9.32943C41.9887 9.62438 42.2335 10.0457 42.4579 10.5724C42.6824 11.1412 42.8048 11.6047 42.8048 11.9629C42.8252 12.5106 42.7436 13.0163 42.6007 13.4797C42.4579 13.9432 42.2539 14.4067 41.9887 14.8913C41.7234 15.3547 41.3766 15.8393 40.9277 16.3028L41.0501 16.4924ZM39.071 24.2031C39.0915 24.2452 39.1323 24.3295 39.1935 24.4349C39.2547 24.5402 39.3363 24.6245 39.4383 24.7298C39.5403 24.8141 39.6423 24.8983 39.7443 24.9405C39.8464 24.9826 39.9688 25.0037 40.0912 24.9405C40.1932 24.8983 40.2544 24.8141 40.2748 24.6666C40.2952 24.5191 40.2952 24.3506 40.2544 24.1399C40.2136 23.9292 40.1524 23.6975 40.0912 23.4657C40.0096 23.2129 39.928 22.9601 39.826 22.7073C39.7443 22.4545 39.6423 22.2017 39.5403 21.97C39.4383 21.7382 39.3771 21.5065 39.2955 21.3169C39.1731 20.9798 39.071 20.6848 38.9894 20.4531C38.9078 20.2213 38.8262 20.0317 38.7854 19.8632C38.7242 19.6947 38.663 19.5472 38.6222 19.3997C38.5814 19.6525 38.5814 19.9264 38.5814 20.2424C38.5814 20.5584 38.6018 20.8744 38.6222 21.2115C38.6426 21.5486 38.6834 21.8646 38.7242 22.1806C38.765 22.4966 38.8058 22.7916 38.8466 23.0655C38.8874 23.3393 38.9282 23.5711 38.969 23.7607C39.0098 23.9714 39.0506 24.1188 39.071 24.2031ZM39.5607 16.0921C39.8464 15.755 40.0708 15.4179 40.2544 15.0809C40.4176 14.7438 40.5401 14.4278 40.6217 14.0907C40.7033 14.0486 40.7645 13.6904 40.8461 13.0373C40.8665 12.4896 40.8461 12.0893 40.7849 11.8154C40.7645 11.6679 40.7237 11.4994 40.6625 11.3308C40.6013 11.1412 40.5197 10.9938 40.4176 10.8674C40.3156 10.741 40.1728 10.6356 40.03 10.5724C39.8668 10.5092 39.7035 10.5303 39.4995 10.6146C39.2751 10.7199 39.1119 10.8463 38.9894 11.057C38.867 11.2466 38.7854 11.4783 38.765 11.7311C38.7242 11.9839 38.7242 12.2789 38.765 12.5949C38.8058 12.9109 38.8466 13.3112 38.9078 13.7747C38.969 14.2382 39.0506 14.6595 39.1731 15.0177C39.2751 15.3758 39.4179 15.734 39.5607 16.0921Z" fill="white"/>
<path d="M48.763 13.1635C49.3547 12.9107 49.8852 12.6158 50.334 12.2787C50.7829 11.9416 51.1706 11.5835 51.4766 11.2043C51.8031 10.825 52.0683 10.4248 52.2723 10.0245C52.4968 9.60312 52.66 9.20284 52.8028 8.78149L53.7413 10.7829C53.6597 11.12 53.5169 11.4781 53.3537 11.8363C53.17 12.1944 52.966 12.5315 52.7212 12.8475C52.4763 13.1635 52.1907 13.4585 51.8847 13.7113C51.5786 13.9641 51.2522 14.1748 50.9053 14.3222C50.8645 14.3433 50.8033 14.3644 50.7421 14.3644C50.6809 14.3854 50.5585 14.4065 50.3953 14.4276C50.232 14.4697 49.9872 14.5118 49.6812 14.5751C49.3751 14.6383 48.9466 14.7436 48.4366 14.87L48.4978 15.0385C48.9466 16.1551 49.2731 17.2296 49.4567 18.2197C49.6403 19.2099 49.7016 20.1158 49.6607 20.8953C49.6199 21.6748 49.4567 22.3279 49.1915 22.8546C48.9262 23.3813 48.5794 23.7394 48.1509 23.929C47.8041 24.0765 47.498 24.1186 47.192 24.0344C46.886 23.9501 46.6207 23.8026 46.3759 23.5709C46.131 23.3391 45.8862 23.0231 45.6618 22.665C45.4373 22.2858 45.2537 21.8855 45.0701 21.4431C44.9681 21.1903 44.8865 20.8742 44.8253 20.5372C44.7641 20.179 44.7436 19.7998 44.7232 19.3995C44.7028 18.9992 44.7232 18.5779 44.7232 18.1355C44.7436 17.693 44.7641 17.2717 44.8049 16.8503C44.8865 15.8812 45.0089 14.8489 45.1925 13.7745C45.0701 13.2899 44.9477 12.7843 44.8253 12.2576C44.7028 11.7309 44.5804 11.2253 44.4988 10.6986C44.4172 10.1719 44.3764 9.62419 44.3968 9.01323C44.4172 8.40227 44.4784 7.87559 44.6008 7.45424C44.7232 7.03288 44.9273 6.65367 45.2129 6.31659C45.4986 5.97951 45.8862 5.70563 46.3759 5.49496C46.7431 5.34748 47.09 5.24215 47.4572 5.20001C47.8041 5.15788 48.1509 5.22108 48.4978 5.34748C48.8242 5.47389 49.1303 5.68456 49.4159 6.00058C49.7016 6.29552 49.9464 6.71687 50.1708 7.24356C50.3953 7.81238 50.5177 8.27587 50.5177 8.63402C50.5381 9.18177 50.4565 9.68739 50.3136 10.1509C50.1708 10.6144 49.9668 11.0778 49.7016 11.5624C49.4363 12.047 49.0895 12.5104 48.6406 12.9739L48.763 13.1635ZM46.7839 20.8532C46.8043 20.8953 46.8451 20.9796 46.9064 21.0849C46.9676 21.1903 47.0492 21.2745 47.1512 21.3799C47.2532 21.4641 47.3552 21.5484 47.4572 21.5905C47.5593 21.6327 47.6817 21.6537 47.8041 21.5905C47.9061 21.5484 47.9673 21.4641 47.9877 21.3167C48.0081 21.1692 48.0081 21.0006 47.9673 20.79C47.9265 20.5793 47.8653 20.3476 47.8041 20.1158C47.7225 19.863 47.6409 19.6102 47.5388 19.3574C47.4572 19.1046 47.3552 18.8518 47.2532 18.62C47.1512 18.3883 47.09 18.1565 47.0084 17.9669C46.886 17.6298 46.7839 17.3349 46.7023 17.1032C46.6207 16.8714 46.5391 16.6818 46.4983 16.5133C46.4371 16.3447 46.3759 16.1973 46.3351 16.0498C46.2943 16.3026 46.2943 16.5765 46.2943 16.8925C46.2943 17.2085 46.3147 17.5245 46.3351 17.8616C46.3555 18.1987 46.3963 18.5147 46.4371 18.8307C46.4779 19.1467 46.5187 19.4416 46.5595 19.7155C46.6003 19.9894 46.6411 20.2211 46.6819 20.4108C46.7227 20.6425 46.7635 20.79 46.7839 20.8532ZM47.2532 12.7632C47.5388 12.4262 47.7633 12.0891 47.9469 11.752C48.1101 11.4149 48.2325 11.0989 48.3142 10.7618C48.3958 10.7197 48.457 10.3616 48.5386 9.70846C48.559 9.1607 48.5386 8.76042 48.4774 8.48654C48.457 8.33907 48.4162 8.17053 48.355 8.00199C48.2938 7.81238 48.2121 7.66491 48.1101 7.5385C48.0081 7.4121 47.8653 7.30676 47.7225 7.24356C47.5592 7.18036 47.396 7.20142 47.192 7.28569C46.9676 7.39103 46.8043 7.51744 46.6819 7.72811C46.5595 7.91772 46.4779 8.14946 46.4575 8.40227C46.4167 8.65508 46.4167 8.95003 46.4575 9.26604C46.4983 9.58205 46.5391 9.98234 46.6003 10.4458C46.6615 10.9093 46.7431 11.3307 46.8655 11.6888C46.988 12.047 47.1104 12.4051 47.2532 12.7632Z" fill="white"/>
<path d="M57.006 11.8781L56.7407 10.6772C56.5367 11.0986 56.2919 11.4988 56.0266 11.8149C55.7614 12.1309 55.4554 12.3837 55.1289 12.5312C54.8433 12.6576 54.5372 12.7208 54.2108 12.7208C53.8843 12.7208 53.5783 12.6576 53.2723 12.5101C52.9662 12.3837 52.701 12.173 52.4357 11.8991C52.1705 11.6253 51.9665 11.2882 51.8032 10.8879C51.5788 10.3612 51.4156 9.85558 51.3136 9.37103C51.2116 8.88648 51.0687 8.29659 50.9055 7.60136C50.7423 6.90613 50.6607 6.33731 50.6403 5.89489C50.6199 5.45247 50.6403 5.01006 50.6607 4.5255C50.6811 4.18842 50.8035 3.89348 50.9871 3.64067C51.1912 3.38786 51.4156 3.19825 51.64 3.09291C51.8441 3.00864 52.0481 2.98758 52.2317 3.02971C52.4153 3.07185 52.5582 3.19825 52.6602 3.42999C52.6806 3.4932 52.701 3.57747 52.7214 3.66174C52.7418 3.74601 52.7418 3.85134 52.7418 3.95668C52.7418 4.29376 52.803 4.65191 52.8846 5.07326C52.9662 5.49461 53.0886 6.06343 53.2315 6.75866C53.3743 7.45389 53.4967 8.02271 53.5783 8.42299C53.6599 8.84434 53.7619 9.18142 53.8843 9.49744C53.9456 9.64491 54.0272 9.79238 54.1088 9.93985C54.1904 10.0873 54.272 10.1927 54.374 10.2769C54.476 10.3612 54.578 10.4244 54.7005 10.4665C54.8229 10.5087 54.9453 10.4876 55.0881 10.4244C55.3125 10.3191 55.4758 10.1505 55.5574 9.87665C55.6594 9.60277 55.7206 9.28676 55.741 8.94968C55.7614 8.6126 55.741 8.27552 55.7002 7.93844C55.6594 7.60136 55.6186 7.32748 55.5574 7.11681L54.8637 3.34572C54.8229 3.13505 54.8229 2.90331 54.8841 2.69263C54.9453 2.48196 55.0269 2.29235 55.1289 2.10274C55.2513 1.91313 55.3738 1.76566 55.537 1.63926C55.6798 1.51285 55.843 1.40751 55.9858 1.34431C56.1695 1.26004 56.3531 1.23897 56.4959 1.26004C56.6591 1.28111 56.7611 1.38645 56.8428 1.57605C56.8632 1.63926 56.8836 1.70246 56.904 1.78673C56.9448 1.95527 56.9856 2.20808 57.0672 2.50302C57.1284 2.79797 57.21 3.13505 57.2916 3.51426C57.3732 3.89348 57.4957 4.42017 57.6385 5.09433C57.7813 5.76849 57.9037 6.31624 58.0057 6.73759C58.2302 7.7067 58.475 8.76007 58.7402 9.87665C58.883 9.68704 59.0259 9.47637 59.1687 9.24463C59.3115 8.99182 59.4747 8.69687 59.6176 8.31766C59.7604 7.93844 59.9236 7.49602 60.0868 6.96933C60.25 6.44265 60.3929 5.81062 60.5561 5.05219L61.8211 6.9272C61.8007 7.15894 61.7394 7.41175 61.6374 7.68563C61.5354 7.98058 61.4334 8.25445 61.311 8.52833C61.1274 8.92861 60.9845 9.22356 60.9029 9.37103C60.8825 9.41317 60.7193 9.68704 60.4745 10.1927C60.3929 10.3401 60.1276 10.8036 59.638 11.5621C59.5155 11.7517 59.4951 11.9834 59.5563 12.3205C59.6175 12.6365 59.7604 13.2053 60.0052 14.048C60.0664 14.2798 60.1072 14.4694 60.148 14.5958C60.2296 14.9118 60.3112 15.2067 60.3929 15.4806C60.4745 15.7545 60.5357 16.0916 60.5969 16.4708C60.6581 16.85 60.6785 17.2081 60.6785 17.5452C60.6785 17.8823 60.6581 18.2194 60.5765 18.5986C60.5153 18.9567 60.3929 19.2938 60.25 19.5888C60.1072 19.8837 59.9032 20.1576 59.638 20.4315C59.3727 20.6843 59.0463 20.895 58.679 21.0635C58.373 21.1899 58.0873 21.2742 57.8017 21.3163C57.5161 21.3584 57.2304 21.3584 56.9652 21.2952C56.6999 21.232 56.4347 21.1056 56.1899 20.916C55.945 20.7264 55.741 20.4525 55.5778 20.1155C55.2717 19.4834 55.1493 18.725 55.2513 17.8191C55.3125 17.3135 55.3533 16.9764 55.3738 16.7657C55.3942 16.5761 55.4554 16.2812 55.5166 15.902C55.5982 15.5227 55.6798 15.1857 55.8022 14.8486C56.0266 14.1744 56.2103 13.6477 56.3531 13.2264C56.5571 12.8261 56.7611 12.3626 57.006 11.8781ZM57.9241 14.0902C57.6385 14.5747 57.414 15.2489 57.2916 16.0916C57.1692 16.9343 57.108 17.777 57.1692 18.5775C57.21 19.2517 57.4344 19.5045 57.8221 19.336C57.9649 19.2728 58.0873 19.2096 58.1894 19.1042C58.2914 19.02 58.373 18.9146 58.4138 18.7671C58.475 18.6407 58.5158 18.4933 58.5362 18.3458C58.5566 18.1983 58.577 18.0087 58.577 17.777C58.577 17.5452 58.5566 17.2924 58.5362 17.0817C58.5158 16.85 58.4954 16.5551 58.4546 16.1758C58.4342 15.9652 58.3934 15.7545 58.3322 15.5227C58.271 15.291 58.1893 15.0171 58.1077 14.7011C58.0057 14.3851 57.9649 14.1744 57.9241 14.0902Z" fill="white"/>
<path d="M99.5038 14.108C98.9529 13.8763 98.504 13.5603 98.1776 13.16C97.8511 12.7808 97.6063 12.3383 97.4635 11.8749C97.3207 11.4114 97.2799 10.9058 97.3207 10.3791C97.3615 9.85237 97.4839 9.34675 97.6879 8.84113C97.8307 8.48299 98.0756 8.0827 98.3816 7.64029C98.7081 7.19787 99.0141 6.81865 99.2997 6.50264C99.5854 6.18663 99.9118 5.91275 100.259 5.65994C100.606 5.40713 100.973 5.21752 101.34 5.07005C101.707 4.92258 102.095 4.85938 102.503 4.85938C102.891 4.85938 103.299 4.94364 103.707 5.11218C104.074 5.25966 104.38 5.47033 104.645 5.70208C104.911 5.93382 105.115 6.2077 105.257 6.48157C105.4 6.77652 105.482 7.07146 105.502 7.38748C105.523 7.70349 105.461 8.0195 105.339 8.31445C105.257 8.52512 105.135 8.71473 104.992 8.90434C104.849 9.09394 104.645 9.26248 104.36 9.47316C104.074 9.68384 103.85 9.78917 103.646 9.81024C103.442 9.83131 103.258 9.81024 103.054 9.72597C102.748 9.59957 102.585 9.43103 102.564 9.24142C102.523 8.94647 102.564 8.71473 102.687 8.54619C102.748 8.46192 102.891 8.25124 103.115 7.93523C103.156 7.8931 103.197 7.78776 103.258 7.59815C103.319 7.45068 103.36 7.32427 103.36 7.21894C103.38 7.1136 103.319 7.02933 103.217 6.98719C102.972 6.88186 102.748 6.86079 102.523 6.90292C102.299 6.94506 102.095 7.0504 101.891 7.1768C101.687 7.32427 101.462 7.53495 101.197 7.85096C100.932 8.14591 100.728 8.41978 100.585 8.63046C100.442 8.84113 100.32 9.07288 100.218 9.28355C100.116 9.49423 100.034 9.68384 99.973 9.83131C99.8914 10.0631 99.8098 10.2948 99.7486 10.5476C99.6874 10.8004 99.6874 11.0532 99.7078 11.306C99.7486 11.5588 99.8302 11.7906 99.9526 12.0013C100.075 12.2119 100.299 12.3805 100.585 12.5069C100.871 12.6333 101.218 12.6754 101.646 12.6544C102.075 12.6122 102.503 12.549 102.972 12.4226C103.442 12.2962 103.89 12.1277 104.339 11.9381C104.788 11.7485 105.196 11.5378 105.543 11.3482L105.727 12.6754C105.013 13.1389 104.298 13.5181 103.564 13.8131C103.258 13.9395 102.931 14.0448 102.585 14.1501C102.238 14.2555 101.891 14.3187 101.544 14.3608C101.197 14.403 100.85 14.403 100.504 14.3819C100.136 14.3398 99.8098 14.2555 99.5038 14.108Z" fill="white"/>
<path d="M108.829 11.518C109.216 11.2863 109.624 11.0335 110.094 10.7806C110.563 10.5278 111.154 10.254 111.869 9.95902C112.583 9.66407 113.154 9.47446 113.562 9.39019C113.97 9.30592 114.337 9.32699 114.623 9.4534C114.705 9.47446 114.766 9.53767 114.847 9.60087C114.929 9.66407 114.99 9.74834 115.031 9.87475C115.072 9.98008 115.113 10.1276 115.113 10.275C115.113 10.4436 115.072 10.6121 114.99 10.8228C114.827 11.2441 114.582 11.6444 114.317 12.0026C114.031 12.3607 113.623 12.761 113.072 13.2034C112.521 13.6458 112.113 14.0461 111.828 14.4253C111.542 14.8045 111.318 15.2048 111.134 15.6683C111.032 15.9211 110.991 16.1318 110.991 16.3214C111.012 16.511 111.073 16.6164 111.175 16.6585C111.318 16.7217 111.481 16.7638 111.665 16.7638C111.848 16.7638 112.052 16.7638 112.236 16.7217C112.44 16.7006 112.644 16.6374 112.848 16.5953C113.052 16.5321 113.256 16.4689 113.44 16.3846C113.888 16.2161 114.358 15.9843 114.847 15.7104L114.011 18.2385C113.868 18.2807 113.684 18.3228 113.48 18.365C113.276 18.4071 113.032 18.4703 112.787 18.5124C112.542 18.5546 112.256 18.5967 111.971 18.6388C111.685 18.681 111.399 18.702 111.114 18.702C110.828 18.702 110.563 18.702 110.298 18.6599C110.032 18.6178 109.787 18.5546 109.583 18.4703C109.257 18.3228 108.992 18.1121 108.808 17.8383C108.625 17.5644 108.523 17.2484 108.461 16.9113C108.421 16.5742 108.4 16.2371 108.461 15.879C108.502 15.5208 108.584 15.2048 108.706 14.9309C108.788 14.7413 108.91 14.5307 109.053 14.2989C109.196 14.0672 109.379 13.8565 109.543 13.6458C109.726 13.4352 109.91 13.2245 110.094 13.0349C110.277 12.8453 110.461 12.6767 110.624 12.5082C110.787 12.3607 110.91 12.2343 111.032 12.15C111.134 12.0658 111.216 12.0026 111.236 12.0026L111.052 11.8972C110.93 11.9183 110.685 12.0236 110.338 12.1922C109.992 12.3607 109.563 12.5925 109.094 12.8663C108.625 13.1613 108.114 13.4773 107.584 13.8565C107.054 14.2357 106.543 14.6571 106.054 15.0784C105.809 15.2891 105.605 15.4787 105.442 15.6472C105.278 15.8158 105.136 15.9422 104.993 16.0265C104.87 16.1107 104.728 16.1739 104.605 16.195C104.483 16.2161 104.34 16.195 104.197 16.1318C103.993 16.0475 103.871 15.9211 103.789 15.7736C103.728 15.6051 103.687 15.4366 103.707 15.2259C103.728 15.0152 103.769 14.8045 103.85 14.5517C103.932 14.32 104.013 14.0672 104.116 13.8354C104.279 13.4141 104.524 12.8663 104.809 12.1711C105.095 11.4969 105.442 10.7385 105.809 9.93795C106.197 9.11631 106.625 8.29468 107.115 7.47305C107.604 6.63035 108.094 5.80872 108.563 4.96601C109.053 4.14438 109.583 3.38595 110.155 2.69072C110.726 1.99549 111.318 1.42667 111.909 0.984254C112.501 0.520769 113.113 0.225824 113.746 0.078351C114.378 -0.0691216 114.99 -0.0059191 115.602 0.246891C115.929 0.394364 116.174 0.541836 116.337 0.731444C116.5 0.921052 116.602 1.13173 116.663 1.36347C116.704 1.59521 116.704 1.84802 116.663 2.1219C116.602 2.39578 116.52 2.69072 116.398 2.98567C116.214 3.44915 115.949 3.93371 115.582 4.43933C115.235 4.94495 114.827 5.45057 114.378 5.97726C113.929 6.48288 113.44 7.00956 112.93 7.51518C112.419 8.0208 111.909 8.50536 111.399 8.96884C110.889 9.43233 110.4 9.85368 109.93 10.275C109.461 10.6753 109.033 11.0335 108.686 11.3284L108.829 11.518ZM111.971 6.06153C112.705 5.28203 113.276 4.5868 113.705 4.01798C114.133 3.44915 114.399 3.00674 114.521 2.69072C114.705 2.22724 114.745 1.95336 114.623 1.91122C114.46 1.84802 114.133 2.01656 113.623 2.39578C113.113 2.79606 112.44 3.38595 111.624 4.20758C111.379 4.50253 111.154 4.81854 110.91 5.13455C110.685 5.45057 110.461 5.78765 110.257 6.12473C110.053 6.46181 109.869 6.79889 109.665 7.13597C109.481 7.47305 109.298 7.76799 109.135 8.06294C108.706 8.7371 108.318 9.41126 107.972 10.0854C108.298 9.76941 108.645 9.43233 109.012 9.05311C109.379 8.6739 109.767 8.31575 110.134 7.93653C110.502 7.57839 110.848 7.22024 111.175 6.90423C111.481 6.56715 111.767 6.29327 111.971 6.06153Z" fill="white"/>
<path d="M119.314 20.3666C119.008 20.4719 118.661 20.5772 118.253 20.6615C117.845 20.7458 117.416 20.809 116.967 20.8511C116.518 20.8933 116.07 20.8933 115.641 20.8511C115.213 20.809 114.805 20.7247 114.458 20.5772C114.152 20.4508 113.907 20.2823 113.723 20.1138C113.54 19.9242 113.417 19.7345 113.356 19.5239C113.295 19.3132 113.274 19.0815 113.315 18.8076C113.356 18.5548 113.417 18.2809 113.54 18.007C113.703 17.6278 113.927 17.1854 114.213 16.7008C114.825 15.7107 115.172 15.1629 115.274 15.0365C115.457 14.8048 115.866 14.2991 116.478 13.4986C117.008 12.8665 117.335 12.4452 117.477 12.2345C117.579 12.087 117.702 11.9817 117.885 11.9185C118.049 11.8553 118.232 11.8342 118.416 11.8132C118.6 11.8132 118.783 11.8342 118.967 11.8553C119.15 11.8974 119.314 11.9396 119.436 12.0028C119.681 12.1081 119.824 12.2345 119.885 12.3609C119.926 12.4873 119.926 12.6348 119.864 12.8033C119.803 12.9297 119.701 13.1194 119.538 13.33C119.375 13.5407 119.191 13.7935 118.987 14.0885C118.783 14.3623 118.497 14.7205 118.151 15.1629C117.804 15.5843 117.518 15.9635 117.314 16.3005C117.11 16.6166 116.906 16.9536 116.682 17.2486C116.457 17.5646 116.294 17.8595 116.172 18.1334C116.049 18.4073 116.008 18.639 115.988 18.8286C115.988 19.0183 116.07 19.1447 116.253 19.2289C116.478 19.3132 116.743 19.3553 117.069 19.3132C117.396 19.2711 117.743 19.2079 118.089 19.1025C118.436 18.9972 118.804 18.8918 119.15 18.7654C119.497 18.639 119.803 18.5337 120.068 18.4494L119.314 20.3666ZM119.252 8.94799C119.314 8.80052 119.416 8.65304 119.538 8.50557C119.66 8.3581 119.844 8.23169 120.028 8.12636C120.232 8.02102 120.456 7.97888 120.721 7.95782C120.987 7.93675 121.293 8.02102 121.619 8.14742C121.823 8.23169 122.007 8.3581 122.17 8.4845C122.333 8.61091 122.456 8.75838 122.558 8.92692C122.66 9.09546 122.7 9.264 122.721 9.47468C122.741 9.68535 122.7 9.89603 122.598 10.1278C122.517 10.3384 122.394 10.5281 122.252 10.6966C122.109 10.8651 121.925 10.9915 121.721 11.0969C121.517 11.1811 121.293 11.2443 121.027 11.2443C120.762 11.2443 120.497 11.1811 120.191 11.0547C119.66 10.823 119.334 10.5281 119.191 10.1699C119.069 9.79069 119.069 9.39041 119.252 8.94799Z" fill="white"/>
<path d="M119.887 22.938C119.56 22.7905 119.336 22.5166 119.173 22.1163C119.009 21.7161 118.928 21.2104 118.928 20.6416C118.928 20.0728 118.989 19.4408 119.132 18.7455C119.275 18.0503 119.499 17.3551 119.785 16.6599C120.029 16.0489 120.438 15.2905 121.029 14.3424C121.601 13.4155 121.907 12.952 121.907 12.952C121.907 12.952 122.233 12.5096 122.906 11.6036C123.58 10.7188 124.171 10.0236 124.681 9.51797C125.191 9.03341 125.702 8.56993 126.232 8.19071C126.762 7.79043 127.273 7.47442 127.762 7.22161C128.252 6.9688 128.742 6.82132 129.19 6.75812C129.639 6.69492 130.068 6.73705 130.455 6.90559C130.741 7.032 130.945 7.17947 131.067 7.36908C131.21 7.55869 131.292 7.76936 131.312 7.98004C131.333 8.21178 131.333 8.44352 131.292 8.67526C131.251 8.92808 131.169 9.15982 131.067 9.39156C130.823 9.98145 130.517 10.5292 130.149 11.077C129.762 11.6247 129.354 12.1514 128.864 12.657C128.374 13.1626 127.885 13.6683 127.334 14.1528C126.783 14.6374 126.232 15.1009 125.661 15.5643C125.089 16.0278 124.539 16.4913 123.967 16.9337C123.396 17.3761 122.865 17.8186 122.376 18.261C122.315 18.3031 122.253 18.3874 122.192 18.4717C122.111 18.5559 122.049 18.6402 121.968 18.7455C121.886 18.8509 121.805 18.9562 121.723 19.0826C121.641 19.209 121.56 19.3144 121.498 19.4408L121.437 19.5672C121.376 19.7357 121.315 19.8832 121.294 20.0517C121.274 20.2203 121.254 20.3677 121.254 20.5152C121.254 20.6627 121.274 20.768 121.294 20.8734C121.315 20.9576 121.356 21.0208 121.396 21.0419C121.519 21.084 121.662 21.1262 121.825 21.1472C121.988 21.1683 122.172 21.1683 122.376 21.1472C122.58 21.1262 122.784 21.1051 123.008 21.084C123.233 21.0419 123.437 21.0208 123.661 20.9787C124.151 20.8944 124.681 20.768 125.232 20.5995V22.8958C124.539 23.0433 123.865 23.1276 123.212 23.1908C122.927 23.2118 122.641 23.2329 122.335 23.2329C122.029 23.254 121.743 23.254 121.458 23.2329C121.172 23.2118 120.886 23.1908 120.621 23.1486C120.315 23.0854 120.091 23.0222 119.887 22.938ZM122.865 15.6065C123.335 15.2273 123.845 14.7848 124.396 14.3003C124.947 13.8157 125.497 13.289 126.028 12.7624C126.558 12.2146 127.069 11.6669 127.517 11.098C127.987 10.5292 128.354 9.98145 128.64 9.43369C128.721 9.24409 128.762 9.09661 128.823 8.97021C128.864 8.8438 128.864 8.75953 128.823 8.73847C128.66 8.67526 128.435 8.7174 128.15 8.86487C127.864 9.01234 127.558 9.24409 127.191 9.5601C126.824 9.87611 126.354 10.4239 125.722 11.2034C125.089 11.9829 124.783 12.3831 124.783 12.3831C124.783 12.3831 124.539 12.7624 124.028 13.5208C123.539 14.3003 123.151 14.9955 122.865 15.6065Z" fill="white"/>
<path d="M133.616 26.6031C133.045 26.7717 132.494 26.9192 131.984 27.0245C131.76 27.0666 131.535 27.1088 131.291 27.1298C131.046 27.172 130.821 27.172 130.597 27.193C130.372 27.193 130.168 27.193 129.964 27.172C129.76 27.1509 129.597 27.1088 129.454 27.0456C129.373 27.0034 129.25 26.9402 129.107 26.8138C128.965 26.7085 128.801 26.5399 128.659 26.3293C128.516 26.1186 128.373 25.8658 128.271 25.5498C128.169 25.2338 128.108 24.8545 128.128 24.4121C127.802 24.5596 127.496 24.6649 127.149 24.7703C126.822 24.8756 126.475 24.9388 126.149 24.9809C125.823 25.0231 125.496 25.0231 125.19 25.002C124.884 24.9809 124.578 24.9177 124.313 24.7913C123.925 24.6228 123.619 24.391 123.415 24.1172C123.191 23.8222 123.048 23.5062 122.987 23.1481C122.905 22.7899 122.905 22.4107 122.946 22.0315C122.987 21.6312 123.089 21.252 123.252 20.8938C123.415 20.4936 123.619 20.1143 123.884 19.7351C124.15 19.377 124.456 19.0399 124.802 18.7239C125.149 18.4289 125.517 18.1129 125.925 17.7969C126.333 17.4809 126.781 17.2281 127.292 17.0385C127.802 16.8489 128.312 16.7646 128.781 16.7646C129.25 16.7646 129.719 16.8278 130.189 16.9964C130.536 16.1958 130.903 15.5427 131.291 14.9949C131.678 14.4472 132.107 13.8573 132.555 13.2253C133.004 12.5932 133.494 12.0455 134.004 11.5609C134.514 11.0764 135.004 10.6972 135.493 10.4022C135.983 10.1073 136.452 9.91766 136.922 9.83339C137.391 9.74912 137.799 9.79126 138.187 9.9598C138.472 10.0862 138.676 10.2547 138.819 10.4865C138.962 10.7182 139.023 10.9921 139.044 11.2871C139.064 11.582 139.044 11.9191 138.962 12.2772C138.88 12.6354 138.778 12.9725 138.636 13.3306C138.554 13.5413 138.452 13.773 138.35 14.0048C137.983 14.8896 137.513 15.648 136.962 16.3011C136.412 16.9542 135.861 17.6073 135.31 18.2393C134.759 18.8714 134.167 19.4823 133.535 20.0722C132.555 20.957 131.923 21.568 131.617 21.9051C131.556 21.9894 131.474 22.0736 131.393 22.179C131.311 22.2843 131.229 22.4107 131.148 22.5371C131.066 22.6635 130.984 22.811 130.903 22.9585C130.821 23.1059 130.76 23.2534 130.699 23.3798C130.617 23.5694 130.556 23.738 130.515 23.9065C130.474 24.075 130.454 24.2436 130.434 24.3911C130.434 24.5385 130.454 24.6649 130.495 24.7703C130.536 24.8756 130.617 24.9599 130.74 25.002C130.862 25.0441 130.984 25.0863 131.148 25.0863C131.291 25.1073 131.474 25.0863 131.658 25.0863C131.841 25.0652 132.025 25.0441 132.229 25.002C132.413 24.9599 132.617 24.9177 132.8 24.8756C133.229 24.7703 133.678 24.6439 134.167 24.4753L133.616 26.6031ZM129.638 18.4711C129.169 18.4921 128.699 18.6186 128.271 18.8082C127.822 18.9978 127.394 19.3138 126.986 19.7562C126.557 20.1986 126.231 20.5989 125.965 20.936C125.7 21.2731 125.517 21.5891 125.374 21.9051C125.333 22.0104 125.312 22.0947 125.292 22.2211C125.272 22.3264 125.292 22.4318 125.333 22.5371C125.374 22.6424 125.455 22.7478 125.557 22.8531C125.659 22.9585 125.823 23.0638 126.047 23.1481C126.149 23.1902 126.271 23.2113 126.394 23.2113C126.516 23.2113 126.639 23.1902 126.781 23.1481C126.904 23.1059 127.047 23.0638 127.169 23.0006C127.292 22.9374 127.414 22.8742 127.536 22.7899C127.802 22.6214 128.067 22.3896 128.332 22.1368C128.352 22.0526 128.393 21.9051 128.455 21.6944C128.516 21.5048 128.618 21.2099 128.781 20.8096C128.924 20.4093 129.046 20.0933 129.148 19.8405C129.25 19.5877 129.332 19.3559 129.413 19.1452C129.495 18.9346 129.556 18.766 129.597 18.6396C129.617 18.5343 129.638 18.4711 129.638 18.4711ZM136.391 14.0048C136.595 13.5834 136.758 13.2463 136.86 12.9935C137.003 12.6564 137.064 12.4247 137.064 12.2562C137.064 12.1087 137.003 12.0033 136.901 11.9612C136.697 11.8769 136.473 11.9191 136.228 12.1087C135.983 12.2983 135.718 12.5511 135.453 12.9093C135.187 13.2674 134.922 13.6466 134.616 14.0469C134.31 14.4682 134.045 14.8685 133.82 15.2899C133.596 15.7112 133.392 16.0904 133.208 16.4275C133.025 16.7646 132.902 17.0174 132.841 17.1649C132.698 17.4598 132.555 17.7548 132.413 18.0287C132.29 18.3025 132.168 18.5553 132.066 18.7871C131.964 19.0188 131.882 19.2295 131.801 19.398C131.739 19.5666 131.678 19.7141 131.637 19.7983L131.597 19.8826C132.27 19.2084 132.902 18.5132 133.514 17.8391C133.78 17.5441 134.024 17.2281 134.29 16.9121C134.555 16.575 134.82 16.259 135.085 15.943C135.351 15.627 135.595 15.2899 135.82 14.9739C136.044 14.6368 136.228 14.3208 136.391 14.0048Z" fill="white"/>
<path d="M133.107 26.3933C133.209 26.1194 133.351 25.8034 133.535 25.4663C133.719 25.1292 133.902 24.75 134.127 24.3708C134.331 23.9916 134.555 23.6124 134.8 23.2331C135.045 22.8539 135.31 22.4326 135.596 22.0112C135.902 21.5899 136.147 21.2317 136.351 20.9578C136.555 20.684 136.738 20.4522 136.901 20.2837C137.003 20.1784 137.085 20.073 137.167 20.0309C137.248 19.9677 137.33 19.9255 137.412 19.9045C137.493 19.8834 137.575 19.8834 137.677 19.9045C137.779 19.9255 137.901 19.9677 138.024 20.0309C138.187 20.0941 138.289 20.1573 138.37 20.2205C138.452 20.2837 138.493 20.3469 138.513 20.4101C138.534 20.4944 138.513 20.5786 138.493 20.705C138.452 20.8104 138.391 20.9789 138.33 21.1685C138.228 21.4003 138.085 21.7163 137.901 22.1166C137.697 22.5168 137.534 22.875 137.432 23.2121L137.534 23.2542C137.758 23.0646 138.024 22.7907 138.37 22.4747C138.717 22.1587 139.044 21.9059 139.329 21.7163C139.635 21.5267 139.941 21.4003 140.268 21.3371C140.594 21.2739 140.921 21.2949 141.247 21.4424C141.37 21.4845 141.472 21.5688 141.553 21.6531C141.635 21.7373 141.717 21.8427 141.757 21.948C141.798 22.0534 141.839 22.1798 141.839 22.3062C141.839 22.4326 141.819 22.559 141.757 22.7065C141.717 22.8118 141.635 22.9593 141.533 23.1278C141.431 23.2963 141.288 23.5281 141.084 23.802C140.9 24.0758 140.758 24.3076 140.635 24.4761C140.533 24.6657 140.452 24.8132 140.39 24.9396C140.309 25.1714 140.248 25.361 140.227 25.5295C140.207 25.698 140.207 25.8455 140.248 25.9509C140.288 26.0773 140.329 26.1615 140.411 26.2458C140.472 26.3301 140.574 26.3722 140.656 26.4143C140.921 26.5407 141.227 26.5829 141.553 26.5829C141.88 26.5829 142.206 26.5618 142.512 26.4986C142.859 26.4354 143.226 26.3511 143.573 26.2458L142.553 28.3526C142.349 28.3947 142.125 28.4368 141.88 28.479C141.635 28.5211 141.37 28.5632 141.104 28.5632C140.839 28.5843 140.554 28.5843 140.288 28.5422C140.023 28.5211 139.758 28.4368 139.513 28.3315C139.064 28.1419 138.738 27.8891 138.554 27.573C138.35 27.257 138.248 26.92 138.207 26.5618C138.166 26.1826 138.187 25.8034 138.268 25.382C138.35 24.9607 138.432 24.5604 138.554 24.1601L138.411 24.0969L134.943 28.0155C134.759 28.2261 134.596 28.3736 134.474 28.5C134.331 28.6264 134.208 28.7107 134.086 28.795C133.963 28.8582 133.861 28.9003 133.759 28.9003C133.657 28.9003 133.555 28.8792 133.433 28.8371C133.188 28.7318 133.005 28.5843 132.902 28.4158C132.8 28.2472 132.739 28.0576 132.739 27.8259C132.739 27.6152 132.76 27.3834 132.821 27.1306C132.923 26.8778 133.005 26.625 133.107 26.3933Z" fill="white"/>
<path d="M143.042 32.9435C142.491 32.7117 142.043 32.3957 141.716 31.9955C141.39 31.5952 141.145 31.1738 141.022 30.6893C140.9 30.2047 140.859 29.6991 140.9 29.1724C140.961 28.6457 141.084 28.119 141.288 27.5923C141.431 27.2553 141.655 26.876 141.961 26.4547C142.267 26.0333 142.573 25.6752 142.859 25.3592C143.144 25.0432 143.45 24.7693 143.777 24.5376C144.103 24.2847 144.471 24.0951 144.838 23.9687C145.205 23.8423 145.593 23.7581 145.98 23.7581C146.368 23.7581 146.776 23.8423 147.184 24.0109C147.511 24.1583 147.796 24.3479 148.041 24.5797C148.286 24.8114 148.47 25.0853 148.592 25.3592C148.714 25.6541 148.796 25.9701 148.796 26.3072C148.796 26.6443 148.735 26.9814 148.592 27.3395C148.449 27.7187 148.143 28.0769 147.715 28.435C147.286 28.7932 146.837 29.0671 146.388 29.2567C145.94 29.4463 145.429 29.5727 144.879 29.6359C144.328 29.6991 143.756 29.6991 143.185 29.6148C143.206 29.8255 143.246 29.994 143.287 30.1415C143.328 30.289 143.389 30.4154 143.45 30.4997C143.512 30.605 143.593 30.6893 143.675 30.7525C143.756 30.8157 143.858 30.8789 143.981 30.921C144.348 31.0685 144.736 31.1738 145.205 31.1949C145.654 31.216 146.123 31.216 146.592 31.1528C147.062 31.0895 147.511 31.0053 147.939 30.8999C148.368 30.7946 148.755 30.6682 149.082 30.5418L149.735 32.2483C148.98 32.6064 148.204 32.8592 147.449 33.0488C147.123 33.1331 146.756 33.1963 146.388 33.2595C146.021 33.3227 145.634 33.3438 145.266 33.3438C144.879 33.3438 144.491 33.3227 144.124 33.2384C143.756 33.2174 143.389 33.091 143.042 32.9435ZM143.634 28.0348C143.858 28.119 144.103 28.1822 144.409 28.1822C144.715 28.1822 145.001 28.1401 145.287 28.0558C145.572 27.9716 145.878 27.8241 146.205 27.6345C146.531 27.4238 146.735 27.2342 146.817 27.0446C146.919 26.7707 146.96 26.539 146.939 26.3072C146.919 26.0965 146.817 25.9491 146.674 25.8859C146.409 25.7805 146.184 25.7173 145.96 25.7384C145.736 25.7595 145.532 25.8227 145.348 25.9069C145.164 26.0123 145.001 26.1387 144.838 26.3072C144.675 26.4758 144.491 26.6654 144.287 26.9182C144.063 27.171 143.92 27.3817 143.838 27.5502C143.756 27.7398 143.675 27.9084 143.634 28.0348Z" fill="white"/>
<path d="M147.553 32.6271C147.716 32.2268 147.941 31.7633 148.206 31.2577C148.471 30.7521 148.757 30.1832 149.104 29.5723C149.43 28.9613 149.756 28.4346 150.042 27.9501C150.348 27.4866 150.593 27.0863 150.838 26.7492C151.021 26.4964 151.246 26.3068 151.511 26.2015C151.776 26.0961 152.062 26.1172 152.388 26.2436C152.715 26.37 152.898 26.5807 152.939 26.8335C152.98 27.0863 152.939 27.3813 152.796 27.7183C152.756 27.8026 152.694 27.929 152.613 28.0765C152.531 28.224 152.429 28.3925 152.327 28.561C152.225 28.7296 152.123 28.9192 152.001 29.1088C151.899 29.2984 151.776 29.5091 151.633 29.7619C151.511 30.0147 151.409 30.1832 151.327 30.3096C151.266 30.4361 151.205 30.4993 151.205 30.5414L151.389 30.6257C151.45 30.5835 151.552 30.4782 151.695 30.3728C151.838 30.2464 152.001 30.0779 152.225 29.8462C152.45 29.6144 152.654 29.4037 152.858 29.2352C153.062 29.0667 153.266 28.8981 153.429 28.7506C153.613 28.6032 153.776 28.4557 153.919 28.3293C154.061 28.2029 154.163 28.1186 154.245 28.0765C154.572 27.8237 154.878 27.6973 155.184 27.6762C155.469 27.6551 155.775 27.7183 156.081 27.8447C156.387 27.9712 156.571 28.2029 156.632 28.54C156.693 28.8771 156.653 29.2773 156.469 29.7198C156.449 29.783 156.387 29.8883 156.285 30.0358C156.204 30.1832 156.081 30.3518 155.959 30.5625C155.836 30.7731 155.673 31.0259 155.469 31.363C155.286 31.7001 155.102 31.9951 154.939 32.2479C154.776 32.5007 154.633 32.7745 154.51 33.0274C154.367 33.2802 154.265 33.533 154.163 33.7647C154 34.1439 153.919 34.481 153.919 34.776C153.919 35.0709 154 35.2394 154.204 35.3237C154.286 35.3448 154.388 35.3659 154.551 35.3659C154.776 35.3869 154.939 35.3659 155 35.3448C155.347 35.2394 155.53 35.1973 155.53 35.2184C155.551 35.2394 155.796 35.1973 156.285 35.113C156.897 35.0077 157.612 34.8602 158.468 34.6917L157.612 36.7563L157.02 36.9038C156.979 36.9249 156.632 36.967 155.979 37.0302C155.061 37.1145 154.469 37.1777 154.245 37.1777C153.694 37.1987 153.347 37.1987 153.225 37.1777C152.878 37.1566 152.552 37.0513 152.225 36.9249C151.899 36.7774 151.715 36.4192 151.695 35.8293C151.674 35.2395 151.858 34.481 152.225 33.533C152.368 33.1538 152.552 32.7745 152.776 32.3743C153 31.974 153.245 31.5316 153.511 31.0681L153.368 31.0049L149.083 34.797C148.859 35.0077 148.655 35.113 148.471 35.1341C148.287 35.1552 148.083 35.1341 147.9 35.0498C147.655 34.9445 147.471 34.797 147.369 34.6285C147.267 34.4599 147.206 34.2703 147.206 34.0386C147.206 33.8279 147.226 33.5962 147.288 33.3434C147.39 33.1327 147.471 32.8799 147.553 32.6271Z" fill="white"/>
<path d="M88.3038 14.5953C88.3038 12.2357 86.4471 10.3186 84.162 10.3186C82.8358 10.3186 81.6524 11.056 80.8975 12.0461C80.1426 11.0349 78.9593 10.3186 77.6331 10.3186C75.3479 10.3186 73.4913 12.2357 73.4913 14.5953C73.4913 14.5953 72.8996 18.4085 80.8975 23.7175C88.8955 18.4085 88.3038 14.5953 88.3038 14.5953Z" fill="#E73938"/>
</svg>
