<svg width="123" height="123" viewBox="0 0 123 123" fill="none" xmlns="http://www.w3.org/2000/svg">
<path d="M123 61.4999C123 64.2923 122.796 67.0846 122.455 69.8089C122.115 72.1926 121.707 74.5082 121.094 76.8238C114.696 101.751 93.1179 120.548 66.8434 122.796C65.0736 122.932 63.3038 123 61.534 123C27.4997 123.068 0 95.485 0 61.4999C0 27.5149 27.4997 0 61.466 0C95.1599 0 122.455 27.0382 122.932 60.6146C123 60.887 123 61.2275 123 61.4999Z" fill="#5EC2EB"/>
<g clip-path="url(#clip0)">
<path d="M89.6532 57.6593C89.8812 57.4334 89.8812 57.4334 89.8812 57.2075L98.5438 31.6804C98.7718 31.4545 98.7718 31.0027 98.7718 30.5509C99.2277 28.7437 98.5438 26.9364 97.176 25.581C95.8083 24.2256 93.9846 23.7738 92.1609 24.2256H91.9329C91.7049 24.2256 91.477 24.4515 91.249 24.4515L66.173 32.584C64.8052 32.8099 63.8934 33.4876 62.9815 34.1653L44.7444 52.2376L29.9268 49.9786H29.6988C28.1031 49.7527 26.5074 50.2045 25.3675 51.334C23.3159 53.3671 23.3159 56.3039 25.3675 58.337C25.3675 58.337 25.3675 58.337 25.3675 58.5629L31.9785 65.1141L30.3827 66.9214C27.8751 69.4063 27.8751 73.4726 30.3827 75.9575L32.4344 77.9906L32.2064 78.4425C31.9785 79.1202 31.9785 79.7979 32.4344 80.2497L41.7809 89.5117C42.2368 89.9635 42.9207 90.1894 43.6046 89.7376L44.0605 89.5117L46.3402 91.7708C47.48 92.9003 49.0757 93.578 50.8994 93.578C52.7232 93.578 54.3189 92.9003 55.4587 91.7708L56.8265 90.4153C59.666 93.2292 62.8693 98.9997 67.5408 98.9997C68.9086 98.9997 70.2764 98.5479 71.1882 97.4184C73.0002 95.4998 72.556 94.2543 72.556 92.2226L70.2763 77.5388L88.7414 59.2406C88.9694 58.7888 89.4253 58.337 89.6532 57.6593ZM27.1912 57.2075C26.9633 56.9816 26.9633 56.9816 26.9633 56.9816C25.8235 55.8521 25.8235 54.0449 26.9633 52.9153C27.6472 52.2376 28.787 52.0117 29.6988 52.2376C29.9268 52.2376 29.9268 52.2376 30.1548 52.2376L43.1487 54.2708L33.5742 63.7587L27.1912 57.2075ZM70.2763 92.2226C70.5002 93.4998 71.1882 94.6768 69.5925 96.0629C69.1365 96.5147 68.2247 96.9665 67.5408 96.9665C64.5296 96.9665 60.3149 90.9355 58.4222 89.0599L68.2247 79.3461C68.2247 79.3461 70.0525 90.9454 70.2763 92.2226ZM86.9177 56.078C86.6897 56.5298 86.4618 56.7557 86.2338 56.9816L53.407 89.7376C52.7232 90.4153 52.0393 90.6413 51.1274 90.6413C50.8994 90.6413 50.4435 90.6413 50.2156 90.4153C49.9876 90.4153 49.5317 90.1894 49.3037 89.9635C49.0757 89.7376 48.8478 89.7376 48.8478 89.5117L45.8843 86.575C45.6563 86.3491 45.2004 86.1232 44.7444 86.1232C44.5165 86.1232 44.2885 86.1232 44.0605 86.3491L43.6046 86.575L35.8539 78.8943L36.0818 78.4425C36.3098 77.7647 36.3098 77.087 35.8539 76.6352L32.4344 73.6985C31.0666 72.3431 31.0666 70.3099 32.4344 68.9545L65.4891 36.4244C65.945 35.9726 66.401 35.7467 67.0849 35.5208C67.0849 35.5208 67.0849 35.5208 67.3128 35.5208L92.6168 27.3882C92.6168 27.3882 92.6168 27.3882 92.8447 27.3882H93.0727C93.7566 27.1623 94.6684 27.3882 95.3523 28.0659C95.8083 28.5177 96.0362 29.4214 96.0362 30.0991C96.0362 30.325 96.0362 30.5509 95.8083 30.5509C95.8083 30.5509 95.8083 30.5509 95.8083 30.7768L86.9177 56.078Z" fill="white"/>
<path d="M57.2827 61.9514C56.1429 60.8219 54.7751 60.3701 53.1793 60.3701C51.5836 60.3701 50.2158 61.0478 49.076 61.9514L42.2371 68.9545C39.9575 71.2135 39.9575 74.8279 42.2371 77.087L45.6565 80.4755C46.7964 81.6051 48.1641 82.0569 49.7599 82.0569C51.3556 82.0569 52.7234 81.3792 53.8632 80.4755L60.9301 73.4725C62.0699 72.343 62.5258 70.9876 62.5258 69.4063C62.5258 67.8249 61.8419 66.4695 60.9301 65.34L57.2827 61.9514ZM58.4225 70.9876L51.3556 77.9906C50.8997 78.4424 50.2158 78.6683 49.5319 78.6683C48.848 78.6683 48.1641 78.4424 47.7082 77.9906L44.2888 74.602C43.3769 73.6984 43.3769 71.8912 44.2888 70.9876L51.3556 63.9846C51.8116 63.5328 52.4954 63.3069 53.1793 63.3069C53.8632 63.3069 54.5471 63.5328 55.003 63.9846L58.4225 67.3731C58.8784 67.8249 59.1064 68.5026 59.1064 69.1804C59.1064 69.8581 58.8784 70.5358 58.4225 70.9876Z" fill="white"/>
<path d="M74.6077 44.3312C73.2399 43.6535 71.8721 43.2017 70.2763 43.2017C67.7687 43.2017 65.4891 44.1053 63.8934 45.9125C62.0697 47.7197 61.1578 49.9788 61.1578 52.2378C61.1578 54.4968 62.0697 56.9818 63.8934 58.5631C65.7171 60.3703 67.9967 61.2739 70.2763 61.2739C72.7839 61.2739 75.0636 60.3703 76.6593 58.5631C78.483 56.7559 79.3949 54.4968 79.3949 52.2378C79.3949 49.7529 78.483 47.4938 76.6593 45.9125C76.2034 45.2348 75.5195 44.783 74.6077 44.3312ZM74.6077 56.3041C73.4678 57.4336 72.1001 58.1113 70.5043 58.1113C68.9086 58.1113 67.5408 57.4336 66.401 56.3041C65.2612 55.1746 64.5773 53.8191 64.5773 52.2378C64.5773 50.6565 65.2612 49.3011 66.401 48.1715C67.5408 47.042 68.9086 46.3643 70.5043 46.3643C72.1001 46.3643 73.4678 47.042 74.6077 48.1715C75.7475 49.3011 76.4314 50.6565 76.4314 52.2378C76.2034 53.8191 75.7475 55.1746 74.6077 56.3041Z" fill="white"/>
</g>
<defs>
<clipPath id="clip0">
<rect width="75" height="75" fill="white" transform="translate(24 24)"/>
</clipPath>
</defs>
</svg>
