<svg width="123" height="123" viewBox="0 0 123 123" fill="none" xmlns="http://www.w3.org/2000/svg">
<path d="M123 61.4999C123 64.2923 122.796 67.0846 122.455 69.8089C122.115 72.1926 121.707 74.5082 121.094 76.8238C114.696 101.751 93.1179 120.548 66.8434 122.796C65.0736 122.932 63.3038 123 61.534 123C27.4997 123.068 0 95.485 0 61.4999C0 27.5149 27.4997 0 61.466 0C95.1599 0 122.455 27.0382 122.932 60.6146C123 60.887 123 61.2275 123 61.4999Z" fill="#5EC2EB"/>
<path d="M50.9118 82.375C55.7328 87.2188 62.2892 90.125 69.0386 90.3188C69.4242 90.3188 69.6171 90.3188 70.0027 90.3188C77.1377 90.3188 84.0799 87.4125 89.0937 82.375C94.1074 77.3375 97 70.3625 97 63.1938C97 56.025 94.1074 49.05 89.0937 44.0125C83.887 38.5875 76.7521 35.875 69.2314 36.0688C67.6887 36.0688 66.146 36.2625 64.7961 36.65H64.6033C63.0606 37.2313 62.4821 38.0063 62.0964 38.7813C61.5179 40.3313 62.0964 41.8813 62.6749 42.6563L62.8678 42.85C62.8678 42.85 62.8678 43.0438 63.0606 43.0438C64.989 46.725 64.2176 51.1813 61.3251 54.0875C57.1723 58.26 52.7721 56.4889 48.0193 55.0563C47.4408 55.0563 46.8622 55.0563 46.2837 55.25C45.3704 55.5942 43.7768 56.8439 43.7768 57.9625C41.8485 67.0688 44.5482 76.175 50.9118 82.375ZM45.8981 58.7375C46.0909 58.5438 46.2837 57.9625 46.8622 57.7688C51.0969 55.6414 57.0322 61.6944 62.8678 55.8313C66.3388 52.3438 67.303 46.9188 65.3746 42.4625L65.5675 42.2688L65.1818 41.6875C65.1818 41.6875 65.1818 41.4938 64.989 41.4938C64.6033 40.7188 64.4105 40.1375 64.6033 39.75C64.7961 39.5563 64.989 39.3625 65.3746 39.1688C66.7245 38.975 68.0744 38.7813 69.4242 38.7813C76.3664 38.5875 82.73 41.1063 87.551 45.95C92.1791 50.6 94.6859 56.8 94.6859 63.3875C94.6859 69.975 92.1791 76.175 87.551 80.825C82.73 85.6688 76.1735 88.1875 69.4242 87.9938C63.2534 87.8 57.2755 85.2813 52.8402 80.825C47.0551 75.0125 44.5482 66.6813 45.8981 58.7375Z" fill="white"/>
<path d="M55.1542 73.4624C56.6969 73.0749 57.8539 72.1062 58.6253 70.7499C59.3966 69.3937 59.5894 67.8437 59.2038 66.4874C58.4324 63.3874 55.347 61.6437 52.2616 62.4187C50.7189 62.8062 49.5619 63.7749 48.7905 65.1312C48.0192 66.4874 47.8264 68.0374 48.212 69.3937C48.5977 70.9437 49.5619 72.1062 50.9118 72.8812C51.8759 73.4624 52.8401 73.6562 53.8043 73.6562C54.19 73.6562 54.5757 73.4624 55.1542 73.4624ZM51.4903 71.7187C50.5261 71.1374 49.7547 70.1687 49.3691 69.0062C48.9834 67.8437 49.1762 66.6812 49.7547 65.7124C50.3332 64.7437 51.2974 63.9687 52.4545 63.5812C54.7685 62.9999 57.2754 64.3562 57.8539 66.6812C58.2396 67.8437 58.0467 69.0062 57.4682 69.9749C56.8897 70.9437 55.9255 71.7187 54.7685 72.1062C53.6115 72.4937 52.4545 72.2999 51.4903 71.7187Z" fill="white"/>
<path d="M59.9752 82.3749C60.7466 83.7312 61.9036 84.6999 63.4463 85.0874C64.0248 85.2812 64.4105 85.2812 64.989 85.2812C66.3389 85.2812 67.6887 84.6999 68.8457 83.7312C69.6171 82.9562 70.1956 81.9874 70.3884 81.0187C70.967 78.8874 70.3884 76.7562 68.8457 75.3999C68.0744 74.8187 67.303 74.2374 66.5317 74.0437C63.4463 73.2687 60.3609 75.0124 59.5895 78.1124C59.011 79.4687 59.2039 81.0187 59.9752 82.3749ZM60.5537 78.3062C61.1322 75.9812 63.6391 74.4312 65.9532 75.2062C66.7245 75.3999 67.303 75.7874 67.8816 76.1749C69.0386 77.3374 69.6171 79.0812 69.2314 80.6312C69.0386 81.4062 68.6529 82.1812 67.8816 82.7624C66.7245 83.7312 65.1818 84.1187 63.6391 83.7312C62.4821 83.3437 61.5179 82.7624 60.9394 81.5999C60.5537 80.6312 60.3609 79.4687 60.5537 78.3062Z" fill="white"/>
<path d="M80.4159 70.3623C78.8732 70.3623 77.5233 70.9436 76.3663 72.1061C74.2451 74.2373 74.2451 77.9186 76.3663 80.2436C77.5233 81.4061 78.8732 81.9873 80.4159 81.9873C81.9586 81.9873 83.3084 81.4061 84.4655 80.2436C85.6225 79.0811 86.201 77.7248 86.201 76.1748C86.201 74.6248 85.6225 73.2686 84.4655 72.1061C83.3084 70.9436 81.9586 70.3623 80.4159 70.3623ZM83.5013 79.0811C82.7299 79.8561 81.5729 80.4373 80.4159 80.4373C79.2589 80.4373 78.1018 80.0498 77.3305 79.0811C75.595 77.3373 75.595 74.4311 77.3305 72.8811C78.1018 72.1061 79.2589 71.5248 80.4159 71.5248C81.5729 71.5248 82.7299 71.9123 83.5013 72.8811C84.2726 73.6561 84.8511 74.8186 84.8511 75.9811C84.8511 77.1436 84.4655 78.3061 83.5013 79.0811Z" fill="white"/>
<path d="M80.0302 62.4186C80.8016 64.9373 82.9228 66.6811 85.4297 66.6811C86.0082 66.6811 86.3938 66.6811 86.9724 66.4873C88.5151 66.0998 89.6721 65.1311 90.4434 63.7748C91.2148 62.4186 91.4076 60.8686 91.0219 59.5123C90.2506 56.4123 87.1652 54.6686 84.0798 55.4436C80.9944 56.2186 79.2589 59.5123 80.0302 62.4186ZM84.2726 56.6061C86.5867 56.0248 89.0936 57.3811 89.6721 59.7061C90.0578 60.8686 89.8649 62.0311 89.2864 62.9998C88.7079 63.9686 87.7437 64.7436 86.5867 65.1311C84.2726 65.7123 81.7657 64.3561 81.1872 62.0311C80.6087 59.7061 81.9586 57.3811 84.2726 56.6061Z" fill="white"/>
<path d="M72.8955 54.6685C73.474 54.8622 73.8597 54.8622 74.4382 54.8622C75.4024 54.8622 76.3666 54.6685 77.3308 54.0872C78.6806 53.3122 79.6448 52.1497 80.0305 50.5997C80.8018 47.4997 79.0663 44.3997 75.9809 43.6247C72.8955 42.8497 69.8101 44.5935 69.0388 47.6935C68.6531 49.2435 68.8459 50.7935 69.6173 51.956C70.1958 53.3122 71.3528 54.281 72.8955 54.6685ZM70.0029 48.081C70.5815 45.756 73.0883 44.206 75.4024 44.981C77.7164 45.5622 79.2591 48.081 78.4878 50.406C78.1021 51.5685 77.5236 52.5372 76.3666 53.1185C75.4024 53.6997 74.2454 53.8935 73.0883 53.506C71.9313 53.1185 70.9671 52.5372 70.3886 51.3747C69.8101 50.406 69.6173 49.2435 70.0029 48.081Z" fill="white"/>
<path d="M35.6777 32.5813L34.9063 32L34.135 32.5813C33.9421 32.775 27 38.0062 27 44.7875C27 49.4375 28.5427 51.5688 30.6639 52.5375C30.6639 52.925 30.4711 53.5063 30.4711 53.8938C29.6997 58.9313 29.5069 64.9375 29.8926 70.3625C31.2424 88.7687 32.2066 93.6125 34.9063 94H36.2562V93.4188C38.3774 91.8688 38.9559 85.8625 39.9201 70.1688C40.3058 64.7438 40.1129 58.7375 39.3416 53.7L39.1488 52.5375V52.3438C41.27 51.375 42.8127 49.2437 42.8127 44.5938C42.8127 38.3937 36.449 33.1625 35.6777 32.5813ZM37.4132 69.975C37.0275 76.5625 36.2562 88.575 34.9063 91.0938C33.5565 88.1875 32.7851 75.7875 32.3994 70.1688C32.0138 64.9375 32.2066 59.125 32.978 54.2812C32.978 53.8937 33.1708 53.5063 33.1708 53.1187C33.7493 53.1187 34.3278 53.3125 35.0992 53.3125C35.6777 53.3125 36.2562 53.3125 36.8347 53.1187C36.8347 53.5063 36.8347 53.7 37.0275 54.0875V55.25C37.6061 59.9 37.7989 65.1313 37.4132 69.975ZM40 46C40 45.6125 40.3058 45.175 40.3058 44.9812C40.3058 49.825 38.5702 50.7937 34.9063 50.7937C31.2424 50.7937 29.5069 49.825 29.5069 44.9812C29.5069 44.4 29.5069 44.0125 29.6997 43.4313C30.0854 43.4313 30.4711 43.625 30.8567 43.625C32.5923 43.625 33.1708 42.075 33.5565 41.1062C33.7493 40.525 33.9421 39.9437 34.135 39.9437C34.5207 40.1375 34.9063 41.4938 35.292 42.2688C36.0634 44.2063 36.8347 46.5312 38.5702 46.5312C38.7631 46.5312 38.7631 46.5312 38.9559 46.5312C39.3416 46.5312 39.6143 46.3875 40 46ZM38.9559 45.175C38.9559 45.175 38.9559 45.3688 38.7631 45.3688C37.7989 45.5625 37.0275 43.4312 36.449 41.8812C35.8705 40.1375 35.292 38.7812 34.3278 38.7812C33.1708 38.7812 32.7851 39.75 32.3994 40.7188C32.0138 41.8813 31.6281 42.4625 30.8567 42.4625C30.2782 42.4625 29.8926 42.075 29.5069 41.4938C30.8567 38.0063 33.9421 35.2938 34.9063 34.325C35.6777 34.9062 37.4132 36.4563 38.7631 38.5875C39.5 40.5 40.2455 43.2316 38.9559 45.175Z" fill="white"/>
</svg>
