<svg width="123" height="123" viewBox="0 0 123 123" fill="none" xmlns="http://www.w3.org/2000/svg">
<path d="M123 61.4999C123 64.2923 122.796 67.0846 122.455 69.8089C122.115 72.1926 121.707 74.5082 121.094 76.8238C114.696 101.751 93.1179 120.548 66.8434 122.796C65.0736 122.932 63.3038 123 61.534 123C27.4997 123.068 0 95.485 0 61.4999C0 27.5149 27.4997 0 61.466 0C95.1599 0 122.455 27.0382 122.932 60.6146C123 60.887 123 61.2275 123 61.4999Z" fill="#5EC2EB"/>
<path d="M89.5968 72.8373C90.8936 69.2248 90.8936 65.3998 90.6774 61.7873C90.4613 56.8998 90.029 51.7998 89.5968 46.9123C89.3806 43.7248 87.0032 41.5998 83.9774 41.5998C82.8968 41.5998 82.0323 41.8123 81.1677 42.4498C82.2484 38.8373 80.7355 36.7123 75.9806 35.0123C75.9806 32.4623 75.5484 30.9748 73.171 29.6998C70.7935 28.4248 68.6323 28.2123 66.471 30.7623L65.8226 31.3998C65.6065 29.9123 64.3097 29.0623 63.229 28.6373C61.5 27.9998 59.9871 27.9998 58.6903 28.6373C58.2581 28.6373 57.8258 28.8498 57.3936 29.0623C56.529 29.4873 55.2323 30.5498 55.0161 31.8248L54.3677 31.1873C52.2065 28.6373 49.829 28.8498 47.6677 30.3373C45.5065 31.6123 45.0742 33.3123 45.2903 35.8623C40.9677 37.5623 39.4548 39.6873 40.1032 42.6623C39.2387 42.2373 38.3742 42.0248 37.2935 42.0248C34.4839 42.2373 32.1065 44.3623 32.1065 47.5498C31.8903 52.4373 31.6742 57.5373 31.4581 62.6373C31.4581 66.4623 31.4581 70.0748 32.971 73.6873L28 81.7623L52.2065 95.9998L57.6097 87.0748C58.9065 86.6498 59.9871 86.2248 61.2839 85.5873C62.5806 86.4373 64.0936 86.8623 65.6065 87.2873L71.4419 95.9998L95 80.9123L89.5968 72.8373ZM73.3871 39.8998C74.4677 37.9873 75.7645 37.5623 77.2774 38.1998C78.7903 39.0498 79.2226 40.1123 78.1419 42.0248C77.2774 43.7248 76.1968 45.2123 75.3323 46.9123C74.2516 45.2123 73.171 43.7248 72.0903 42.0248C72.5226 41.3873 72.9548 40.5373 73.3871 39.8998ZM78.1419 48.6123C78.1419 49.2498 78.1419 49.8873 77.9258 50.7373C77.4935 50.3123 77.2774 49.8873 77.0613 49.6748C77.2774 49.2498 77.7097 48.8248 78.1419 48.6123ZM67.7677 33.3123C68.8484 31.6123 69.929 31.1873 71.4419 31.6123C73.171 32.2498 73.6032 33.9498 72.5226 35.8623C71.8742 36.9248 71.0097 38.1998 70.3613 39.2623C69.2806 37.5623 68.2 36.0748 67.1194 34.3748C67.1194 34.1623 67.5516 33.7373 67.7677 33.3123ZM58.0419 83.8873C57.3935 84.0998 56.9613 84.3123 56.3129 84.3123L54.8 86.8623L54.5839 87.4998L50.9097 93.4498L31.0258 81.7623L34.4839 76.2373L34.9161 75.3873L36.2129 73.4748C35.9968 73.0498 35.7806 72.6248 35.5645 71.9873C35.3484 71.5623 35.1323 70.9248 35.1323 70.2873C34.7 69.4373 34.4839 68.3748 34.4839 67.0998C34.4839 60.7248 34.7 54.3498 34.7 47.7623C34.9161 46.0623 35.9968 44.9998 37.5097 44.9998C38.8065 44.9998 39.671 45.6373 40.3194 46.6998C39.8871 46.9123 39.4548 47.1248 39.0226 47.5498C37.0774 49.8873 36.8613 53.0748 38.3742 55.6248C43.129 63.0623 47.8839 70.4998 52.8548 77.7248C53.7194 79.2123 54.8 80.4873 56.0968 81.7623C56.9613 82.6123 57.6097 83.2498 58.4742 83.8873C58.2581 83.8873 58.2581 83.8873 58.0419 83.8873ZM68.6323 87.4998L68.2 86.8623L66.471 84.3123C65.8226 84.3123 65.3903 84.0998 64.7419 83.8873C64.0935 83.6748 63.4452 83.4623 62.7968 83.0373C59.9871 81.7623 57.6097 79.4248 55.8806 76.8748C53.2871 73.2623 50.9097 69.4373 48.3161 65.6123C45.7226 61.7873 43.129 57.7498 40.5355 53.9248C40.3194 53.4998 39.4548 52.4373 39.671 51.3748C39.8871 50.5248 40.3194 50.0998 40.9677 49.4623C41.6161 49.0373 42.9129 49.2498 43.5613 49.4623C44.4258 49.8873 44.8581 50.7373 45.5065 51.3748C46.8032 53.0748 47.8839 54.9873 49.1806 56.6873C49.829 57.5373 50.2613 58.3873 50.9097 59.2373C51.5581 60.0873 52.8548 62.6373 54.1516 61.7873C55.4484 60.9373 53.7194 58.8123 53.071 57.9623C52.4226 57.1123 51.9903 56.2623 51.3419 55.4123C48.7484 51.3748 45.9387 47.3373 43.3452 43.0873C42.2645 41.3873 42.4806 40.1123 43.9935 39.2623C45.5065 38.4123 46.8032 38.8373 47.8839 40.7498C51.1258 45.4248 54.1516 50.0998 57.1774 54.7748C57.6097 55.4123 57.8258 56.0498 58.6903 56.2623C59.3387 56.4748 59.9871 56.2623 60.2032 55.8373C60.6355 54.7748 60.2032 54.3498 59.771 53.4998C56.0968 47.7623 52.4226 42.2373 48.7484 36.7123C47.4516 34.7998 47.8839 33.3123 49.6129 32.4623C50.9097 31.8248 52.2065 32.4623 53.2871 33.9498C56.9613 39.4748 60.8516 45.2123 64.5258 50.7373C65.1742 51.5873 65.8226 52.4373 66.9032 51.5873C67.9839 50.9498 67.3355 49.8873 66.9032 49.0373C64.0936 44.7873 61.0677 40.3248 58.2581 36.0748C57.8258 35.4373 57.3936 34.7998 57.3936 34.1623C56.9613 32.6748 58.0419 31.1873 59.5548 30.9748C61.0677 30.7623 61.9323 31.6123 62.5806 32.6748C67.5516 40.1123 72.3065 47.3373 77.2774 54.7748C77.7097 55.4123 78.7903 56.2623 79.4387 56.2623C80.7355 56.2623 80.5194 54.9873 80.7355 53.9248C80.9516 51.5873 80.9516 49.2498 81.3839 46.9123C81.6 44.9998 82.6806 44.1498 84.1936 44.1498C85.4903 44.1498 86.7871 45.2123 86.7871 47.1248C87.2194 53.4998 87.6516 59.8748 87.8677 66.4623C87.8677 67.5248 87.8677 68.7998 87.6516 69.8623C87.6516 70.4998 87.4355 70.9248 87.2194 71.5623C87.0032 71.9873 87.0032 72.6248 86.7871 73.0498L88.0839 74.9623L88.5161 75.8123L92.1903 81.1248L72.7387 93.6623L68.6323 87.4998Z" fill="white"/>
<path d="M74.0355 58.1748C71.8743 58.1748 69.9291 59.2373 68.8485 61.1498C67.7678 59.2373 65.8226 58.1748 63.6614 58.1748C61.0678 58.1748 58.6904 59.8748 57.8259 62.4248C57.6097 63.0623 57.3936 63.9123 57.3936 64.5498C57.3936 65.1873 57.6097 66.0373 57.8259 66.6748V66.8873L58.6904 66.4623L57.8259 66.8873L58.6904 66.4623L57.8259 66.8873C58.042 67.5248 58.4743 68.1623 58.9065 68.5873C59.1226 68.7998 59.3388 69.0123 59.5549 69.2248L68.8485 78.7873L78.3581 68.7998C79.0065 68.1623 79.4388 67.3123 79.871 66.4623C80.0872 65.8248 80.3033 64.9748 80.3033 64.3373C80.3033 60.9373 77.4936 58.1748 74.0355 58.1748ZM77.9259 66.0373C77.7097 66.6748 77.2775 67.0998 76.8452 67.7373L68.8485 76.0248L61.0678 67.9498C60.8517 67.7373 60.6356 67.7373 60.6356 67.5248C60.4194 67.0998 60.2033 66.8873 59.9872 66.2498V66.0373C59.771 65.6123 59.771 65.1873 59.771 64.5498C59.771 64.1248 59.771 63.4873 59.9872 63.0623C60.6356 61.3623 62.1485 60.2998 63.8775 60.2998C65.3904 60.2998 66.9033 61.3623 67.5517 62.8498C67.7678 63.4873 68.4162 63.9123 69.0646 63.9123C69.713 63.9123 70.3614 63.4873 70.5775 62.8498C71.2259 61.3623 72.7388 60.2998 74.2517 60.2998C76.413 60.2998 78.3581 62.2123 78.3581 64.7623C78.142 64.9748 78.142 65.6123 77.9259 66.0373Z" fill="white"/>
</svg>
