<svg width="123" height="123" viewBox="0 0 123 123" fill="none" xmlns="http://www.w3.org/2000/svg">
<path d="M61.5 123C27.5552 123 0 95.4448 0 61.5C0 27.5552 27.5552 0 61.5 0C95.4448 0 123 27.5552 123 61.5C123 95.4448 95.4448 123 61.5 123Z" fill="#5EC2EB"/>
<path d="M70.6762 95.1882C70.6613 95.7443 70.1809 96.1883 69.6256 96.1735L53.9515 96.0751C53.3599 96.0546 52.9108 95.6101 52.9258 95.0541L52.9357 93.6038C52.9507 93.0478 53.431 92.6037 53.9863 92.6185L69.6546 92.7532C70.2462 92.7738 70.6953 93.2182 70.6803 93.7742L70.6762 95.1882Z" fill="white"/>
<path d="M68.9179 100.118C68.9029 100.674 68.5313 101.135 68.0543 101.096L55.428 101.003C54.9452 101 54.5744 100.531 54.5894 99.9751L54.5993 98.5248C54.6143 97.9688 54.9859 97.5073 55.4629 97.5467L68.0892 97.6394C68.572 97.6425 68.9428 98.1116 68.9278 98.6676L68.9179 100.118Z" fill="white"/>
<path d="M65.0749 102.516C65.0733 104.377 63.5307 105.879 61.6777 105.842C59.8188 105.841 58.3194 104.297 58.3572 102.442" fill="white"/>
<path d="M71.6013 90.1251L52.4024 89.9816C51.1771 89.9709 50.2168 88.7742 50.2384 87.2514C50.2288 86.6169 50.4367 86.0174 50.7358 85.5443C50.2989 80.8578 47.3126 76.7669 45.1169 73.7709C44.2291 72.5859 43.505 71.5389 43.0171 70.6415C40.9206 67.0286 39.8714 62.9138 39.8779 58.7081C39.8907 55.6202 40.5196 52.6313 41.6805 49.8023C42.8239 47.0822 44.4456 44.6251 46.4919 42.534C48.5381 40.4429 50.9551 38.8209 53.5921 37.681C56.3495 36.486 59.2674 35.9124 62.2731 35.9486C65.2789 35.9847 68.1914 36.6016 70.9322 37.8237C73.5702 38.9921 75.9395 40.6757 77.9792 42.7904C80.019 44.9051 81.5901 47.3912 82.6738 50.134C83.8183 52.9611 84.3726 55.9912 84.3598 59.079C84.3466 61.0128 84.1042 62.9842 83.6198 64.8422C83.2474 66.2343 82.7721 67.5726 82.1519 68.8876L82.2185 68.9356L81.5491 70.0938C81.3879 70.4029 81.2325 70.6758 81.0409 70.9428C80.5269 71.8282 79.7662 72.86 78.8735 74.0196C76.6628 76.9033 73.6914 80.8188 73.0654 85.409C73.3754 85.7938 73.6445 86.4327 73.6321 87.4359C73.6305 89.2971 72.6032 90.1372 71.6013 90.1251ZM52.6305 87.6357L71.2321 87.7949C71.2496 87.686 71.2671 87.5771 71.2542 87.4261C71.2529 87.2026 71.24 87.0516 71.2154 86.9732L70.5442 86.7537L70.6175 85.8347C71.0992 80.2907 74.4901 75.8469 76.9462 72.5931C77.7911 71.5003 78.5038 70.5352 78.922 69.7834L78.9279 69.7471C79.0833 69.4742 79.2386 69.2014 79.394 68.9285C81.0307 65.9154 81.8745 62.5143 81.9094 59.0576C81.948 56.2717 81.4138 53.5799 80.4096 51.036C79.4301 48.5705 77.9994 46.3675 76.1842 44.4751C74.369 42.5826 72.2663 41.0908 69.9067 40.0415C67.4803 38.9444 64.8578 38.3741 62.1841 38.3541C59.5104 38.334 56.9 38.8453 54.4254 39.8997C52.0292 40.9294 49.9009 42.3744 48.0767 44.2405C46.2162 46.1009 44.7862 48.291 43.756 50.7687C42.678 53.3131 42.1378 55.9812 42.1354 58.7729C42.1206 62.5678 43.0832 66.2964 44.948 69.4998L44.9784 69.5419C45.4113 70.3188 46.1108 71.2874 46.932 72.4245C49.3709 75.7574 52.7223 80.3537 53.0554 85.917L53.0708 86.5151L52.6384 86.8924C52.5963 86.9228 52.531 87.0985 52.5264 87.3583C52.5872 87.4426 52.606 87.5573 52.6305 87.6357Z" fill="white"/>
<path d="M62.3365 30.0021C61.6666 30.0061 61.1567 29.4775 61.1529 28.8068L61.2378 19.2528C61.234 18.582 61.7623 18.0713 62.4322 18.0672C63.1021 18.0631 63.612 18.5918 63.6158 19.2625L63.5308 28.8165C63.4984 29.4814 62.9702 29.9922 62.3365 30.0021Z" fill="white"/>
<path d="M99.1592 58.1433L89.6171 58.0622C88.9472 58.0662 88.4372 57.5376 88.4334 56.8669C88.4297 56.1961 88.9579 55.6854 89.6278 55.6813L99.17 55.7625C99.8399 55.7584 100.35 56.2871 100.354 56.9578C100.321 57.6227 99.7929 58.1335 99.1592 58.1433Z" fill="white"/>
<path d="M34.6211 57.6399L25.0789 57.5588C24.409 57.5628 23.8991 57.0342 23.8953 56.3634C23.8915 55.6927 24.4198 55.1819 25.0897 55.1779L34.6318 55.259C35.3017 55.255 35.8117 55.7836 35.8155 56.4544C35.8192 57.1251 35.291 57.6359 34.6211 57.6399Z" fill="white"/>
<path d="M81.6567 35.6377C81.3971 35.6332 81.113 35.5503 80.8826 35.3644C80.3914 34.9504 80.3268 34.1955 80.7767 33.7094L87.0308 26.4867C87.4444 25.9947 88.1985 25.9298 88.6838 26.38C89.175 26.794 89.2396 27.5489 88.7897 28.0351L82.5357 35.2577C82.3499 35.4885 81.9887 35.6538 81.6567 35.6377Z" fill="white"/>
<path d="M42.667 35.33C42.335 35.3139 41.9842 35.1831 41.7655 34.9246L35.6224 27.5716C35.2212 27.0604 35.2653 26.3229 35.776 25.921C36.2868 25.5191 37.0233 25.563 37.4245 26.0742L43.5735 33.3909C43.9747 33.9021 43.9306 34.6395 43.4198 35.0415C43.2036 35.2301 42.9266 35.3345 42.667 35.33Z" fill="white"/>
</svg>
