<svg width="123" height="123" viewBox="0 0 123 123" fill="none" xmlns="http://www.w3.org/2000/svg">
<path d="M123 61.4999C123 64.2923 122.796 67.0846 122.455 69.8089C122.115 72.1926 121.707 74.5082 121.094 76.8238C114.696 101.751 93.1179 120.548 66.8434 122.796C65.0736 122.932 63.3038 123 61.534 123C27.4997 123.068 0 95.485 0 61.4999C0 27.5149 27.4997 0 61.466 0C95.1599 0 122.455 27.0382 122.932 60.6146C123 60.887 123 61.2275 123 61.4999Z" fill="#5EC2EB"/>
<g clip-path="url(#clip0)">
<path d="M48.1795 88.4711C46.3142 87.6203 44.9576 86.9396 44.1097 86.259C43.601 85.9187 43.2618 85.7485 43.0922 85.5783C42.9227 85.5783 42.9227 85.4082 42.7531 85.4082C41.9052 84.8977 40.8877 84.8977 40.2094 85.7485C39.5311 86.4291 39.7007 87.6203 40.5486 88.3009C47.1621 93.9163 53.2668 96.9793 59.202 97.8301C60.389 98.0002 61.576 98.1704 62.7631 98.1704C64.4588 98.1704 66.1546 98.0002 67.8503 97.6599C70.2244 97.1494 72.4289 96.2986 74.9725 95.2776L76.3291 97.3196C76.6683 97.8301 77.3466 98.1704 78.0249 98.0002C78.7032 98.0002 79.2119 97.4897 79.5511 96.8091L83.4513 86.9396C83.6209 86.4291 83.6209 85.7485 83.2818 85.4082C82.9426 84.8977 82.4339 84.5574 81.9251 84.5574L71.4114 83.3662C70.7331 83.3662 70.0548 83.5364 69.7157 84.217C69.3765 84.7275 69.3765 85.5783 69.7157 86.0888L70.7331 87.9606C67.8503 89.6622 64.798 90.6832 61.576 91.0235C56.1496 91.3639 51.4015 89.8324 48.1795 88.4711ZM72.9376 89.1518C73.4463 88.8114 73.6159 88.1308 73.2768 87.6203L72.0897 85.5783L80.7381 86.5993L77.5162 94.7671L76.1596 92.7252C75.8204 92.2147 75.1421 92.0445 74.6334 92.3849C71.9202 93.7462 69.5461 94.597 67.172 95.1075C64.4588 95.618 61.9152 95.7881 59.3715 95.2776C55.8104 94.7671 52.2493 93.4058 48.5187 91.0235C51.9102 92.3849 56.6583 93.576 61.7456 93.0655C65.6458 92.7252 69.3765 91.3639 72.9376 89.1518Z" fill="white"/>
<path d="M79.0423 36.7415C79.551 37.0818 79.8901 37.2519 80.0597 37.4221C80.2293 37.4221 80.2293 37.5923 80.3989 37.5923C81.2468 38.1028 82.2642 38.1028 82.9425 37.2519C83.6208 36.4011 83.4512 35.3801 82.6034 34.6995C75.9899 29.0841 69.8852 26.0212 63.95 25.1704C61.0672 24.6599 58.1844 24.83 55.3016 25.5107C52.9276 26.0212 50.7231 26.872 48.1794 27.893L46.8228 25.851C46.4837 25.3405 45.8054 25.0002 45.1271 25.1704C44.4487 25.1704 43.94 25.6808 43.6009 26.3615L39.8702 36.231C39.7006 36.7415 39.7006 37.2519 39.8702 37.7624C40.2093 38.2729 40.7181 38.6132 41.2268 38.6132L51.7405 39.8044H51.9101C52.5884 39.8044 53.0971 39.4641 53.4363 38.9536C53.7754 38.4431 53.7754 37.5923 53.4363 37.0818L52.4188 35.21C55.3016 33.5084 58.354 32.4874 61.5759 32.147C66.8328 31.6366 71.7505 33.168 74.8029 34.5293C76.6682 35.3801 78.0248 36.0608 79.0423 36.7415ZM61.4064 29.9349C57.5061 30.2753 53.7754 31.6366 50.2143 34.0188C49.7056 34.3592 49.536 35.0398 49.8752 35.5503L50.8926 37.4221L42.2443 36.4011L45.4662 28.2333L46.8228 30.1051C47.162 30.6156 47.8403 30.7857 48.349 30.4454C51.0622 29.0841 53.4363 28.2333 55.8103 27.7228C58.5236 27.2123 61.0672 27.0422 63.6108 27.5526C67.1719 28.0631 70.733 29.4244 74.4637 31.8067C71.2418 30.6156 66.4936 29.4244 61.4064 29.9349Z" fill="white"/>
<path d="M40.3791 64.4782C42.9227 64.4782 45.4663 63.4572 47.3317 61.5854C49.197 59.7136 50.2145 57.3313 50.2145 54.6087C50.2145 49.1635 45.8055 44.7393 40.3791 44.7393C37.8354 44.7393 35.2918 45.7602 33.4264 47.632C31.5611 49.5038 30.5436 51.8861 30.5436 54.6087C30.5436 60.0539 34.9526 64.4782 40.3791 64.4782ZM35.2918 49.5038C36.6484 48.1425 38.5137 47.4619 40.3791 47.4619C44.2793 47.4619 47.5012 50.695 47.5012 54.6087C47.5012 56.4805 46.8229 58.3523 45.4663 59.7136C44.1097 61.0749 42.2444 61.7556 40.3791 61.7556C36.4788 61.7556 33.2569 58.5225 33.2569 54.6087C33.2569 52.7369 33.9352 50.8651 35.2918 49.5038Z" fill="white"/>
<path d="M52.7581 78.2613C52.7581 77.921 52.9277 69.583 47.8404 64.8184C47.3317 64.3079 46.6534 64.3079 46.1446 64.8184C46.1446 64.8184 40.3791 69.2427 34.9526 64.8184C34.4439 64.4781 33.7656 64.4781 33.2569 64.8184C33.0873 64.9886 28.1696 69.4128 28 78.2613C28 78.6016 28.1696 78.942 28.3392 79.1121C28.6783 79.2823 29.0175 79.4524 29.3566 79.4524H51.5711C52.2494 79.4524 52.7581 78.942 52.7581 78.2613ZM30.7132 76.9C31.0524 71.9653 33.2569 68.9023 34.4439 67.541C39.192 70.604 44.1097 69.2427 46.8229 67.541C49.5362 70.604 50.0449 74.858 50.2145 76.9H30.7132Z" fill="white"/>
<path d="M76.6683 47.802C74.803 49.6737 73.7855 52.056 73.7855 54.7786C73.7855 60.2239 78.1945 64.6481 83.6209 64.6481C86.1646 64.6481 88.7082 63.6271 90.5736 61.7553C92.4389 59.8835 93.4564 57.5013 93.4564 54.7786C93.4564 49.3334 89.0474 44.9092 83.6209 44.9092C81.0773 44.9092 78.5337 45.9302 76.6683 47.802ZM90.7431 54.6085C90.7431 56.4803 90.0648 58.3521 88.7082 59.7134C87.3516 61.0747 85.4863 61.7553 83.6209 61.7553C79.7207 61.7553 76.4988 58.5222 76.4988 54.6085C76.4988 52.7367 77.1771 50.8649 78.5337 49.5036C79.8903 48.1423 81.7556 47.4616 83.6209 47.4616C87.5212 47.4616 90.7431 50.6947 90.7431 54.6085Z" fill="white"/>
<path d="M91.0823 64.8184C90.5736 64.3079 89.8953 64.3079 89.3865 64.8184C89.3865 64.8184 83.621 69.2427 78.1945 64.8184C77.6858 64.4781 77.0075 64.4781 76.4988 64.8184C76.3292 64.9886 71.2419 69.4128 71.2419 78.2613C71.2419 78.6016 71.4115 78.942 71.5811 79.1121C71.7506 79.2823 72.0898 79.4524 72.4289 79.4524H94.6434C95.3217 79.4524 95.8304 78.942 96 78.2613C96 77.921 96.1696 69.583 91.0823 64.8184ZM73.9551 76.9C74.2943 71.9653 76.4988 68.9023 77.6858 67.541C82.4339 70.604 87.3516 69.2427 90.0648 67.541C92.7781 70.604 93.2868 74.858 93.4564 76.9H73.9551Z" fill="white"/>
</g>
<defs>
<clipPath id="clip0">
<rect width="68" height="73" fill="white" transform="translate(28 25)"/>
</clipPath>
</defs>
</svg>
