<svg width="123" height="123" viewBox="0 0 123 123" fill="none" xmlns="http://www.w3.org/2000/svg">
<path d="M123 61.4999C123 64.2923 122.796 67.0846 122.455 69.8089C122.115 72.1926 121.707 74.5082 121.094 76.8238C114.696 101.751 93.1179 120.548 66.8434 122.796C65.0736 122.932 63.3038 123 61.534 123C27.4997 123.068 0 95.485 0 61.4999C0 27.5149 27.4997 0 61.466 0C95.1599 0 122.455 27.0382 122.932 60.6146C123 60.887 123 61.2275 123 61.4999Z" fill="#5EC2EB"/>
<path d="M53.8694 50.4426C53.8694 50.8305 54.2548 51.2185 54.6402 51.2185C55.0256 51.4125 55.411 51.2185 55.7965 51.0245L58.6871 48.6967V63.2458H55.0256C54.6402 63.2458 54.4475 63.4398 54.2548 63.6338C54.0621 63.8278 53.8694 64.2158 53.8694 64.4098V68.0956C53.8694 68.4835 54.0621 68.6775 54.2548 68.8715C54.4475 69.0655 54.8329 69.2595 55.0256 69.2595H70.2496C70.635 69.2595 70.8277 69.0655 71.0204 68.8715C71.2131 68.6775 71.4058 68.2896 71.4058 68.0956V64.4098C71.4058 64.0218 71.2131 63.8278 71.0204 63.6338C70.8277 63.4398 70.4423 63.2458 70.2496 63.2458H66.5881V41.3251C66.5881 40.9371 66.3954 40.7431 66.2027 40.5491C66.01 40.3551 65.6246 40.1611 65.4319 40.1611H60.6142C60.4215 40.1611 60.2288 40.1611 60.0361 40.3551L53.484 45.0109C53.0985 45.2048 52.9058 45.7868 53.0985 46.1748L53.8694 50.4426ZM60.6142 41.5191H65.2392V64.7977H70.2496V68.2896H55.2183V64.7977H60.0361V46.3688L55.2183 50.2486L54.2548 46.1748L60.6142 41.5191Z" fill="white"/>
<path d="M24 84.3907C24.1927 84.7787 24.5781 85.1667 24.9635 85.1667L34.599 85.9426L34.9844 94.8661C34.9844 95.2541 35.1771 95.6421 35.5625 95.8361C35.7552 95.8361 35.7552 95.8361 35.9479 95.8361C36.1406 95.8361 36.526 95.8361 36.7187 95.6421L54.6406 79.541L55.4115 81.8689C55.7969 83.0328 56.7604 83.6148 57.724 83.6148C58.4948 83.6148 59.2656 83.2268 59.8437 82.4508L62.9271 78.571C63.1198 78.1831 63.5052 77.9891 63.8906 77.9891C64.0833 77.9891 64.4687 77.9891 64.8542 78.3771L68.5156 81.6749C69.0937 82.2568 69.6719 82.4508 70.4427 82.4508C70.8281 82.4508 71.4062 82.2568 71.7917 82.0628L84.7031 96.418C84.8958 96.612 85.2812 96.806 85.4739 96.806C85.6667 96.806 85.6667 96.806 85.8594 96.806C86.2448 96.612 86.6302 96.2241 86.6302 95.8361L87.5937 87.1066L97.2292 86.1366C97.6146 86.1366 98 85.7486 98.1927 85.3607C98.3854 84.9727 98.1927 84.5847 98 84.1967L82.0052 66.7377C82.0052 66.7377 82.0052 66.7377 82.0052 66.5437C82.1979 66.1557 82.5833 65.9618 82.9687 65.9618L87.7864 64.7978C88.75 64.6038 89.5208 64.0219 89.7135 63.0519C89.9062 62.276 89.7135 61.306 88.9427 60.5301L85.4739 57.0383C85.2812 56.8443 85.0885 56.4563 85.0885 56.0683C85.0885 55.6803 85.2812 55.2924 85.4739 55.0984L89.3281 51.8005C90.099 51.0246 90.4844 50.2486 90.2917 49.2787C90.099 48.5027 89.5208 47.7268 88.3646 47.3388L83.7396 45.7869C83.3542 45.5929 83.1615 45.3989 82.9687 45.0109C82.776 44.623 82.776 44.235 82.9687 43.847L84.7031 39.1913C85.0885 38.2213 85.0885 37.4454 84.5104 36.6694C83.9323 35.8934 83.1615 35.5055 82.0052 35.6995L76.9948 36.4754C76.224 36.6694 75.4531 36.0874 75.4531 35.3115L74.875 30.2678C74.6823 28.5219 73.526 27.9399 72.5625 27.9399C71.9844 27.9399 71.4062 28.1339 70.8281 28.5219L66.974 31.8197C66.3958 32.2077 65.4323 32.2077 65.0469 31.4317L62.349 27.1639C61.7708 26.388 61 26 60.0365 26C59.0729 26 58.3021 26.582 57.724 27.5519L55.6042 32.0137C55.2187 32.7896 54.4479 32.9836 53.6771 32.5956L49.2448 30.2678C48.2812 29.8798 47.125 29.8798 46.3542 30.6557C45.9687 31.0437 45.5833 31.6257 45.5833 32.7896L45.776 37.8333C45.776 38.2213 45.5833 38.6093 45.3906 38.8033C45.1979 38.9973 44.8125 39.1913 44.4271 39.1913H39.4167C38.4531 39.1913 37.4896 39.5792 37.1042 40.3552C36.7187 41.1311 36.9115 41.9071 37.2969 42.8771L39.8021 47.3388C39.9948 47.7268 39.9948 48.1148 39.9948 48.5027C39.8021 48.8907 39.6094 49.0847 39.224 49.2787L34.7917 51.6066C33.8281 52.1885 33.25 52.7705 33.25 53.7404C33.25 54.5164 33.6354 55.4863 34.599 56.0683L38.8385 58.7842C39.224 58.7842 39.4167 58.9781 39.4167 59.3661C39.4167 59.7541 39.4167 60.1421 39.224 60.3361L36.3333 64.4098C35.7552 65.1858 35.5625 66.1557 35.9479 66.9317C36.3333 67.7077 37.1042 68.2896 38.2604 68.2896L40.1875 68.4836L24.3854 82.8388C24 83.4208 24 84.0027 24 84.3907ZM82.1979 75.6612L82.3906 75.4672C82.5833 75.2732 82.776 75.2732 82.9687 75.0792C83.3542 74.4973 83.5469 73.5273 83.3542 72.7514L82.9687 71.1995L94.9167 84.5847L86.6302 85.3607C86.0521 85.3607 85.6667 85.7486 85.6667 86.3306L84.8958 93.5082L72.9479 80.3169L73.9115 75.8552C73.9115 75.6612 74.1042 75.4672 74.1042 75.4672C74.4896 75.2732 74.6823 75.2732 75.0677 75.2732L79.8854 76.6312C80.6562 76.4372 81.6198 76.2432 82.1979 75.6612ZM38.4531 66.5437C38.0677 66.5437 38.0677 66.3497 37.875 66.3497C37.875 66.3497 37.875 66.1557 38.0677 65.9618L40.9583 61.888C41.151 61.5 41.3437 61.306 41.3437 61.112C41.5365 60.5301 41.7292 59.7541 41.5365 58.9781C41.3437 58.0082 40.7656 57.2322 39.9948 56.6503L35.7552 53.9344C35.5625 53.9344 35.5625 53.9344 35.5625 53.7404V53.5464C35.5625 53.5464 35.5625 53.3525 35.9479 53.1585L38.2604 51.9945L40.3802 50.8306C41.3437 50.4426 41.9219 49.6667 42.1146 48.6967C42.3073 47.7268 42.3073 46.9508 41.9219 45.9809C41.9219 45.9809 41.9219 45.9809 41.9219 45.7869L39.224 41.9071C39.0312 41.7131 39.0312 41.5191 39.0312 41.3251C39.0312 41.3251 39.224 41.3251 39.4167 41.3251H40.7656H44.6198C45.5833 41.3251 46.5469 40.9372 47.125 40.1612C47.5104 39.7732 47.7031 39.3852 47.8958 38.9973C47.8958 38.9973 47.8958 38.9973 47.8958 38.8033C48.0885 38.4153 48.0885 38.0273 48.0885 37.4454L47.8958 32.4016C47.8958 32.0137 47.8958 31.8197 48.0885 31.8197C48.0885 31.8197 48.2812 31.8197 48.474 32.0137L52.1354 33.9536L52.9062 34.7295H53.099C53.4844 34.9235 54.0625 35.1175 54.6406 35.1175C55.6042 35.1175 56.375 34.7295 56.9531 34.1475C57.3385 33.7596 57.5312 33.5656 57.724 33.1776L59.8437 28.7158C59.8437 28.7158 59.8437 28.5219 60.0365 28.5219C60.0365 28.3279 60.2292 28.3279 60.2292 28.3279L60.4219 28.5219L62.349 31.4317L63.3125 32.7896C63.5052 33.1776 63.8906 33.3716 64.0833 33.5656C64.6615 33.9536 65.4323 34.3415 66.2031 34.3415C66.3958 34.3415 66.5885 34.3415 66.7812 34.3415C67.3594 34.1475 67.7448 33.7596 68.3229 33.5656L69.8646 32.4016L72.1771 30.4617C72.3698 30.2678 72.5625 30.2678 72.5625 30.2678C72.5625 30.2678 72.7552 30.4617 72.7552 30.8497L73.3333 35.6995C73.3333 36.4754 73.7187 37.0574 74.1042 37.6393C74.2969 37.8333 74.4896 38.0273 74.6823 38.2213C75.4531 38.8033 76.4167 38.9973 77.3802 38.8033L82.3906 38.0273C82.5833 38.0273 82.9687 38.0273 82.9687 38.0273C82.9687 38.0273 82.9687 38.2213 82.9687 38.4153L81.0417 43.071C81.0417 43.265 81.0417 43.265 80.849 43.459C80.6562 44.041 80.6562 44.8169 80.849 45.3989C80.849 45.5929 80.849 45.5929 81.0417 45.7869C81.0417 45.9809 81.2344 46.1749 81.2344 46.1749C81.6198 46.7568 82.1979 47.3388 82.9687 47.5328L86.4375 48.6967L87.5937 49.0847C87.7865 49.0847 87.9792 49.2787 87.9792 49.2787C87.9792 49.2787 87.9792 49.4727 87.7864 49.4727L87.5937 49.6667L85.6667 52.1885L84.3177 53.3525C83.5469 53.9344 83.1615 54.9044 83.1615 55.8743C83.1615 56.8443 83.5469 57.8142 84.125 58.3962L87.5937 62.082C87.7865 62.276 87.7864 62.4699 87.7864 62.4699C87.7864 62.4699 87.5937 62.6639 87.401 62.6639L82.5833 63.8279C81.6198 64.0219 80.849 64.6038 80.2708 65.3798C80.0781 65.5738 80.0781 65.7678 80.0781 65.9618C80.0781 66.1557 79.8854 66.3497 79.8854 66.5437C79.5 67.3197 79.3073 67.9016 79.5 68.4836L80.849 73.3333L76.0312 72.1694C75.8385 72.1694 75.6458 72.1694 75.4531 72.1694C75.2604 72.1694 75.2604 72.1694 75.0677 72.1694C74.875 72.1694 74.6823 72.1694 74.4896 72.1694C74.4896 72.1694 74.4896 72.1694 74.2969 72.1694C74.1042 72.1694 73.9115 72.1694 73.9115 72.3634H73.7187C73.7187 72.3634 73.526 72.3634 73.526 72.5574C73.3333 72.5574 73.3333 72.7514 73.1406 72.7514C73.1406 72.7514 73.1406 72.7514 72.9479 72.7514C72.7552 72.9454 72.5625 72.9454 72.5625 73.1393C71.7917 73.7213 71.2135 74.4973 71.0208 75.2732L70.25 79.735C70.25 79.929 70.25 80.123 70.25 80.3169C70.25 80.3169 70.25 80.3169 70.0573 80.3169C70.0573 80.3169 69.8646 80.3169 69.8646 80.123L66.2031 76.8251C66.0104 76.6312 65.625 76.4372 65.2396 76.2432C64.8542 76.0492 64.276 75.8552 63.8906 75.8552C63.3125 75.8552 62.7344 76.0492 62.1562 76.2432C61.9635 76.4372 61.7708 76.4372 61.5781 76.6312C61.3854 76.8251 61.1927 77.0191 61 77.2131L57.9167 81.0929C57.9167 81.0929 57.9167 81.0929 57.724 81.2869C57.724 81.2869 57.724 81.2869 57.5312 81.4809H57.3385C57.3385 81.4809 57.1458 81.2869 57.1458 81.0929L55.9896 77.9891C56.375 77.6011 56.375 77.2131 56.1823 76.8251V76.6312C55.7969 75.6612 55.2187 75.0792 54.2552 74.6913C53.8698 74.4973 53.6771 74.4973 53.2917 74.4973C53.099 74.4973 52.9062 74.3033 52.7135 74.3033C52.5208 74.3033 52.3281 74.3033 52.1354 74.3033C51.9427 74.3033 51.75 74.3033 51.3646 74.3033C51.1719 74.3033 50.9792 74.4973 50.5937 74.4973L46.1615 76.4372C46.1615 76.4372 46.1615 76.4372 46.1615 76.2432L46.7396 71.1995C46.9323 70.2295 46.5469 69.2596 45.9687 68.4836C45.3906 67.7077 44.6198 67.3197 43.6562 67.3197C43.4635 67.3197 43.4635 67.3197 43.2708 67.1257C43.0781 67.1257 42.8854 67.1257 42.6927 66.9317L41.7292 66.7377L38.4531 66.5437ZM42.6927 69.4536L43.849 69.2596C44.0417 69.2596 44.0417 69.4536 44.0417 69.4536C44.2344 69.6475 44.4271 70.0355 44.2344 70.4235L43.6562 75.4672C43.4635 76.4372 43.6562 77.2131 44.2344 77.6011C44.6198 77.9891 45.0052 78.1831 45.5833 78.3771C46.1615 78.765 47.125 78.765 47.8958 78.3771L52.5208 76.4372C52.7135 76.4372 52.9062 76.2432 53.099 76.2432C53.2917 76.4372 53.4844 76.6311 53.6771 77.0191V77.2131L36.9115 92.3443L36.7187 84.7787C36.7187 84.1967 36.3333 83.8087 35.7552 83.8087L27.6615 83.2268L42.6927 69.4536Z" fill="white"/>
</svg>
