<svg width="716" height="707" viewBox="0 0 716 707" fill="none" xmlns="http://www.w3.org/2000/svg">
<g opacity="0.5">
<path d="M249.425 143.113L230.246 125.062" stroke="#F4DF93" stroke-width="5" stroke-miterlimit="10" stroke-linecap="round" stroke-linejoin="round"/>
<path d="M230.75 143.745L248.793 124.432" stroke="#F4DF93" stroke-width="5" stroke-miterlimit="10" stroke-linecap="round" stroke-linejoin="round"/>
<path d="M271.505 420.059L252.326 402.009" stroke="#F4DF93" stroke-width="5" stroke-miterlimit="10" stroke-linecap="round" stroke-linejoin="round"/>
<path d="M252.957 420.691L271 401.504" stroke="#F4DF93" stroke-width="5" stroke-miterlimit="10" stroke-linecap="round" stroke-linejoin="round"/>
<path d="M37.3196 574.815L18.1406 556.765" stroke="#F4DF93" stroke-width="5" stroke-miterlimit="10" stroke-linecap="round" stroke-linejoin="round"/>
<path d="M18.7715 575.446L36.8148 556.259" stroke="#F4DF93" stroke-width="5" stroke-miterlimit="10" stroke-linecap="round" stroke-linejoin="round"/>
<path d="M28.9926 116.731L9.6875 98.6807" stroke="#F4DF93" stroke-width="5" stroke-miterlimit="10" stroke-linecap="round" stroke-linejoin="round"/>
<path d="M10.3184 117.363L28.3617 98.0498" stroke="#F4DF93" stroke-width="5" stroke-miterlimit="10" stroke-linecap="round" stroke-linejoin="round"/>
<path d="M713.378 142.608L694.199 124.558" stroke="#F4DF93" stroke-width="5" stroke-miterlimit="10" stroke-linecap="round" stroke-linejoin="round"/>
<path d="M694.703 143.24L712.747 123.927" stroke="#F4DF93" stroke-width="5" stroke-miterlimit="10" stroke-linecap="round" stroke-linejoin="round"/>
<path d="M486.385 240.813L467.08 222.763" stroke="#F4DF93" stroke-width="5" stroke-miterlimit="10" stroke-linecap="round" stroke-linejoin="round"/>
<path d="M467.711 241.445L485.754 222.132" stroke="#F4DF93" stroke-width="5" stroke-miterlimit="10" stroke-linecap="round" stroke-linejoin="round"/>
<path d="M580.136 455.15L560.957 437.1" stroke="#F4DF93" stroke-width="5" stroke-miterlimit="10" stroke-linecap="round" stroke-linejoin="round"/>
<path d="M561.588 455.781L579.631 436.595" stroke="#F4DF93" stroke-width="5" stroke-miterlimit="10" stroke-linecap="round" stroke-linejoin="round"/>
<path d="M565.246 629.85L545.941 611.8" stroke="#F4DF93" stroke-width="5" stroke-miterlimit="10" stroke-linecap="round" stroke-linejoin="round"/>
<path d="M546.572 630.355L564.616 611.168" stroke="#F4DF93" stroke-width="5" stroke-miterlimit="10" stroke-linecap="round" stroke-linejoin="round"/>
<path d="M392.51 172.02L379.261 149.047L366.012 172.02L352.764 194.994H379.261L405.758 194.868L392.51 172.02Z" stroke="#F4DF93" stroke-width="5" stroke-miterlimit="10" stroke-linecap="round" stroke-linejoin="round"/>
<path d="M348.6 452.247L335.352 429.273L322.229 452.247L308.98 475.221H335.478L361.849 475.094L348.6 452.247Z" stroke="#F4DF93" stroke-width="5" stroke-miterlimit="10" stroke-linecap="round" stroke-linejoin="round"/>
<path d="M500.517 538.334L487.269 515.361L474.02 538.334L460.771 561.182H487.269H513.766L500.517 538.334Z" stroke="#F4DF93" stroke-width="5" stroke-miterlimit="10" stroke-linecap="round" stroke-linejoin="round"/>
<path d="M587.831 362.246L594.645 336.748L569.157 343.564L543.543 350.507L562.217 369.189L581.018 387.871L587.831 362.246Z" stroke="#F4DF93" stroke-width="5" stroke-miterlimit="10" stroke-linecap="round" stroke-linejoin="round"/>
<path d="M152.646 65.2306L159.459 39.7324L133.845 46.5488L108.357 53.4913L127.032 72.1731L145.832 90.8549L152.646 65.2306Z" stroke="#F4DF93" stroke-width="5" stroke-miterlimit="10" stroke-linecap="round" stroke-linejoin="round"/>
<path d="M134.476 618.111L141.289 592.487L115.802 599.303L90.1875 606.246L108.988 624.928L127.662 643.609L134.476 618.111Z" stroke="#F4DF93" stroke-width="5" stroke-miterlimit="10" stroke-linecap="round" stroke-linejoin="round"/>
<path d="M614.582 93.885L637.546 80.631L614.582 67.377L591.744 54.123V80.631V107.139L614.582 93.885Z" stroke="#F4DF93" stroke-width="5" stroke-miterlimit="10" stroke-linecap="round" stroke-linejoin="round"/>
<path d="M133.846 358.333L156.81 345.079L133.846 331.951L111.008 318.697V345.205V371.587L133.846 358.333Z" stroke="#F4DF93" stroke-width="5" stroke-miterlimit="10" stroke-linecap="round" stroke-linejoin="round"/>
<path d="M437.175 315.036C437.175 326.144 428.217 335.106 417.113 335.106C406.009 335.106 397.051 326.144 397.051 315.036C397.051 303.928 406.009 294.966 417.113 294.966C428.217 294.966 437.175 303.928 437.175 315.036Z" stroke="#F4DF93" stroke-width="5" stroke-miterlimit="10" stroke-linecap="round" stroke-linejoin="round"/>
<path d="M335.73 90.8555C335.73 101.964 326.771 110.926 315.668 110.926C304.564 110.926 295.605 101.964 295.605 90.8555C295.605 79.7474 304.564 70.7852 315.668 70.7852C326.771 70.7852 335.73 79.7474 335.73 90.8555Z" stroke="#F4DF93" stroke-width="5" stroke-miterlimit="10" stroke-linecap="round" stroke-linejoin="round"/>
<path d="M348.599 683.75C348.599 694.858 339.64 703.82 328.537 703.82C317.433 703.82 308.475 694.858 308.475 683.75C308.475 672.642 317.433 663.68 328.537 663.68C339.514 663.553 348.599 672.642 348.599 683.75Z" stroke="#F4DF93" stroke-width="5" stroke-miterlimit="10" stroke-linecap="round" stroke-linejoin="round"/>
<path d="M402.225 653.707C402.225 642.599 411.183 633.637 422.287 633.637C433.39 633.637 442.349 642.599 442.349 653.707" stroke="#F4DF93" stroke-width="5" stroke-miterlimit="10" stroke-linecap="round" stroke-linejoin="round"/>
<path d="M241.98 345.205C241.98 334.097 250.939 325.135 262.043 325.135C273.146 325.135 282.105 334.097 282.105 345.205" stroke="#F4DF93" stroke-width="5" stroke-miterlimit="10" stroke-linecap="round" stroke-linejoin="round"/>
<path d="M30.7598 182.118C30.7598 171.01 39.7184 162.048 50.6958 162.048C61.6732 162.048 70.6318 171.01 70.6318 182.118" stroke="#F4DF93" stroke-width="5" stroke-miterlimit="10" stroke-linecap="round" stroke-linejoin="round"/>
<path d="M536.857 214.938C525.754 214.938 516.795 205.976 516.795 194.994C516.795 184.012 525.754 175.05 536.857 175.05" stroke="#F4DF93" stroke-width="5" stroke-miterlimit="10" stroke-linecap="round" stroke-linejoin="round"/>
<path d="M53.3454 683.624C42.2418 683.624 33.2832 674.662 33.2832 663.68C33.2832 652.698 42.2418 643.609 53.3454 643.609" stroke="#F4DF93" stroke-width="5" stroke-miterlimit="10" stroke-linecap="round" stroke-linejoin="round"/>
<path d="M268.855 44.7817C257.752 44.7817 248.793 35.8195 248.793 24.8376C248.793 13.8558 257.752 4.89355 268.855 4.89355" stroke="#F4DF93" stroke-width="5" stroke-miterlimit="10" stroke-linecap="round" stroke-linejoin="round"/>
<path d="M63.4389 472.317C63.4389 483.426 54.4803 492.388 43.3767 492.388C32.273 492.388 23.3145 483.426 23.3145 472.317C23.3145 461.209 32.273 452.247 43.3767 452.247C54.4803 452.247 63.4389 461.209 63.4389 472.317Z" stroke="#F4DF93" stroke-width="5" stroke-miterlimit="10" stroke-linecap="round" stroke-linejoin="round"/>
<path d="M682.591 495.291C682.591 506.399 673.633 515.361 662.529 515.361C651.425 515.361 642.467 506.399 642.467 495.291C642.467 484.183 651.425 475.221 662.529 475.221C673.633 475.221 682.591 484.183 682.591 495.291Z" stroke="#F4DF93" stroke-width="5" stroke-miterlimit="10" stroke-linecap="round" stroke-linejoin="round"/>
<path d="M667.072 174.923H627.074V214.937H667.072V174.923Z" stroke="#F4DF93" stroke-width="5" stroke-miterlimit="10" stroke-linecap="round" stroke-linejoin="round"/>
<path d="M215.483 194.993H175.484V235.008H215.483V194.993Z" stroke="#F4DF93" stroke-width="5" stroke-miterlimit="10" stroke-linecap="round" stroke-linejoin="round"/>
<path d="M213.463 450.102H173.465V490.116H213.463V450.102Z" stroke="#F4DF93" stroke-width="5" stroke-miterlimit="10" stroke-linecap="round" stroke-linejoin="round"/>
<path d="M667.072 643.609H627.074V683.624H667.072V643.609Z" stroke="#F4DF93" stroke-width="5" stroke-miterlimit="10" stroke-linecap="round" stroke-linejoin="round"/>
<path d="M501.401 4.7666H461.402V44.781H501.401V4.7666Z" stroke="#F4DF93" stroke-width="5" stroke-miterlimit="10" stroke-linecap="round" stroke-linejoin="round"/>
<path d="M403.991 411.096C395.285 411.096 396.799 395.57 385.695 395.57" stroke="#F4DF93" stroke-width="5" stroke-miterlimit="10" stroke-linecap="round" stroke-linejoin="round"/>
<path d="M440.708 411.096C432.002 411.096 433.516 395.57 422.412 395.57" stroke="#F4DF93" stroke-width="5" stroke-miterlimit="10" stroke-linecap="round" stroke-linejoin="round"/>
<path d="M403.99 411.096C412.696 411.096 411.182 395.57 422.286 395.57" stroke="#F4DF93" stroke-width="5" stroke-miterlimit="10" stroke-linecap="round" stroke-linejoin="round"/>
<path d="M440.709 411.096C449.415 411.096 447.901 395.57 459.005 395.57" stroke="#F4DF93" stroke-width="5" stroke-miterlimit="10" stroke-linecap="round" stroke-linejoin="round"/>
<path d="M508.466 699.15C499.759 699.15 501.274 683.624 490.17 683.624" stroke="#F4DF93" stroke-width="5" stroke-miterlimit="10" stroke-linecap="round" stroke-linejoin="round"/>
<path d="M545.182 699.15C536.476 699.15 537.99 683.624 526.887 683.624" stroke="#F4DF93" stroke-width="5" stroke-miterlimit="10" stroke-linecap="round" stroke-linejoin="round"/>
<path d="M508.465 699.15C517.171 699.15 515.657 683.624 526.761 683.624" stroke="#F4DF93" stroke-width="5" stroke-miterlimit="10" stroke-linecap="round" stroke-linejoin="round"/>
<path d="M545.184 699.15C553.89 699.15 552.376 683.624 563.479 683.624" stroke="#F4DF93" stroke-width="5" stroke-miterlimit="10" stroke-linecap="round" stroke-linejoin="round"/>
<path d="M558.559 283.858C549.853 283.858 551.367 268.332 540.264 268.332" stroke="#F4DF93" stroke-width="5" stroke-miterlimit="10" stroke-linecap="round" stroke-linejoin="round"/>
<path d="M595.151 283.858C586.445 283.858 587.959 268.332 576.855 268.332" stroke="#F4DF93" stroke-width="5" stroke-miterlimit="10" stroke-linecap="round" stroke-linejoin="round"/>
<path d="M558.559 283.858C567.265 283.858 565.751 268.332 576.854 268.332" stroke="#F4DF93" stroke-width="5" stroke-miterlimit="10" stroke-linecap="round" stroke-linejoin="round"/>
<path d="M595.15 283.858C603.857 283.858 602.342 268.332 613.446 268.332" stroke="#F4DF93" stroke-width="5" stroke-miterlimit="10" stroke-linecap="round" stroke-linejoin="round"/>
<path d="M48.4246 265.176C39.7184 265.176 41.2325 249.65 30.1289 249.65" stroke="#F4DF93" stroke-width="5" stroke-miterlimit="10" stroke-linecap="round" stroke-linejoin="round"/>
<path d="M85.0164 265.176C76.3102 265.176 77.8243 249.65 66.7207 249.65" stroke="#F4DF93" stroke-width="5" stroke-miterlimit="10" stroke-linecap="round" stroke-linejoin="round"/>
<path d="M48.4238 265.176C57.1301 265.176 55.6159 249.65 66.7196 249.65" stroke="#F4DF93" stroke-width="5" stroke-miterlimit="10" stroke-linecap="round" stroke-linejoin="round"/>
<path d="M85.0156 265.176C93.7219 265.176 92.2077 249.65 103.311 249.65" stroke="#F4DF93" stroke-width="5" stroke-miterlimit="10" stroke-linecap="round" stroke-linejoin="round"/>
<path d="M407.02 58.0361C407.02 66.7459 391.5 65.2311 391.5 76.3392" stroke="#F4DF93" stroke-width="5" stroke-miterlimit="10" stroke-linecap="round" stroke-linejoin="round"/>
<path d="M407.02 21.3037C407.02 30.0135 391.5 28.4987 391.5 39.6068" stroke="#F4DF93" stroke-width="5" stroke-miterlimit="10" stroke-linecap="round" stroke-linejoin="round"/>
<path d="M407.02 58.0355C407.02 49.3258 391.5 50.8405 391.5 39.7324" stroke="#F4DF93" stroke-width="5" stroke-miterlimit="10" stroke-linecap="round" stroke-linejoin="round"/>
<path d="M407.02 21.3031C407.02 12.5934 391.5 14.1081 391.5 3" stroke="#F4DF93" stroke-width="5" stroke-miterlimit="10" stroke-linecap="round" stroke-linejoin="round"/>
<path d="M294.596 250.029C294.596 258.739 279.076 257.224 279.076 268.332" stroke="#F4DF93" stroke-width="5" stroke-miterlimit="10" stroke-linecap="round" stroke-linejoin="round"/>
<path d="M294.596 213.297C294.596 222.007 279.076 220.492 279.076 231.6" stroke="#F4DF93" stroke-width="5" stroke-miterlimit="10" stroke-linecap="round" stroke-linejoin="round"/>
<path d="M294.596 250.029C294.596 241.319 279.076 242.834 279.076 231.726" stroke="#F4DF93" stroke-width="5" stroke-miterlimit="10" stroke-linecap="round" stroke-linejoin="round"/>
<path d="M294.596 213.296C294.596 204.587 279.076 206.101 279.076 194.993" stroke="#F4DF93" stroke-width="5" stroke-miterlimit="10" stroke-linecap="round" stroke-linejoin="round"/>
<path d="M599.44 556.638C599.44 565.348 583.92 563.833 583.92 574.941" stroke="#F4DF93" stroke-width="5" stroke-miterlimit="10" stroke-linecap="round" stroke-linejoin="round"/>
<path d="M599.44 519.906C599.44 528.615 583.92 527.101 583.92 538.209" stroke="#F4DF93" stroke-width="5" stroke-miterlimit="10" stroke-linecap="round" stroke-linejoin="round"/>
<path d="M599.44 556.638C599.44 547.928 583.92 549.443 583.92 538.335" stroke="#F4DF93" stroke-width="5" stroke-miterlimit="10" stroke-linecap="round" stroke-linejoin="round"/>
<path d="M599.44 519.906C599.44 511.196 583.92 512.711 583.92 501.603" stroke="#F4DF93" stroke-width="5" stroke-miterlimit="10" stroke-linecap="round" stroke-linejoin="round"/>
<path d="M221.16 585.544C221.16 594.254 205.641 592.739 205.641 603.847" stroke="#F4DF93" stroke-width="5" stroke-miterlimit="10" stroke-linecap="round" stroke-linejoin="round"/>
<path d="M221.16 548.812C221.16 557.521 205.641 556.007 205.641 567.115" stroke="#F4DF93" stroke-width="5" stroke-miterlimit="10" stroke-linecap="round" stroke-linejoin="round"/>
<path d="M221.16 585.544C221.16 576.834 205.641 578.349 205.641 567.241" stroke="#F4DF93" stroke-width="5" stroke-miterlimit="10" stroke-linecap="round" stroke-linejoin="round"/>
<path d="M221.16 548.811C221.16 540.102 205.641 541.616 205.641 530.508" stroke="#F4DF93" stroke-width="5" stroke-miterlimit="10" stroke-linecap="round" stroke-linejoin="round"/>
<path d="M447.902 452.247H493.2" stroke="#F4DF93" stroke-width="5" stroke-miterlimit="10" stroke-linecap="round" stroke-linejoin="round"/>
<path d="M3 321.474H48.2977" stroke="#F4DF93" stroke-width="5" stroke-miterlimit="10" stroke-linecap="round" stroke-linejoin="round"/>
<path d="M451.309 110.925H496.606" stroke="#F4DF93" stroke-width="5" stroke-miterlimit="10" stroke-linecap="round" stroke-linejoin="round"/>
<path d="M629.723 8.80664H675.02" stroke="#F4DF93" stroke-width="5" stroke-miterlimit="10" stroke-linecap="round" stroke-linejoin="round"/>
<path d="M183.434 683.624H228.731" stroke="#F4DF93" stroke-width="5" stroke-miterlimit="10" stroke-linecap="round" stroke-linejoin="round"/>
<path d="M299.643 596.147L331.692 564.085" stroke="#F4DF93" stroke-width="5" stroke-miterlimit="10" stroke-linecap="round" stroke-linejoin="round"/>
<path d="M34.6699 40.7424L66.719 8.80664" stroke="#F4DF93" stroke-width="5" stroke-miterlimit="10" stroke-linecap="round" stroke-linejoin="round"/>
<path d="M652.309 368.936L684.358 337" stroke="#F4DF93" stroke-width="5" stroke-miterlimit="10" stroke-linecap="round" stroke-linejoin="round"/>
<path d="M415.095 559.415C411.436 561.687 406.515 560.677 404.244 556.89C401.973 553.23 402.982 548.307 406.768 546.035C410.427 543.762 415.348 544.772 417.619 548.559C419.89 552.22 418.754 557.143 415.095 559.415Z" stroke="#F4DF93" stroke-width="5" stroke-miterlimit="10" stroke-linecap="round" stroke-linejoin="round"/>
<path d="M352.763 341.797C349.104 344.069 344.183 343.059 341.912 339.272C339.641 335.611 340.65 330.689 344.436 328.416C348.095 326.144 353.016 327.154 355.287 330.941C357.558 334.602 356.422 339.525 352.763 341.797Z" stroke="#F4DF93" stroke-width="5" stroke-miterlimit="10" stroke-linecap="round" stroke-linejoin="round"/>
<path d="M67.7281 408.698C64.069 410.97 59.1481 409.96 56.8769 406.173C54.6057 402.513 55.6151 397.59 59.4004 395.318C63.0596 393.046 67.9805 394.056 70.2517 397.842C72.5229 401.503 71.3873 406.426 67.7281 408.698Z" stroke="#F4DF93" stroke-width="5" stroke-miterlimit="10" stroke-linecap="round" stroke-linejoin="round"/>
<path d="M148.734 159.649C145.075 161.921 140.154 160.911 137.883 157.125C135.612 153.464 136.621 148.541 140.406 146.269C144.065 143.997 148.986 145.007 151.258 148.794C153.529 152.454 152.393 157.377 148.734 159.649Z" stroke="#F4DF93" stroke-width="5" stroke-miterlimit="10" stroke-linecap="round" stroke-linejoin="round"/>
<path d="M583.795 155.736C580.135 158.008 575.214 156.998 572.943 153.212C570.672 149.551 571.682 144.628 575.467 142.356C579.126 140.084 584.047 141.094 586.318 144.88C588.589 148.541 587.454 153.464 583.795 155.736Z" stroke="#F4DF93" stroke-width="5" stroke-miterlimit="10" stroke-linecap="round" stroke-linejoin="round"/>
<path d="M695.46 437.604C691.801 439.876 686.88 438.866 684.609 435.08C682.338 431.419 683.348 426.496 687.133 424.224C690.792 421.952 695.713 422.962 697.984 426.749C700.381 430.409 699.246 435.332 695.46 437.604Z" stroke="#F4DF93" stroke-width="5" stroke-miterlimit="10" stroke-linecap="round" stroke-linejoin="round"/>
</g>
</svg>
